<svg version="1.2" xmlns="http://www.w3.org/2000/svg" viewBox="0 0 397 397" width="397" height="397"><style>.a{fill:#ebebeb}.b{fill:#f0f0f0}.c{fill:#fafafa}.d{fill:#e0e0e0}.e{fill:#f5f5f5}.f{fill:#e6e6e6}.g{fill:#ad6e5a}.h{fill:#fff}.i{opacity:.2}.j{opacity:.3}.k{opacity:.4}.l{fill:#263238}.m{opacity:.7;fill:#fff}.n{opacity:.3;fill:#fff}.o{fill:#ffc3bd}.p{fill:#ed847e}.q{opacity:.6}.r{opacity:.1}.s{opacity:.2;fill:#fff}</style><path fill-rule="evenodd" class="a" d="m365.8 329.5h33.1v0.2h-33.1z"/><path fill-rule="evenodd" class="a" d="m271.5 332.2h8.7v0.3h-8.7z"/><path fill-rule="evenodd" class="a" d="m345.6 320.2h19.2v0.3h-19.2z"/><path fill-rule="evenodd" class="a" d="m1.5 321.9h43.2v0.2h-43.2z"/><path fill-rule="evenodd" class="a" d="m53.6 321.9h6.3v0.2h-6.3z"/><path fill-rule="evenodd" class="a" d="m80.5 326.1h93.7v0.3h-93.7z"/><path class="a" d="m187.4 268.8h-193.1q-1.1 0-2.2-0.4-1-0.5-1.8-1.3-0.8-0.8-1.3-1.8-0.4-1.1-0.4-2.2v-271.4q0-1.2 0.4-2.2 0.5-1 1.3-1.8 0.8-0.8 1.8-1.3 1.1-0.4 2.2-0.4h193.1q1.1 0 2.2 0.4 1 0.5 1.8 1.3 0.8 0.8 1.3 1.8 0.4 1.1 0.4 2.2v271.4q0 1.1-0.4 2.2-0.5 1-1.3 1.8-0.8 0.8-1.8 1.3-1.1 0.4-2.2 0.4zm-193.1-282.6q-1.1 0-2.1 0.4-1 0.4-1.8 1.2-0.7 0.8-1.1 1.8-0.5 1-0.5 2.1v271.4q0 1.1 0.5 2.1 0.4 1 1.1 1.7 0.8 0.8 1.8 1.2 1 0.4 2.1 0.4h193.1q1.1 0 2.1-0.4 1-0.4 1.8-1.2 0.7-0.7 1.1-1.7 0.5-1 0.5-2.1v-271.4q0-1.1-0.5-2.1-0.4-1-1.1-1.8-0.8-0.8-1.8-1.2-1-0.4-2.1-0.4z"/><path class="a" d="m403.7 268.8h-193.1q-1.1 0-2.2-0.4-1-0.5-1.8-1.3-0.8-0.8-1.3-1.8-0.4-1.1-0.4-2.2v-271.4q0-1.2 0.4-2.2 0.5-1 1.3-1.8 0.8-0.8 1.8-1.3 1.1-0.4 2.2-0.4h193.1q1.1 0 2.2 0.4 1 0.5 1.8 1.3 0.8 0.8 1.3 1.8 0.4 1.1 0.4 2.2v271.4q0 1.1-0.4 2.2-0.5 1-1.3 1.8-0.8 0.8-1.8 1.3-1.1 0.4-2.2 0.4zm-193.1-282.6q-1.1 0-2.1 0.4-1 0.4-1.8 1.2-0.7 0.8-1.1 1.8-0.5 1-0.5 2.1v271.4q0 1.1 0.5 2.1 0.4 1 1.1 1.7 0.8 0.8 1.8 1.2 1 0.4 2.1 0.4h193.1q1.1 0 2.1-0.4 1-0.4 1.8-1.2 0.7-0.7 1.1-1.7 0.5-1 0.5-2.1v-271.4q0-1.1-0.5-2.1-0.4-1-1.1-1.8-0.8-0.8-1.8-1.2-1-0.4-2.1-0.4z"/><path fill-rule="evenodd" class="a" d="m-51 313.4h500v0.3h-500z"/><path fill-rule="evenodd" class="b" d="m46 55.3h72.6v92h-72.6z"/><path fill-rule="evenodd" class="c" d="m53.2 64.4h58.2v73.8h-58.2z"/><path fill-rule="evenodd" class="d" d="m46 147.4h-5.7v-92.1h5.7z"/><path class="e" d="m90.8 102.4c3.1 3.2 4.8 7.4 4.8 11.8 0 4.4-1.7 8.7-4.9 11.8-3.1 3.1-7.3 4.9-11.7 4.9-4.4 0-8.7-1.8-11.8-4.9-6.5-6.5 17-30.1 23.6-23.6z"/><path class="a" d="m73.4 101.2c-2.5-2.5-3.9-5.8-3.9-9.3 0-3.5 1.4-6.8 3.9-9.3 2.4-2.4 5.8-3.8 9.2-3.8 3.5 0 6.8 1.4 9.3 3.8 5.1 5.1-13.4 23.7-18.5 18.6z"/><path fill-rule="evenodd" class="b" d="m330.9 184.7h8.6v129.3h-8.6z"/><path fill-rule="evenodd" class="f" d="m335.7 184.7h7.5v129.3h-7.5z"/><path fill-rule="evenodd" class="b" d="m243.8 184.7h8.7v129.3h-8.7z"/><path fill-rule="evenodd" class="f" d="m248.7 184.7h7.5v129.3h-7.5z"/><path fill-rule="evenodd" class="b" d="m363.6 184.7h8.6v129.3h-8.6z"/><path fill-rule="evenodd" class="f" d="m368.4 184.7h7.6v129.3h-7.6z"/><path fill-rule="evenodd" class="b" d="m276.6 184.7h8.6v129.3h-8.6z"/><path fill-rule="evenodd" class="b" d="m243.9 176.4h132.1v10.4h-132.1z"/><path fill-rule="evenodd" class="d" d="m243.9 176.4h37.5v10.4h-37.5z"/><path fill-rule="evenodd" class="f" d="m281.4 184.7h7.6v129.3h-7.6z"/><path fill-rule="evenodd" class="f" d="m16.3 177.1h55.3v136.9h-55.3z"/><path fill-rule="evenodd" class="e" d="m59.5 177.1h115.4v136.9h-115.4z"/><path class="a" d="m135.6 185.7h18.8c2 0 4 0.4 5.8 1.2 1.8 0.7 3.5 1.8 4.9 3.2 1.3 1.4 2.5 3.1 3.2 4.9 0.8 1.8 1.1 3.8 1.1 5.7v106.5h-48.8v-106.5c0-2 0.4-3.9 1.2-5.7 0.7-1.8 1.8-3.5 3.2-4.9 1.4-1.4 3.1-2.5 4.9-3.2 1.8-0.8 3.7-1.2 5.7-1.2z"/><path class="a" d="m81.1 185.7h18.9c2 0 3.9 0.4 5.7 1.2 1.9 0.7 3.5 1.8 4.9 3.2 1.4 1.4 2.5 3.1 3.3 4.9 0.7 1.8 1.1 3.8 1.1 5.7v106.5h-48.9v-106.5c0-2 0.4-3.9 1.2-5.7 0.7-1.8 1.8-3.5 3.2-4.9 1.4-1.4 3.1-2.5 4.9-3.2 1.8-0.8 3.7-1.2 5.7-1.2z"/><path class="d" d="m110.5 245.5c-0.1 2-1.3 3.6-3.2 4.3-1.8 0.7-3.8 0.2-5.1-1.2-1.4-1.4-1.7-3.5-1-5.3 0.8-1.8 2.6-2.9 4.5-2.9q1 0 1.9 0.4 0.9 0.4 1.6 1.2 0.7 0.7 1 1.6 0.4 0.9 0.3 1.9z"/><path class="d" d="m135.5 245.5c-0.1 2-1.4 3.6-3.2 4.3-1.8 0.7-3.8 0.2-5.2-1.2-1.3-1.4-1.7-3.5-0.9-5.3 0.8-1.8 2.5-2.9 4.5-2.9q1 0 1.9 0.4 0.9 0.4 1.6 1.2 0.6 0.7 1 1.6 0.3 0.9 0.3 1.9z"/><path fill-rule="evenodd" class="e" d="m199 358c-107.2 0-193.9-5.1-193.9-11.3 0-6.3 86.7-11.3 193.9-11.3 107.2 0 193.9 5 193.9 11.3 0 6.2-86.7 11.3-193.9 11.3z"/><path class="g" d="m241.5 319.4c-0.1-14.3-4.3-23.1-7.9-27.9q-0.7-1.1-1.6-2.1-0.9-1-1.9-2-0.9-0.9-2-1.6-1.1-0.8-2.2-1.5l0.4-0.9c0.2 0 16.1 8 16.3 36z"/><path class="g" d="m245.6 316.9l-1-0.1c4.2-46.5-27-62.8-27.2-62.9l0.5-1c0.2 0.2 31.9 16.8 27.7 64z"/><path class="g" d="m249.2 318.6c-1.1-26.5 1.7-55.9 1.7-56.2l1 0.1c0 0.3-2.8 29.7-1.7 56z"/><path class="g" d="m251.2 320.1c1.8-11.3 6.3-17.7 9.7-21.1q0.7-0.7 1.5-1.4 0.8-0.7 1.7-1.3 0.9-0.6 1.8-1.1 1-0.5 2-0.9l-0.3-0.8c-0.1 0-13.6 4.4-17.2 26.5z"/><g style="opacity:.3"><path class="h" d="m241.5 319.4c-0.1-14.3-4.3-23.1-7.9-27.9q-0.7-1.1-1.6-2.1-0.9-1-1.9-2-0.9-0.9-2-1.6-1.1-0.8-2.2-1.5l0.4-0.9c0.2 0 16.1 8 16.3 36z"/><path class="h" d="m245.6 316.9l-1-0.1c4.2-46.5-27-62.8-27.2-62.9l0.5-1c0.2 0.2 31.9 16.8 27.7 64z"/><path class="h" d="m249.2 318.6c-1.1-26.5 1.7-55.9 1.7-56.2l1 0.1c0 0.3-2.8 29.7-1.7 56z"/><path class="h" d="m251.2 320.1c1.8-11.3 6.3-17.7 9.7-21.1q0.7-0.7 1.5-1.4 0.8-0.7 1.7-1.3 0.9-0.6 1.8-1.1 1-0.5 2-0.9l-0.3-0.8c-0.1 0-13.6 4.4-17.2 26.5z"/></g><path class="g" d="m220.8 255c0 0-6.9-17.6-16.8-4.5-8.1 10.6 0 22.2 0 22.2 0 0 43.2 1.1 35.5-15.4-4.8-10.2-18.7-2.3-18.7-2.3z"/><g style="opacity:.5"><path class="h" d="m219.4 255.8c0 0-12.7-2-12.8-1 0 1 11.2 1.4 10.1 2.8-1 1.4-11.8 2.6-12 4-0.1 1.3 10.2-2 9.7-0.8-0.4 1.2-7.3 6.7-7.4 8.2-0.1 1.4 6.4-6.2 7.2-5.4 0.8 0.9 1.2 7.9 1.9 6.3 0.6-1.6-0.2-8.7 1.4-10 1.6-1.4 10.9 7.3 12.9 6.2 2.1-1.2-10.2-6.1-11-10.3z"/><path class="h" d="m226.1 256.5c0 0 10.6 0.1 10.9 3 0.3 2.9-2-0.2-10.9-3z"/></g><path class="g" d="m224.6 318.5l4.9 26.7q0.2 1.1 0.7 2 0.6 0.9 1.4 1.5 0.8 0.7 1.7 1 1 0.4 2.1 0.4h19.1q1 0 2-0.4 1-0.3 1.8-1 0.8-0.6 1.3-1.5 0.5-0.9 0.7-2l5-26.7q0.1-0.7-0.1-1.5-0.2-0.7-0.7-1.3-0.5-0.6-1.2-0.9-0.7-0.4-1.4-0.4h-33.9q-0.8 0-1.5 0.4-0.7 0.3-1.2 0.9-0.4 0.6-0.6 1.3-0.2 0.8-0.1 1.5z"/><path class="g" d="m221.6 285.8c0 0-11.9-10-14 3.3-1.7 10.9 8.7 16.2 8.7 16.2 0 0 31.8-16 19.7-25-7.4-5.6-14.4 5.5-14.4 5.5z"/><path class="i" d="m221.6 285.8c0 0-11.9-10-14 3.3-1.7 10.9 8.7 16.2 8.7 16.2 0 0 31.8-16 19.7-25-7.4-5.6-14.4 5.5-14.4 5.5z"/><g style="opacity:.5"><path class="h" d="m220.9 287c0 0-10 3.5-9.7 4.3 0.4 0.7 8.7-3.3 8.5-1.9-0.2 1.4-7.6 6.5-7.2 7.5 0.4 1 6.6-5.3 6.8-4.3 0.1 1-2.7 7.7-2.3 8.8 0.5 1.1 2.3-7 3.2-6.7 0.9 0.3 3.9 5.2 3.8 3.8-0.2-1.4-3.5-6.2-2.9-7.8 0.6-1.6 10.8 1.2 11.8-0.5 1.1-1.7-9.8-0.5-12-3.2z"/><path class="h" d="m226 284.9c0 0 7.8-4 9.1-2.1 1.3 1.9-1.5 0.7-9.1 2.1z"/></g><path class="g" d="m262.5 258.6c0 0 13.8-11.7 16.2 3.8 2 12.6-10 18.8-10 18.8 0 0-37-18.7-23-29.1 8.6-6.4 16.8 6.5 16.8 6.5z"/><path class="j" d="m262.5 258.6c0 0 13.8-11.7 16.2 3.8 2 12.6-10 18.8-10 18.8 0 0-37-18.7-23-29.1 8.6-6.4 16.8 6.5 16.8 6.5z"/><g style="opacity:.5"><path class="h" d="m263.3 260c0 0 11.6 4.1 11.2 5-0.3 0.9-10-3.8-9.8-2.2 0.3 1.7 8.9 7.6 8.4 8.8-0.6 1.1-7.7-6.3-7.9-5-0.1 1.2 3.2 9 2.6 10.2-0.6 1.3-2.6-8.2-3.7-7.8-1 0.4-4.5 6.1-4.4 4.4 0.2-1.6 4-7.2 3.4-9-0.7-1.9-12.5 1.3-13.8-0.7-1.2-1.9 11.5-0.6 14-3.7z"/><path class="h" d="m257.4 257.5c0 0-9-4.7-10.6-2.4-1.6 2.3 1.7 0.8 10.6 2.4z"/></g><path class="g" d="m270.6 294c0 0 9.3-9.5 12.1 1.7 2.4 9.1-6 14.4-6 14.4 0 0-28.4-11.1-18.9-19.7 5.9-5.3 12.8 3.6 12.8 3.6z"/><path class="k" d="m270.6 294c0 0 9.3-9.5 12.1 1.7 2.4 9.1-6 14.4-6 14.4 0 0-28.4-11.1-18.9-19.7 5.9-5.3 12.8 3.6 12.8 3.6z"/><g style="opacity:.5"><path class="h" d="m271.3 294.9c0 0 8.8 2.2 8.5 2.9-0.2 0.6-7.6-2.1-7.3-1 0.3 1.2 7 5 6.7 5.9-0.3 0.9-6.1-4-6.1-3.2 0 0.9 2.9 6.4 2.6 7.4-0.3 1-2.5-5.8-3.2-5.5-0.8 0.4-2.9 4.8-2.9 3.6 0-1.2 2.4-5.6 1.8-6.9-0.7-1.3-9.1 1.8-10.1 0.5-1.1-1.4 8.3-1.2 10-3.7z"/><path class="h" d="m266.7 293.5c0 0-6.9-2.8-7.9-1-1 1.8 1.4 0.4 7.9 1z"/></g><path class="l" d="m330.5 191.4h-71.3q-1.3 0-2.4-0.5-1.1-0.5-2-1.4-0.8-0.9-1.2-2.1-0.4-1.2-0.2-2.4l3.8-43.9q0.1-1.3 0.7-2.5 0.6-1.1 1.5-2 1-0.9 2.2-1.4 1.2-0.5 2.5-0.5h71.3q1.3 0 2.4 0.5 1.1 0.5 2 1.4 0.8 0.9 1.2 2.1 0.4 1.2 0.3 2.4l-3.9 43.9q-0.1 1.3-0.7 2.5-0.6 1.1-1.6 2-0.9 0.9-2.1 1.4-1.2 0.5-2.5 0.5z"/><path class="g" d="m288.4 159.5c-0.1 1.6-0.6 3.1-1.3 4.5-0.7 1.4-1.6 2.7-2.8 3.7-1.1 1.1-2.5 1.9-3.9 2.5-1.5 0.6-3 0.9-4.6 0.9-1.5 0.1-3-0.2-4.3-0.8-1.4-0.6-2.6-1.5-3.6-2.6-1-1.1-1.8-2.4-2.3-3.8-0.4-1.4-0.6-2.9-0.4-4.4 0.2-1.6 0.6-3.1 1.3-4.5 0.7-1.4 1.7-2.6 2.8-3.7 1.2-1.1 2.5-1.9 4-2.5 1.4-0.6 3-0.9 4.5-0.9l0.6-6c-2.4 0.1-4.8 0.5-7 1.4-2.2 0.9-4.2 2.2-5.9 3.8-1.8 1.6-3.2 3.5-4.3 5.6-1 2.1-1.7 4.4-2 6.8-0.2 2.2 0 4.5 0.7 6.6 0.7 2.2 1.9 4.1 3.4 5.8 1.5 1.7 3.3 3 5.4 3.9 2.1 0.9 4.3 1.3 6.5 1.3 2.4-0.1 4.8-0.5 7-1.4 2.2-0.9 4.2-2.2 5.9-3.8 1.8-1.6 3.2-3.5 4.3-5.6 1.1-2.1 1.7-4.4 2-6.8z"/><path class="g" d="m296.5 156.9c0.2-2.2 0-4.5-0.7-6.6-0.7-2.1-1.8-4.1-3.4-5.8-1.5-1.6-3.3-3-5.4-3.8-2-0.9-4.3-1.4-6.5-1.3l-0.5 6c1.4-0.1 2.9 0.2 4.3 0.8 1.4 0.6 2.6 1.5 3.6 2.6 1 1.1 1.8 2.4 2.2 3.8 0.5 1.4 0.6 2.9 0.5 4.4z"/><path class="m" d="m296.5 156.9c0.2-2.2 0-4.5-0.7-6.6-0.7-2.1-1.8-4.1-3.4-5.8-1.5-1.6-3.3-3-5.4-3.8-2-0.9-4.3-1.4-6.5-1.3l-0.5 6c1.4-0.1 2.9 0.2 4.3 0.8 1.4 0.6 2.6 1.5 3.6 2.6 1 1.1 1.8 2.4 2.2 3.8 0.5 1.4 0.6 2.9 0.5 4.4z"/><path class="g" d="m281.9 159.5q-0.1 1.1-0.6 2-0.5 1-1.3 1.7-0.8 0.8-1.8 1.2-1 0.4-2 0.4-1.1 0-2-0.4-1-0.4-1.7-1.2-0.6-0.7-1-1.7-0.3-1-0.2-2 0.1-1.1 0.6-2 0.5-1 1.3-1.7 0.8-0.8 1.8-1.2 1-0.4 2.1-0.4l0.2-2.7q-1.6 0-3.1 0.6-1.5 0.7-2.7 1.8-1.2 1.1-2 2.5-0.7 1.5-0.9 3.1c-0.1 1 0 2.1 0.3 3 0.4 1 0.9 1.9 1.6 2.7 0.7 0.7 1.5 1.3 2.4 1.7 1 0.4 2 0.6 3 0.6q1.7 0 3.2-0.6 1.5-0.6 2.7-1.7 1.2-1.1 1.9-2.6 0.8-1.5 0.9-3.1z"/><path class="m" d="m281.9 159.5q-0.1 1.1-0.6 2-0.5 1-1.3 1.7-0.8 0.8-1.8 1.2-1 0.4-2 0.4-1.1 0-2-0.4-1-0.4-1.7-1.2-0.6-0.7-1-1.7-0.3-1-0.2-2 0.1-1.1 0.6-2 0.5-1 1.3-1.7 0.8-0.8 1.8-1.2 1-0.4 2.1-0.4l0.2-2.7q-1.6 0-3.1 0.6-1.5 0.7-2.7 1.8-1.2 1.1-2 2.5-0.7 1.5-0.9 3.1c-0.1 1 0 2.1 0.3 3 0.4 1 0.9 1.9 1.6 2.7 0.7 0.7 1.5 1.3 2.4 1.7 1 0.4 2 0.6 3 0.6q1.7 0 3.2-0.6 1.5-0.6 2.7-1.7 1.2-1.1 1.9-2.6 0.8-1.5 0.9-3.1z"/><path class="g" d="m285.6 158.3c0.1-1 0-2-0.3-3-0.4-1-0.9-1.9-1.6-2.6-0.7-0.8-1.5-1.4-2.4-1.8-1-0.4-2-0.6-3-0.6l-0.3 2.7q1 0 2 0.4 0.9 0.4 1.6 1.2 0.7 0.7 1 1.7 0.3 1 0.2 2z"/><path class="g" d="m319.9 141.9l-0.6 6c1.5 0 3 0.2 4.4 0.8 1.3 0.6 2.6 1.5 3.6 2.6 1 1.1 1.7 2.4 2.2 3.8 0.4 1.4 0.6 2.9 0.4 4.4-0.1 1.6-0.6 3.1-1.3 4.5-0.7 1.4-1.6 2.7-2.8 3.7-1.1 1.1-2.5 1.9-3.9 2.5-1.5 0.6-3 0.9-4.6 0.9-1.5 0.1-3-0.2-4.3-0.8-1.4-0.6-2.6-1.5-3.6-2.6-1-1.1-1.8-2.4-2.3-3.8-0.4-1.4-0.6-2.9-0.4-4.4q0.1-1.2 0.4-2.3 0.4-1.1 0.9-2.2 0.5-1 1.2-2 0.7-0.9 1.6-1.7l-3.8-4.2q-1.3 1.2-2.4 2.6-1.1 1.4-1.9 3-0.8 1.6-1.3 3.3-0.5 1.7-0.7 3.5c-0.2 2.2 0 4.5 0.7 6.6 0.7 2.2 1.9 4.1 3.4 5.8 1.5 1.7 3.3 3 5.4 3.9 2.1 0.9 4.3 1.3 6.5 1.3 2.4-0.1 4.8-0.5 7-1.4 2.2-0.9 4.2-2.2 5.9-3.8 1.8-1.6 3.2-3.5 4.3-5.6 1-2.1 1.7-4.4 2-6.8 0.2-2.2 0-4.5-0.7-6.6-0.7-2.2-1.9-4.1-3.4-5.8-1.5-1.7-3.3-3-5.4-3.9-2.1-0.9-4.3-1.3-6.5-1.3z"/><path class="m" d="m319.9 141.9l-0.6 6c1.5 0 3 0.2 4.4 0.8 1.3 0.6 2.6 1.5 3.6 2.6 1 1.1 1.7 2.4 2.2 3.8 0.4 1.4 0.6 2.9 0.4 4.4-0.1 1.6-0.6 3.1-1.3 4.5-0.7 1.4-1.6 2.7-2.8 3.7-1.1 1.1-2.5 1.9-3.9 2.5-1.5 0.6-3 0.9-4.6 0.9-1.5 0.1-3-0.2-4.3-0.8-1.4-0.6-2.6-1.5-3.6-2.6-1-1.1-1.8-2.4-2.3-3.8-0.4-1.4-0.6-2.9-0.4-4.4q0.1-1.2 0.4-2.3 0.4-1.1 0.9-2.2 0.5-1 1.2-2 0.7-0.9 1.6-1.7l-3.8-4.2q-1.3 1.2-2.4 2.6-1.1 1.4-1.9 3-0.8 1.6-1.3 3.3-0.5 1.7-0.7 3.5c-0.2 2.2 0 4.5 0.7 6.6 0.7 2.2 1.9 4.1 3.4 5.8 1.5 1.7 3.3 3 5.4 3.9 2.1 0.9 4.3 1.3 6.5 1.3 2.4-0.1 4.8-0.5 7-1.4 2.2-0.9 4.2-2.2 5.9-3.8 1.8-1.6 3.2-3.5 4.3-5.6 1-2.1 1.7-4.4 2-6.8 0.2-2.2 0-4.5-0.7-6.6-0.7-2.2-1.9-4.1-3.4-5.8-1.5-1.7-3.3-3-5.4-3.9-2.1-0.9-4.3-1.3-6.5-1.3z"/><path class="g" d="m305.8 143.8l3.9 4.2q0.8-0.8 1.8-1.4 1-0.6 2.1-1.1 1.1-0.4 2.3-0.6 1.1-0.3 2.3-0.3l0.5-5.9q-1.8 0-3.5 0.3-1.8 0.4-3.4 1-1.7 0.7-3.2 1.7-1.5 0.9-2.8 2.1z"/><path class="j" d="m305.8 143.8l3.9 4.2q0.8-0.8 1.8-1.4 1-0.6 2.1-1.1 1.1-0.4 2.3-0.6 1.1-0.3 2.3-0.3l0.5-5.9q-1.8 0-3.5 0.3-1.8 0.4-3.4 1-1.7 0.7-3.2 1.7-1.5 0.9-2.8 2.1z"/><path class="g" d="m319.1 151l-0.3 2.8q1.1 0 2.1 0.4 1 0.5 1.7 1.3 0.7 0.8 1.1 1.8 0.3 1 0.2 2.1-0.1 1.1-0.6 2.1-0.5 1-1.4 1.8-0.8 0.8-1.8 1.2-1.1 0.4-2.2 0.5-1.1 0-2.1-0.5-1-0.4-1.7-1.2-0.7-0.8-1.1-1.8-0.3-1-0.2-2.1 0.1-0.6 0.2-1.1 0.2-0.5 0.4-1.1 0.3-0.5 0.6-0.9 0.4-0.5 0.8-0.8l-1.8-2q-0.7 0.5-1.2 1.2-0.5 0.7-0.9 1.5-0.4 0.7-0.6 1.5-0.2 0.9-0.3 1.7c-0.1 1.1 0 2.2 0.3 3.2 0.3 1 0.9 1.9 1.6 2.7 0.7 0.8 1.6 1.5 2.6 1.9 1 0.4 2.1 0.6 3.1 0.6q1.8 0 3.3-0.7 1.6-0.6 2.9-1.8 1.3-1.1 2-2.7 0.8-1.5 1-3.2c0.1-1.1 0-2.2-0.4-3.2-0.3-1-0.8-2-1.6-2.7-0.7-0.8-1.6-1.5-2.6-1.9-1-0.4-2.1-0.6-3.1-0.6z"/><path class="g" d="m312.4 151.9l1.8 2q0.4-0.4 0.9-0.7 0.5-0.3 1-0.5 0.5-0.2 1.1-0.4 0.5-0.1 1.1-0.1l0.2-2.8q-0.8 0-1.7 0.2-0.8 0.1-1.6 0.4-0.8 0.4-1.5 0.8-0.7 0.5-1.3 1.1z"/><path class="j" d="m312.4 151.9l1.8 2q0.4-0.4 0.9-0.7 0.5-0.3 1-0.5 0.5-0.2 1.1-0.4 0.5-0.1 1.1-0.1l0.2-2.8q-0.8 0-1.7 0.2-0.8 0.1-1.6 0.4-0.8 0.4-1.5 0.8-0.7 0.5-1.3 1.1z"/><path class="h" d="m267.2 184.8q-0.4 0-0.7-0.2-0.4-0.1-0.6-0.4-0.2-0.2-0.4-0.6-0.1-0.3 0-0.7 0-0.4 0.2-0.7 0.1-0.4 0.4-0.6 0.3-0.3 0.6-0.4 0.4-0.2 0.8-0.2 0.3 0 0.7 0.2 0.3 0.1 0.5 0.4 0.3 0.2 0.4 0.6 0.1 0.3 0.1 0.7-0.1 0.4-0.2 0.7-0.2 0.4-0.5 0.6-0.2 0.3-0.6 0.4-0.3 0.2-0.7 0.2z"/><path class="h" d="m286.4 183.8h-14q-0.2 0.1-0.4 0-0.2-0.1-0.3-0.2-0.1-0.2-0.2-0.3 0-0.2 0-0.4 0-0.2 0.1-0.4 0-0.2 0.2-0.3 0.1-0.1 0.3-0.2 0.2-0.1 0.4-0.1h14q0.2 0 0.4 0.1 0.1 0 0.3 0.2 0.1 0.1 0.1 0.3 0.1 0.2 0.1 0.4 0 0.2-0.1 0.4-0.1 0.1-0.2 0.3-0.2 0.1-0.4 0.2-0.1 0-0.3 0z"/><path class="h" d="m282.5 187.6h-10.4q-0.2 0-0.4-0.1-0.2-0.1-0.3-0.2-0.1-0.1-0.2-0.3-0.1-0.2 0-0.4 0-0.2 0.1-0.4 0.1-0.2 0.2-0.3 0.1-0.1 0.3-0.2 0.2-0.1 0.4-0.1h10.5q0.1 0 0.3 0.1 0.2 0.1 0.3 0.2 0.1 0.1 0.2 0.3 0.1 0.2 0 0.4 0 0.2-0.1 0.4-0.1 0.2-0.2 0.3-0.1 0.1-0.3 0.2-0.2 0.1-0.4 0.1z"/><path class="h" d="m307.7 184.8q-0.3 0-0.7-0.2-0.3-0.1-0.6-0.4-0.2-0.2-0.3-0.6-0.1-0.3-0.1-0.7 0-0.4 0.2-0.7 0.2-0.4 0.4-0.6 0.3-0.3 0.7-0.4 0.3-0.2 0.7-0.2 0.4 0 0.7 0.2 0.3 0.1 0.6 0.4 0.2 0.2 0.3 0.6 0.1 0.3 0.1 0.7 0 0.4-0.2 0.7-0.2 0.3-0.4 0.6-0.3 0.3-0.7 0.4-0.3 0.2-0.7 0.2z"/><path class="h" d="m326.9 183.8h-14q-0.2 0.1-0.4 0-0.1-0.1-0.2-0.2-0.2-0.2-0.2-0.3-0.1-0.2-0.1-0.4 0-0.2 0.1-0.4 0.1-0.2 0.2-0.3 0.2-0.1 0.4-0.2 0.1-0.1 0.3-0.1h14q0.2 0 0.4 0.1 0.2 0 0.3 0.2 0.1 0.1 0.2 0.3 0 0.2 0 0.4 0 0.2-0.1 0.4-0.1 0.1-0.2 0.3-0.1 0.1-0.3 0.2-0.2 0-0.4 0z"/><path class="h" d="m323.1 187.6h-10.5q-0.2 0-0.4-0.1-0.2-0.1-0.3-0.2-0.1-0.1-0.2-0.3 0-0.2 0-0.4 0-0.2 0.1-0.4 0.1-0.2 0.2-0.3 0.2-0.1 0.3-0.2 0.2-0.1 0.4-0.1h10.5q0.2 0 0.4 0.1 0.1 0.1 0.3 0.2 0.1 0.1 0.1 0.3 0.1 0.2 0.1 0.4-0.1 0.2-0.1 0.4-0.1 0.2-0.3 0.3-0.1 0.1-0.3 0.2-0.2 0.1-0.4 0.1z"/><path class="g" d="m238.4 215.3h-106.8q-1.3 0-2.4-0.4-1.1-0.5-2-1.4-0.8-1-1.2-2.1-0.4-1.2-0.2-2.4l5.9-67.9q0.1-1.3 0.7-2.5 0.6-1.1 1.6-2 0.9-0.9 2.1-1.4 1.2-0.5 2.5-0.5h106.9q1.2 0 2.3 0.5 1.2 0.5 2 1.4 0.8 0.9 1.2 2.1 0.4 1.2 0.3 2.4l-5.9 67.9q-0.2 1.3-0.8 2.4-0.6 1.2-1.5 2.1-1 0.8-2.2 1.3-1.2 0.5-2.5 0.5z"/><path class="m" d="m238.4 215.3h-106.8q-1.3 0-2.4-0.4-1.1-0.5-2-1.4-0.8-1-1.2-2.1-0.4-1.2-0.2-2.4l5.9-67.9q0.1-1.3 0.7-2.5 0.6-1.1 1.6-2 0.9-0.9 2.1-1.4 1.2-0.5 2.5-0.5h106.9q1.2 0 2.3 0.5 1.2 0.5 2 1.4 0.8 0.9 1.2 2.1 0.4 1.2 0.3 2.4l-5.9 67.9q-0.2 1.3-0.8 2.4-0.6 1.2-1.5 2.1-1 0.8-2.2 1.3-1.2 0.5-2.5 0.5z"/><path fill-rule="evenodd" class="g" d="m136 195h-2.7l3.7-41.4h2.7l-3.7 41.4z"/><path fill-rule="evenodd" class="l" d="m139.9 195h-2.7l2.6-30.5h2.8l-2.7 30.5z"/><path fill-rule="evenodd" class="g" d="m146 195h-2.7l1.7-19.9h2.7l-1.7 19.9z"/><path fill-rule="evenodd" class="l" d="m149.8 195h-2.7l2.1-23.7h2.7l-2.1 23.7z"/><path fill-rule="evenodd" class="g" d="m155.9 195h-2.7l3.1-35.4h2.7l-3.1 35.4z"/><path fill-rule="evenodd" class="l" d="m159.8 195h-2.7l2.6-30.5h2.7l-2.6 30.5z"/><path fill-rule="evenodd" class="g" d="m165.9 195h-2.7l2.6-30.5h2.8l-2.7 30.5z"/><path fill-rule="evenodd" class="l" d="m169.7 195h-2.7l3.4-38.2h2.7l-3.4 38.2z"/><path fill-rule="evenodd" class="g" d="m175.8 195h-2.7l1.8-20.7h2.7l-1.8 20.7z"/><path fill-rule="evenodd" class="l" d="m179.7 195h-2.7l2.6-30.5h2.7l-2.6 30.5z"/><path fill-rule="evenodd" class="g" d="m185.8 195h-2.7l3.1-35.4h2.7l-3.1 35.4z"/><path fill-rule="evenodd" class="l" d="m189.6 195h-2.7l3.8-43h2.7l-3.8 43z"/><path fill-rule="evenodd" class="g" d="m195.7 195h-2.7l1-11.3 2.7 0.1-1 11.2z"/><path fill-rule="evenodd" class="l" d="m199.6 195h-2.8l1.9-20.9h2.7l-1.8 20.9z"/><path fill-rule="evenodd" class="g" d="m205.7 195h-2.8l1.8-19.9h2.7l-1.7 19.9z"/><path fill-rule="evenodd" class="l" d="m209.5 195h-2.7l3.4-39.1h2.7l-3.4 39.1z"/><path fill-rule="evenodd" class="g" d="m215.6 195h-2.7l2.2-25.7h2.8l-2.3 25.7z"/><path fill-rule="evenodd" class="l" d="m219.4 195h-2.7l4.4-49.7h2.7l-4.4 49.7z"/><path fill-rule="evenodd" class="g" d="m225.6 195h-2.8l3-33.3h2.7l-2.9 33.3z"/><path fill-rule="evenodd" class="l" d="m229.4 195h-2.7l2.7-30.5h2.7l-2.7 30.5z"/><path fill-rule="evenodd" class="g" d="m235.5 195h-2.7l3.7-42h2.7l-3.7 42z"/><path fill-rule="evenodd" class="l" d="m239.3 195h-2.7l2.2-24.7h2.7l-2.2 24.7z"/><path class="l" d="m135 206.4q-0.5 0-1-0.2-0.5-0.2-0.8-0.6-0.4-0.4-0.5-0.9-0.2-0.5-0.1-1 0-0.5 0.3-1 0.2-0.5 0.6-0.9 0.4-0.3 0.9-0.6 0.5-0.2 1.1-0.2 0.5 0 1 0.2 0.4 0.2 0.8 0.6 0.3 0.4 0.5 0.9 0.2 0.5 0.1 1-0.1 0.5-0.3 1-0.3 0.5-0.7 0.9-0.4 0.3-0.9 0.5-0.5 0.2-1 0.3z"/><path class="l" d="m162.3 205.1h-19.9q-0.3 0-0.5-0.1-0.2-0.2-0.4-0.3-0.2-0.2-0.3-0.5-0.1-0.2 0-0.5 0-0.3 0.1-0.5 0.1-0.3 0.3-0.5 0.2-0.1 0.5-0.3 0.3-0.1 0.5-0.1h19.9q0.3 0 0.5 0.1 0.3 0.1 0.5 0.3 0.1 0.2 0.2 0.5 0.1 0.2 0.1 0.5-0.1 0.3-0.2 0.5-0.1 0.3-0.3 0.5-0.2 0.1-0.5 0.2-0.2 0.1-0.5 0.2z"/><path class="l" d="m156.8 210.4h-14.9q-0.2 0-0.5-0.1-0.2-0.1-0.4-0.3-0.2-0.2-0.3-0.5 0-0.2 0-0.5 0-0.3 0.1-0.5 0.2-0.3 0.4-0.5 0.2-0.1 0.4-0.3 0.3-0.1 0.6-0.1h14.9q0.2 0 0.5 0.1 0.2 0.1 0.4 0.3 0.2 0.2 0.2 0.5 0.1 0.2 0.1 0.5 0 0.3-0.1 0.5-0.2 0.3-0.4 0.5-0.2 0.2-0.4 0.3-0.3 0.1-0.6 0.1z"/><path class="n" d="m162.3 205.1h-19.9q-0.3 0-0.5-0.1-0.2-0.2-0.4-0.3-0.2-0.2-0.3-0.5-0.1-0.2 0-0.5 0-0.3 0.1-0.5 0.1-0.3 0.3-0.5 0.2-0.1 0.5-0.3 0.3-0.1 0.5-0.1h19.9q0.3 0 0.5 0.1 0.3 0.1 0.5 0.3 0.1 0.2 0.2 0.5 0.1 0.2 0.1 0.5-0.1 0.3-0.2 0.5-0.1 0.3-0.3 0.5-0.2 0.1-0.5 0.2-0.2 0.1-0.5 0.2z"/><path class="n" d="m156.8 210.4h-14.9q-0.2 0-0.5-0.1-0.2-0.1-0.4-0.3-0.2-0.2-0.3-0.5 0-0.2 0-0.5 0-0.3 0.1-0.5 0.2-0.3 0.4-0.5 0.2-0.1 0.4-0.3 0.3-0.1 0.6-0.1h14.9q0.2 0 0.5 0.1 0.2 0.1 0.4 0.3 0.2 0.2 0.2 0.5 0.1 0.2 0.1 0.5 0 0.3-0.1 0.5-0.2 0.3-0.4 0.5-0.2 0.2-0.4 0.3-0.3 0.1-0.6 0.1z"/><path class="g" d="m174.3 206.4q-0.5 0-1-0.2-0.4-0.2-0.8-0.6-0.3-0.4-0.5-0.9-0.2-0.5-0.1-1 0.1-0.5 0.3-1 0.3-0.5 0.6-0.9 0.5-0.3 1-0.6 0.5-0.2 1-0.2 0.5 0 1 0.2 0.5 0.2 0.8 0.6 0.4 0.4 0.5 0.9 0.2 0.5 0.1 1 0 0.5-0.3 1-0.2 0.5-0.6 0.9-0.4 0.3-0.9 0.5-0.5 0.2-1.1 0.3z"/><path class="j" d="m174.3 206.4q-0.5 0-1-0.2-0.4-0.2-0.8-0.6-0.3-0.4-0.5-0.9-0.2-0.5-0.1-1 0.1-0.5 0.3-1 0.3-0.5 0.6-0.9 0.5-0.3 1-0.6 0.5-0.2 1-0.2 0.5 0 1 0.2 0.5 0.2 0.8 0.6 0.4 0.4 0.5 0.9 0.2 0.5 0.1 1 0 0.5-0.3 1-0.2 0.5-0.6 0.9-0.4 0.3-0.9 0.5-0.5 0.2-1.1 0.3z"/><path class="l" d="m201.6 205.1h-19.9q-0.2 0-0.5-0.1-0.2-0.2-0.4-0.3-0.2-0.2-0.3-0.5 0-0.2 0-0.5 0-0.3 0.1-0.5 0.2-0.3 0.4-0.5 0.2-0.1 0.4-0.3 0.3-0.1 0.6-0.1h19.9q0.2 0 0.5 0.1 0.2 0.1 0.4 0.3 0.2 0.2 0.2 0.5 0.1 0.2 0.1 0.5 0 0.3-0.2 0.5-0.1 0.3-0.3 0.5-0.2 0.1-0.4 0.2-0.3 0.1-0.6 0.2z"/><path class="l" d="m196.2 210.4h-14.9q-0.3 0-0.6-0.1-0.2-0.1-0.4-0.3-0.2-0.2-0.3-0.5 0-0.2 0-0.5 0-0.3 0.1-0.5 0.2-0.3 0.4-0.5 0.2-0.1 0.4-0.3 0.3-0.1 0.6-0.1h14.9q0.2 0 0.5 0.1 0.2 0.1 0.4 0.3 0.2 0.2 0.2 0.5 0.1 0.2 0.1 0.5 0 0.3-0.1 0.5-0.2 0.3-0.4 0.5-0.2 0.2-0.4 0.3-0.3 0.1-0.5 0.1z"/><path class="n" d="m201.6 205.1h-19.9q-0.2 0-0.5-0.1-0.2-0.2-0.4-0.3-0.2-0.2-0.3-0.5 0-0.2 0-0.5 0-0.3 0.1-0.5 0.2-0.3 0.4-0.5 0.2-0.1 0.4-0.3 0.3-0.1 0.6-0.1h19.9q0.2 0 0.5 0.1 0.2 0.1 0.4 0.3 0.2 0.2 0.2 0.5 0.1 0.2 0.1 0.5 0 0.3-0.2 0.5-0.1 0.3-0.3 0.5-0.2 0.1-0.4 0.2-0.3 0.1-0.6 0.2z"/><path class="n" d="m196.2 210.4h-14.9q-0.3 0-0.6-0.1-0.2-0.1-0.4-0.3-0.2-0.2-0.3-0.5 0-0.2 0-0.5 0-0.3 0.1-0.5 0.2-0.3 0.4-0.5 0.2-0.1 0.4-0.3 0.3-0.1 0.6-0.1h14.9q0.2 0 0.5 0.1 0.2 0.1 0.4 0.3 0.2 0.2 0.2 0.5 0.1 0.2 0.1 0.5 0 0.3-0.1 0.5-0.2 0.3-0.4 0.5-0.2 0.2-0.4 0.3-0.3 0.1-0.5 0.1z"/><path class="g" d="m213.7 206.4q-0.5 0-1-0.2-0.5-0.2-0.8-0.6-0.4-0.4-0.6-0.9-0.1-0.5-0.1-1 0.1-0.5 0.3-1 0.3-0.5 0.7-0.9 0.4-0.3 0.9-0.6 0.5-0.2 1-0.2 0.6 0 1 0.2 0.5 0.2 0.9 0.6 0.3 0.4 0.5 0.9 0.1 0.5 0.1 1-0.1 0.5-0.3 1-0.3 0.5-0.7 0.9-0.4 0.3-0.9 0.5-0.5 0.2-1 0.3z"/><path class="l" d="m241 205.1h-19.9q-0.3 0-0.5-0.1-0.3-0.2-0.5-0.3-0.1-0.2-0.2-0.5-0.1-0.2-0.1-0.5 0.1-0.3 0.2-0.5 0.1-0.3 0.3-0.5 0.2-0.1 0.5-0.3 0.2-0.1 0.5-0.1h19.9q0.3 0 0.5 0.1 0.2 0.1 0.4 0.3 0.2 0.2 0.3 0.5 0.1 0.2 0 0.5 0 0.3-0.1 0.5-0.1 0.3-0.3 0.4-0.2 0.2-0.5 0.3-0.2 0.1-0.5 0.2z"/><path class="l" d="m235.5 210.4h-14.9q-0.3 0-0.5-0.1-0.3-0.1-0.4-0.3-0.2-0.2-0.3-0.5-0.1-0.2 0-0.5 0-0.2 0.1-0.5 0.1-0.2 0.3-0.4 0.2-0.2 0.5-0.3 0.3-0.1 0.5-0.1h14.9q0.3 0 0.5 0.1 0.3 0.1 0.5 0.2 0.1 0.2 0.2 0.5 0.1 0.2 0.1 0.5 0 0.3-0.1 0.5-0.2 0.3-0.4 0.5-0.2 0.2-0.5 0.3-0.2 0.1-0.5 0.1z"/><path class="n" d="m241 205.1h-19.9q-0.3 0-0.5-0.1-0.3-0.2-0.5-0.3-0.1-0.2-0.2-0.5-0.1-0.2-0.1-0.5 0.1-0.3 0.2-0.5 0.1-0.3 0.3-0.5 0.2-0.1 0.5-0.3 0.2-0.1 0.5-0.1h19.9q0.3 0 0.5 0.1 0.2 0.1 0.4 0.3 0.2 0.2 0.3 0.5 0.1 0.2 0 0.5 0 0.3-0.1 0.5-0.1 0.3-0.3 0.4-0.2 0.2-0.5 0.3-0.2 0.1-0.5 0.2z"/><path class="n" d="m235.5 210.4h-14.9q-0.3 0-0.5-0.1-0.3-0.1-0.4-0.3-0.2-0.2-0.3-0.5-0.1-0.2 0-0.5 0-0.2 0.1-0.5 0.1-0.2 0.3-0.4 0.2-0.2 0.5-0.3 0.3-0.1 0.5-0.1h14.9q0.3 0 0.5 0.1 0.3 0.1 0.5 0.2 0.1 0.2 0.2 0.5 0.1 0.2 0.1 0.5 0 0.3-0.1 0.5-0.2 0.3-0.4 0.5-0.2 0.2-0.5 0.3-0.2 0.1-0.5 0.1z"/><path class="g" d="m346.8 128.3h-62.2q-1.2 0-2.3-0.4-1.2-0.5-2-1.4-0.8-1-1.2-2.1-0.4-1.2-0.3-2.4l3.3-37.8q0.2-1.3 0.7-2.4 0.6-1.2 1.6-2.1 0.9-0.8 2.1-1.3 1.2-0.5 2.6-0.5h62.1q1.2-0.1 2.3 0.4 1.2 0.5 2 1.4 0.9 0.9 1.2 2.1 0.4 1.2 0.3 2.4l-3.3 37.8q-0.2 1.3-0.7 2.4-0.6 1.2-1.6 2.1-0.9 0.8-2.1 1.3-1.2 0.5-2.5 0.5z"/><path class="g" d="m311.5 100.7c-0.2 1.5-0.6 3-1.3 4.4-0.7 1.4-1.6 2.6-2.8 3.7-1.1 1-2.4 1.9-3.9 2.4-1.4 0.6-2.9 0.9-4.5 1-1.5 0-2.9-0.3-4.3-0.9-1.3-0.6-2.6-1.4-3.5-2.5-1-1.1-1.8-2.4-2.2-3.8-0.5-1.4-0.7-2.9-0.5-4.3 0.2-1.6 0.6-3.1 1.3-4.5 0.7-1.4 1.6-2.6 2.8-3.7 1.1-1 2.4-1.8 3.9-2.4 1.4-0.6 2.9-0.9 4.5-0.9 1.5-0.1 2.9 0.2 4.3 0.8 1.3 0.6 2.6 1.5 3.5 2.5 1 1.1 1.8 2.4 2.2 3.8 0.5 1.4 0.7 2.9 0.5 4.4z"/><path class="m" d="m311.5 100.7c-0.2 1.5-0.6 3-1.3 4.4-0.7 1.4-1.6 2.6-2.8 3.7-1.1 1-2.4 1.9-3.9 2.4-1.4 0.6-2.9 0.9-4.5 1-1.5 0-2.9-0.3-4.3-0.9-1.3-0.6-2.6-1.4-3.5-2.5-1-1.1-1.8-2.4-2.2-3.8-0.5-1.4-0.7-2.9-0.5-4.3 0.2-1.6 0.6-3.1 1.3-4.5 0.7-1.4 1.6-2.6 2.8-3.7 1.1-1 2.4-1.8 3.9-2.4 1.4-0.6 2.9-0.9 4.5-0.9 1.5-0.1 2.9 0.2 4.3 0.8 1.3 0.6 2.6 1.5 3.5 2.5 1 1.1 1.8 2.4 2.2 3.8 0.5 1.4 0.7 2.9 0.5 4.4z"/><path class="l" d="m303.5 98.6c-0.3 2.6-1.2 4.6-3.7 4.6-2.5 0-3.2-2-2.9-4.6 0.2-2.5 1.2-4.5 3.7-4.5 2.5 0 3.1 2 2.9 4.5z"/><path class="l" d="m299.6 104.6c-5.2 0-8.1 1.2-9.4 2.9q0.7 1.1 1.6 2 1 0.9 2.2 1.5 1.1 0.6 2.4 0.9 1.3 0.3 2.6 0.3 1.4 0 2.7-0.4 1.4-0.3 2.6-0.9 1.3-0.6 2.4-1.5 1-0.8 1.9-1.9c-1-1.7-3.7-2.9-9-2.9z"/><path class="h" d="m338.6 87.8h-18.7q-0.3 0-0.6-0.1-0.3-0.1-0.5-0.3-0.2-0.3-0.3-0.6-0.1-0.2 0-0.5 0-0.4 0.1-0.7 0.2-0.2 0.4-0.5 0.3-0.2 0.6-0.3 0.3-0.1 0.6-0.1h18.7q0.3 0 0.5 0.1 0.3 0.1 0.5 0.3 0.2 0.3 0.3 0.6 0.1 0.2 0.1 0.5v0.1q0 0.3-0.2 0.6-0.1 0.2-0.4 0.5-0.2 0.2-0.5 0.3-0.3 0.1-0.6 0.1z"/><path class="h" d="m343.6 99.5h-24.7q-0.3 0-0.6-0.1-0.3-0.1-0.5-0.4-0.2-0.2-0.3-0.5-0.1-0.3-0.1-0.6 0.1-0.3 0.2-0.6 0.2-0.3 0.4-0.5 0.2-0.2 0.5-0.3 0.3-0.2 0.7-0.2h24.6q0.3 0 0.6 0.1 0.3 0.2 0.5 0.4 0.2 0.2 0.3 0.5 0.1 0.3 0.1 0.6-0.1 0.3-0.2 0.6-0.1 0.3-0.4 0.5-0.2 0.3-0.5 0.4-0.3 0.1-0.6 0.1z"/><path class="h" d="m348.1 105.3h-29.7q-0.3 0-0.6-0.1-0.3-0.1-0.5-0.3-0.2-0.3-0.3-0.6-0.1-0.2-0.1-0.5 0.1-0.4 0.2-0.7 0.2-0.2 0.4-0.5 0.2-0.2 0.5-0.3 0.3-0.1 0.7-0.1h29.6q0.3 0 0.6 0.1 0.3 0.1 0.5 0.3 0.2 0.3 0.3 0.6 0.1 0.2 0.1 0.5v0.1q-0.1 0.3-0.2 0.6-0.2 0.2-0.4 0.5-0.2 0.2-0.5 0.3-0.3 0.1-0.7 0.1z"/><path class="h" d="m345.5 111.2h-27.6q-0.3 0-0.6-0.1-0.3-0.2-0.5-0.4-0.2-0.2-0.3-0.5-0.1-0.3-0.1-0.6 0.1-0.3 0.2-0.6 0.2-0.3 0.4-0.5 0.2-0.3 0.5-0.4 0.3-0.1 0.7-0.1h27.6q0.3 0 0.6 0.1 0.3 0.1 0.5 0.4 0.2 0.2 0.3 0.5 0.1 0.3 0.1 0.6-0.1 0.3-0.2 0.6-0.2 0.3-0.4 0.5-0.2 0.2-0.5 0.3-0.3 0.2-0.7 0.2z"/><path class="h" d="m342 117h-24.6q-0.3 0-0.6-0.1-0.3-0.1-0.5-0.4-0.2-0.2-0.3-0.5-0.1-0.3-0.1-0.6 0.1-0.3 0.2-0.6 0.1-0.3 0.4-0.5 0.2-0.2 0.5-0.3 0.3-0.2 0.6-0.2h24.7q0.3 0 0.6 0.1 0.3 0.2 0.5 0.4 0.2 0.2 0.3 0.5 0.1 0.3 0.1 0.6-0.1 0.3-0.2 0.6-0.2 0.3-0.4 0.5-0.3 0.3-0.6 0.4-0.3 0.1-0.6 0.1z"/><path class="h" d="m344.5 122.8h-27.6q-0.4 0-0.6-0.1-0.3-0.1-0.5-0.3-0.2-0.3-0.3-0.6-0.1-0.2-0.1-0.5 0-0.4 0.2-0.7 0.1-0.2 0.4-0.5 0.2-0.2 0.5-0.3 0.3-0.1 0.6-0.1h27.7q0.3 0 0.6 0.1 0.3 0.1 0.5 0.3 0.2 0.3 0.3 0.6 0.1 0.2 0 0.5v0.1q0 0.3-0.1 0.6-0.2 0.2-0.4 0.5-0.3 0.2-0.6 0.3-0.3 0.1-0.6 0.1z"/><path class="g" d="m266 128.3h-106.8q-1.3 0-2.4-0.4-1.2-0.5-2-1.4-0.8-1-1.2-2.1-0.4-1.2-0.3-2.4l6-67.9q0.1-1.3 0.7-2.5 0.6-1.1 1.5-2 1-0.9 2.2-1.4 1.2-0.5 2.5-0.5h106.8q1.2 0 2.4 0.5 1.1 0.5 1.9 1.4 0.9 0.9 1.3 2.1 0.3 1.1 0.2 2.4l-5.9 67.9q-0.1 1.3-0.7 2.4-0.6 1.2-1.5 2.1-1 0.8-2.2 1.3-1.2 0.5-2.5 0.5z"/><path class="m" d="m266 128.3h-106.8q-1.3 0-2.4-0.4-1.2-0.5-2-1.4-0.8-1-1.2-2.1-0.4-1.2-0.3-2.4l6-67.9q0.1-1.3 0.7-2.5 0.6-1.1 1.5-2 1-0.9 2.2-1.4 1.2-0.5 2.5-0.5h106.8q1.2 0 2.4 0.5 1.1 0.5 1.9 1.4 0.9 0.9 1.3 2.1 0.3 1.1 0.2 2.4l-5.9 67.9q-0.1 1.3-0.7 2.4-0.6 1.2-1.5 2.1-1 0.8-2.2 1.3-1.2 0.5-2.5 0.5z"/><path class="g" d="m276.6 79.7c-2.1-7.5-5.3-14.9-10.1-14.9-9 0-13.4 14.1-18 29-4.1 13.1-8.3 26.6-14.9 26.6-8.3 0-10.6-16.7-12.8-32.9-2.5-18.2-4.8-35.3-15.6-35.3-10.8 0-16.1 17.1-21.8 35.3-5 16.2-10.2 32.9-18.6 32.9-3.9 0-7.5-11.5-9.4-21.8l-0.9 10c2.1 7.4 5.3 14.8 10.1 14.8 10.7 0 16.1-17.2 21.7-35.3 5-16.2 10.3-33 18.6-33 8.4 0 10.7 16.8 12.9 33 2.5 18.2 4.8 35.3 15.6 35.3 9 0 13.3-14 18-29 4-13.1 8.3-26.6 14.9-26.6 3.9 0 7.5 11.7 9.4 22z"/><path fill-rule="evenodd" class="l" d="m208.5 56.1c-1.8 1.8-4.6 1.8-6.2 0.2-1.6-1.7-1.4-4.4 0.4-6.1 1.8-1.8 4.6-1.8 6.2-0.2 1.5 1.7 1.4 4.4-0.4 6.1z"/><path fill-rule="evenodd" class="g" d="m207 54.6c-0.9 0.9-2.3 0.9-3 0.1-0.8-0.9-0.7-2.2 0.2-3.1 0.8-0.8 2.2-0.9 3 0 0.8 0.8 0.7 2.1-0.2 3z"/><path class="g" d="m214.7 34.8h-15q-0.6 0.1-1.2 0.3-0.5 0.2-0.9 0.6-0.5 0.4-0.7 0.9-0.3 0.5-0.4 1.1l-0.2 2.8q-0.1 0.5 0.1 1.1 0.2 0.5 0.6 0.9 0.3 0.4 0.9 0.6 0.5 0.3 1 0.2h5l1.5 2.3q0.2 0.2 0.4 0.3 0.2 0.1 0.5 0.1 0.2 0 0.4-0.1 0.3-0.1 0.4-0.3l1.9-2.3h5q0.6 0 1.1-0.2 0.6-0.2 1-0.6 0.4-0.4 0.7-0.9 0.3-0.5 0.3-1.1l0.3-2.8q0-0.5-0.1-1.1-0.2-0.5-0.6-0.9-0.4-0.4-0.9-0.7-0.6-0.2-1.1-0.2z"/><path class="l" d="m213.5 38.5h-13.6q-0.2 0-0.3-0.1-0.1 0-0.2-0.1-0.1-0.2-0.2-0.3 0-0.1 0-0.3 0-0.1 0.1-0.3 0.1-0.1 0.2-0.2 0.1-0.1 0.2-0.1 0.2-0.1 0.3-0.1h13.6q0.2 0 0.3 0.1 0.1 0 0.2 0.1 0.1 0.1 0.2 0.3 0 0.1 0 0.3 0 0.1-0.1 0.2-0.1 0.2-0.2 0.3-0.1 0.1-0.2 0.1-0.1 0.1-0.3 0.1z"/><path class="l" d="m205.9 41.2h-6.3q-0.1 0-0.2-0.1-0.2 0-0.3-0.1-0.1-0.1-0.1-0.3-0.1-0.1 0-0.3 0-0.1 0-0.3 0.1-0.1 0.2-0.2 0.1-0.1 0.3-0.2 0.1 0 0.3 0h6.2q0.1 0 0.3 0 0.1 0.1 0.2 0.2 0.1 0.1 0.2 0.3 0 0.1 0 0.2 0 0.2-0.1 0.3-0.1 0.2-0.2 0.3-0.1 0.1-0.2 0.1-0.2 0.1-0.3 0.1z"/><path fill-rule="evenodd" class="l" d="m235.8 123c-1.8 1.7-4.5 1.8-6.1 0.1-1.6-1.6-1.4-4.4 0.4-6.1 1.8-1.7 4.5-1.8 6.1-0.1 1.6 1.6 1.4 4.4-0.4 6.1z"/><path class="g" d="m235.1 120q0 0.4-0.2 0.8-0.2 0.4-0.5 0.7-0.4 0.3-0.8 0.5-0.4 0.1-0.8 0.2-0.4 0-0.8-0.2-0.4-0.2-0.7-0.5-0.3-0.3-0.4-0.7-0.2-0.4-0.1-0.8 0-0.4 0.2-0.8 0.2-0.4 0.5-0.7 0.4-0.3 0.8-0.5 0.4-0.1 0.8-0.2 0.4 0 0.8 0.2 0.4 0.2 0.7 0.5 0.3 0.3 0.4 0.7 0.2 0.4 0.1 0.8z"/><path class="l" d="m242.1 101.7h-15q-0.6 0-1.2 0.2-0.5 0.2-1 0.6-0.4 0.4-0.6 1-0.3 0.5-0.4 1.1l-0.2 2.7q-0.1 0.6 0.1 1.1 0.2 0.5 0.6 0.9 0.3 0.5 0.8 0.7 0.6 0.2 1.1 0.2h5l1.5 2.2q0.1 0.2 0.3 0.3 0.3 0.2 0.5 0.2 0.3 0 0.5-0.2 0.2-0.1 0.4-0.3l1.8-2.2h5q0.6 0 1.1-0.2 0.6-0.3 1-0.7 0.5-0.4 0.7-0.9 0.3-0.5 0.3-1.1l0.3-2.7q0-0.6-0.1-1.1-0.2-0.5-0.6-1-0.4-0.4-0.9-0.6-0.5-0.2-1-0.2z"/><path class="h" d="m240.9 105.3h-13.6q-0.2 0-0.3 0-0.2-0.1-0.3-0.2 0-0.1-0.1-0.3 0-0.1 0-0.2 0-0.2 0.1-0.3 0-0.2 0.1-0.3 0.2-0.1 0.3-0.1 0.1-0.1 0.3-0.1h13.6q0.1 0 0.3 0.1 0.1 0 0.2 0.1 0.1 0.1 0.1 0.3 0.1 0.1 0.1 0.3 0 0.1-0.1 0.2-0.1 0.2-0.2 0.3-0.1 0.1-0.2 0.1-0.2 0.1-0.3 0.1z"/><path class="h" d="m233.3 108h-6.3q-0.1 0-0.3-0.1-0.1 0-0.2-0.1-0.1-0.1-0.2-0.3 0-0.1 0-0.3 0-0.1 0.1-0.2 0.1-0.2 0.2-0.3 0.1-0.1 0.2-0.1 0.2-0.1 0.3-0.1h6.3q0.1 0 0.3 0.1 0.1 0 0.2 0.1 0.1 0.1 0.1 0.3 0.1 0.1 0.1 0.3-0.1 0.1-0.1 0.2-0.1 0.2-0.2 0.3-0.1 0.1-0.2 0.1-0.2 0.1-0.3 0.1z"/><path class="l" d="m270.8 66q-0.1 0.9-0.5 1.7-0.4 0.8-1.1 1.4-0.6 0.6-1.4 0.9-0.9 0.3-1.7 0.3-0.9 0-1.7-0.3-0.7-0.3-1.3-0.9-0.6-0.7-0.8-1.5-0.3-0.8-0.2-1.6 0.1-0.9 0.5-1.7 0.4-0.8 1-1.3 0.7-0.6 1.5-1 0.8-0.3 1.7-0.3 0.8 0 1.6 0.3 0.8 0.3 1.4 0.9 0.5 0.7 0.8 1.5 0.2 0.8 0.2 1.6z"/><path class="g" d="m268.6 66q-0.1 0.4-0.3 0.8-0.2 0.4-0.5 0.7-0.3 0.3-0.7 0.5-0.4 0.1-0.9 0.2-0.4 0-0.8-0.2-0.4-0.2-0.6-0.5-0.3-0.3-0.5-0.7-0.1-0.4-0.1-0.8 0.1-0.4 0.3-0.8 0.2-0.4 0.5-0.7 0.3-0.3 0.7-0.5 0.4-0.1 0.9-0.1 0.4-0.1 0.8 0.1 0.4 0.2 0.7 0.5 0.3 0.3 0.4 0.7 0.1 0.4 0.1 0.8z"/><path class="g" d="m275.5 47.7h-15q-0.6 0-1.1 0.2-0.6 0.3-1 0.7-0.4 0.4-0.7 0.9-0.2 0.5-0.3 1.1l-0.3 2.7q0 0.6 0.2 1.1 0.1 0.5 0.5 1 0.4 0.4 0.9 0.6 0.5 0.2 1.1 0.2h5l1.5 2.3q0.1 0.2 0.3 0.3 0.3 0.1 0.5 0.1 0.3 0 0.5-0.1 0.2-0.1 0.4-0.3l1.8-2.3h5q0.6 0 1.1-0.2 0.6-0.2 1-0.6 0.4-0.4 0.7-1 0.3-0.5 0.3-1.1l0.3-2.7q0-0.6-0.1-1.1-0.2-0.5-0.6-1-0.4-0.4-0.9-0.6-0.5-0.2-1.1-0.2z"/><path class="l" d="m274.4 51.3h-13.7q-0.1 0-0.2 0-0.2-0.1-0.3-0.2-0.1-0.1-0.1-0.2-0.1-0.2-0.1-0.3h0.1q0-0.2 0-0.3 0.1-0.1 0.2-0.2 0.1-0.2 0.3-0.2 0.1-0.1 0.3-0.1h13.6q0.1 0 0.3 0.1 0.1 0 0.2 0.2 0.1 0.1 0.1 0.2 0.1 0.1 0.1 0.3 0 0.1-0.1 0.3-0.1 0.1-0.2 0.2-0.1 0.1-0.2 0.2-0.2 0-0.3 0z"/><path class="l" d="m266.7 54h-6.2q-0.2 0.1-0.3 0-0.1-0.1-0.2-0.2-0.1-0.1-0.2-0.2 0-0.2 0-0.3 0-0.2 0.1-0.3 0.1-0.1 0.2-0.2 0.1-0.1 0.2-0.2 0.2 0 0.3-0.1h6.3q0.1 0 0.2 0.1 0.2 0.1 0.3 0.2 0.1 0.1 0.1 0.2 0.1 0.2 0.1 0.3-0.1 0.2-0.1 0.3-0.1 0.1-0.2 0.2-0.1 0.1-0.3 0.2-0.1 0-0.3 0z"/><path class="l" d="m170.2 120.5q-0.1 0.9-0.4 1.6-0.4 0.8-1.1 1.4-0.6 0.6-1.5 1-0.8 0.3-1.7 0.3-0.8 0-1.6-0.3-0.7-0.4-1.3-1-0.6-0.6-0.8-1.4-0.3-0.8-0.2-1.6 0.1-0.9 0.5-1.7 0.4-0.8 1-1.4 0.7-0.6 1.5-0.9 0.8-0.3 1.7-0.3 0.8-0.1 1.6 0.3 0.8 0.3 1.3 0.9 0.6 0.6 0.9 1.4 0.2 0.8 0.1 1.7z"/><path class="g" d="m168.1 120.5q-0.1 0.4-0.3 0.8-0.2 0.4-0.5 0.7-0.3 0.3-0.7 0.5-0.4 0.1-0.9 0.1-0.4 0-0.8-0.1-0.4-0.2-0.7-0.5-0.2-0.3-0.4-0.7-0.1-0.4-0.1-0.8 0.1-0.5 0.3-0.8 0.2-0.4 0.5-0.7 0.3-0.3 0.7-0.5 0.4-0.2 0.9-0.2 0.4 0 0.8 0.2 0.4 0.1 0.7 0.4 0.2 0.4 0.4 0.8 0.1 0.4 0.1 0.8z"/><path class="l" d="m175 102.2h-15q-0.6 0-1.1 0.2-0.6 0.2-1 0.6-0.4 0.4-0.7 0.9-0.3 0.6-0.3 1.2l-0.3 2.7q0 0.6 0.1 1.1 0.2 0.5 0.6 0.9 0.4 0.4 0.9 0.7 0.5 0.2 1.1 0.2h5l1.5 2.2q0.1 0.2 0.3 0.3 0.2 0.2 0.5 0.2 0.3 0 0.5-0.2 0.2-0.1 0.4-0.3l1.8-2.2h5q0.6 0 1.2-0.3 0.5-0.2 1-0.6 0.4-0.4 0.7-0.9 0.2-0.5 0.3-1.1l0.2-2.7q0.1-0.6-0.1-1.2-0.2-0.5-0.6-0.9-0.4-0.4-0.9-0.6-0.5-0.2-1.1-0.2z"/><path class="h" d="m173.8 105.8h-13.6q-0.1 0-0.3 0-0.1-0.1-0.2-0.2-0.1-0.1-0.1-0.3-0.1-0.1-0.1-0.2 0-0.2 0.1-0.3 0.1-0.2 0.2-0.3 0.1-0.1 0.3-0.1 0.1-0.1 0.2-0.1h13.7q0.1 0 0.3 0.1 0.1 0 0.2 0.1 0.1 0.1 0.2 0.3 0 0.1 0 0.3 0 0.1-0.1 0.3-0.1 0.1-0.2 0.2-0.1 0.1-0.3 0.2-0.1 0-0.3 0z"/><path class="h" d="m166.2 108.5h-6.2q-0.1 0-0.3 0-0.1-0.1-0.2-0.2-0.1-0.1-0.1-0.2-0.1-0.2-0.1-0.3 0-0.2 0.1-0.3 0.1-0.2 0.2-0.3 0.1-0.1 0.2-0.1 0.2-0.1 0.3-0.1h6.3q0.1 0 0.2 0.1 0.2 0 0.3 0.1 0.1 0.1 0.1 0.3 0.1 0.1 0.1 0.3-0.1 0.1-0.1 0.3-0.1 0.1-0.2 0.2-0.1 0.1-0.3 0.2-0.1 0-0.3 0z"/><path class="o" d="m97.4 103.5l-2.8 5-2.9 5.1c-1.8 3.4-3.6 6.9-5.2 10.4q-1.3 2.6-2.3 5.2l-0.1 0.3q0 0 0 0 0 0 0 0 0 0 0 0.1 0 0 0 0-0.1 0-0.1 0 0 0 0 0 0 0.1 0 0.1 0 0 0 0 0 0-0.1 0.1 0 0 0 0 0 0.1 0 0.1 0 0.1-0.1 0.1 0 0.1 0 0.3 0 0.1 0 0.3 0 0.1 0.1 0.2 0 0.2 0.1 0.3 0.2 0.5 0.4 1 0.3 0.5 0.6 1 0.3 0.4 0.6 0.8 0.4 0.5 0.8 0.9 0.4 0.5 0.9 0.9 0.5 0.5 1 1 0.5 0.4 1 0.9 0.5 0.4 1 0.9l-2.4 5q-0.4-0.1-0.8-0.3-0.4-0.1-0.8-0.2-0.4-0.2-0.8-0.3-0.4-0.2-0.8-0.4-0.4-0.1-0.8-0.3-0.4-0.2-0.8-0.4-0.3-0.2-0.7-0.4-0.4-0.2-0.8-0.4-0.8-0.5-1.6-1.1-0.8-0.6-1.5-1.2-0.7-0.7-1.3-1.4-0.6-0.8-1.2-1.6-0.3-0.5-0.6-1-0.3-0.6-0.5-1.1-0.3-0.6-0.4-1.2-0.2-0.6-0.3-1.2 0-0.3-0.1-0.7 0-0.3 0-0.7 0-0.3 0-0.6 0.1-0.4 0.1-0.7 0-0.2 0-0.4 0.1-0.1 0.1-0.3 0-0.2 0.1-0.3 0-0.2 0-0.3l0.2-0.7 0.1-0.4c0.7-2 1.3-4.1 2.1-6q0.6-1.4 1.2-2.9 0.6-1.4 1.2-2.9 0.7-1.4 1.3-2.8 0.7-1.4 1.4-2.8 1.4-2.8 2.9-5.5c1-1.8 2-3.5 3.2-5.4z"/><path class="o" d="m87.7 137.9l5.3-1.3 0.3 8.5c0 0-4.1 0.6-6.6-2z"/><path fill-rule="evenodd" class="o" d="m100.4 135.1l-1.2 7.5-5.9 2.5-0.3-8.5 7.4-1.5z"/><path class="l" d="m122.2 63.5c0.1 0.6 0.5 1 0.9 0.9 0.3-0.1 0.6-0.6 0.4-1.2-0.1-0.6-0.5-1-0.9-0.9-0.4 0.1-0.6 0.6-0.4 1.2z"/><path class="p" d="m122.6 64.5q0.4 0.6 0.9 1.2 0.4 0.6 0.9 1.1 0.4 0.6 1 1.1 0.5 0.5 1 1-0.2 0.3-0.6 0.5-0.3 0.2-0.6 0.3-0.4 0.2-0.7 0.2-0.4 0.1-0.8 0.1z"/><path class="l" d="m119.4 60.7q-0.1 0-0.1 0 0 0 0 0-0.1 0-0.1-0.1 0 0-0.1 0 0 0 0-0.1-0.1-0.1-0.1-0.1 0-0.1 0.1-0.2 0 0 0-0.1 0.3-0.3 0.7-0.5 0.3-0.3 0.7-0.4 0.4-0.2 0.8-0.2 0.4-0.1 0.8 0 0.2 0 0.3 0.1 0 0.1 0 0.3 0 0.1-0.1 0.2-0.1 0.1-0.3 0-0.3 0-0.6 0.1-0.4 0-0.7 0.1-0.3 0.2-0.5 0.4-0.3 0.1-0.5 0.4 0 0-0.1 0 0 0.1-0.1 0.1 0 0 0 0-0.1 0-0.1 0z"/><path class="o" d="m105.6 71.7c1 5.3 2.1 15.2-1.6 18.8 0 0 1.4 5.4 11.4 5.4 11 0 5.3-5.4 5.3-5.4-6-1.5-5.9-5.9-4.8-10.1z"/><path class="l" d="m101.8 91.5c-0.8-1.5-1.7-3.2 0.1-3.8 2-0.6 15-1.6 18.8-0.5-1.2 2 0.8 4.6 0.8 4.6z"/><path class="g" d="m69.3 342q0.2 0.1 0.4 0.1 0.2 0 0.5 0 0.2 0 0.4 0 0.3-0.1 0.5-0.2 0.1-0.1 0.1-0.2 0.1-0.1 0.1-0.2 0-0.1 0-0.2 0-0.1 0-0.2-0.1-0.1-0.1-0.2 0 0-0.1-0.1-0.1-0.1-0.1-0.1-0.1-0.1-0.2-0.1c-1-0.5-3.3 0.4-3.4 0.5q0 0 0 0 0 0 0 0 0 0.1-0.1 0.1 0 0 0 0 0 0.1 0 0.1 0 0 0.1 0 0 0 0 0.1 0 0 0 0 0.2 0.1 0.5 0.2 0.2 0.1 0.4 0.1 0.3 0.1 0.5 0.2 0.2 0 0.5 0.1zm1.2-1.2l0.2 0.1q0 0 0.1 0 0 0.1 0 0.1 0.1 0 0.1 0.1 0 0 0 0.1c0.1 0.3 0 0.4 0 0.4-0.4 0.4-1.9 0-2.9-0.4q0.3-0.1 0.6-0.2 0.3 0 0.6-0.1 0.3 0 0.6-0.1 0.3 0 0.7 0z"/><path class="g" d="m67.5 341.4h0.1c0.8-0.2 2.6-1.5 2.6-2.3q0-0.1 0-0.2-0.1-0.1-0.1-0.2-0.1-0.1-0.2-0.1-0.1-0.1-0.2-0.1-0.1 0-0.2 0-0.1 0-0.2 0-0.1 0-0.1 0-0.1 0-0.2 0.1c-1 0.5-1.6 2.5-1.7 2.6q0 0 0 0 0 0.1 0 0.1 0 0 0 0 0 0.1 0 0.1 0.1 0 0.1 0 0 0 0 0 0 0 0 0 0.1 0 0.1 0zm2-2.6h0.1c0.2 0.1 0.2 0.2 0.2 0.2 0 0.5-1.2 1.5-2 1.9q0.1-0.3 0.3-0.6 0.1-0.2 0.3-0.5 0.1-0.3 0.3-0.5 0.2-0.2 0.5-0.4 0-0.1 0.1-0.1 0 0 0.1 0 0 0 0.1 0 0 0 0 0z"/><path class="g" d="m123.5 343.3c0.9-0.1 1.8-0.2 2.2-0.6q0-0.1 0.1-0.2 0-0.1 0-0.2 0-0.1 0-0.2-0.1-0.1-0.1-0.2-0.1 0-0.1-0.1-0.1-0.1-0.2-0.1 0-0.1-0.1-0.1-0.1-0.1-0.2-0.1c-1.2-0.3-3.8 1.2-3.9 1.2q0 0 0 0.1 0 0-0.1 0 0 0 0 0 0 0.1 0 0.1 0 0 0 0 0.1 0.1 0.1 0.1 0 0 0 0 0 0 0.1 0 0.2 0.1 0.5 0.1 0.3 0.1 0.6 0.1 0.3 0 0.5 0 0.3 0 0.6 0zm1.2-1.4q0 0 0.1 0 0 0 0 0 0.1 0 0.1 0 0.1 0 0.1 0 0.1 0 0.1 0.1 0.1 0 0.1 0 0 0 0.1 0.1 0 0 0 0.1c0.2 0.2 0.1 0.3 0 0.3-0.3 0.5-2.2 0.5-3.5 0.3q0.3-0.1 0.7-0.3 0.3-0.1 0.7-0.3 0.3-0.1 0.7-0.2 0.4 0 0.8-0.1z"/><path class="g" d="m121.3 343.1v-0.1c0.9-0.3 2.7-2 2.6-2.8 0-0.2-0.2-0.4-0.7-0.5q-0.1 0-0.3 0-0.1 0-0.2 0.1-0.2 0-0.3 0.1-0.1 0.1-0.2 0.1c-0.9 0.8-1.1 2.8-1.1 2.9q0 0 0 0 0 0 0 0.1 0 0 0 0 0 0 0 0 0.1 0 0.1 0 0 0 0 0.1 0 0 0 0 0.1 0 0.1-0.1zm1.8-3h0.1c0.3 0 0.3 0.2 0.3 0.2 0.1 0.5-1.1 1.8-2 2.3q0.1-0.3 0.1-0.6 0.1-0.3 0.2-0.6 0.2-0.3 0.3-0.5 0.2-0.3 0.4-0.5 0.1-0.1 0.1-0.1 0.1 0 0.2-0.1 0 0 0.1 0 0.1 0 0.2 0z"/><path fill-rule="evenodd" class="o" d="m113.2 342.9h7.4l0.7-17h-7.4l-0.7 17z"/><path fill-rule="evenodd" class="o" d="m59.3 339.5l7.2 1.5 7.2-15.8-7.2-1.6-7.2 15.9z"/><path class="l" d="m67.2 340.3l-8.1-1.7q-0.1-0.1-0.2-0.1-0.1 0.1-0.2 0.1-0.1 0.1-0.2 0.1-0.1 0.1-0.1 0.2l-2.8 6.1q-0.1 0.2-0.1 0.5 0 0.2 0.1 0.4 0.1 0.3 0.3 0.4 0.2 0.2 0.4 0.2c2.9 0.6 4.3 0.7 7.8 1.5 2.2 0.4 7.1 1.6 10.1 2.3 3 0.6 4.1-2.3 2.9-2.8-5.2-2.4-7.4-4.5-8.9-6.5q-0.1-0.1-0.2-0.2-0.1-0.2-0.2-0.2-0.2-0.1-0.3-0.2-0.2-0.1-0.3-0.1z"/><path class="l" d="m120.5 342h-8q-0.1 0-0.2 0-0.1 0.1-0.2 0.1-0.1 0.1-0.1 0.2-0.1 0.1-0.1 0.2l-1.5 6.5q0 0.3 0 0.5 0.1 0.3 0.2 0.4 0.2 0.2 0.4 0.3 0.2 0.1 0.5 0.1c2.9 0 7.1-0.2 10.7-0.2 4.2 0 7.9 0.2 12.9 0.2 3 0 3.9-3 2.6-3.3-5.7-1.2-10.4-1.4-15.4-4.4q-0.2-0.2-0.4-0.3-0.2-0.1-0.5-0.1-0.2-0.1-0.4-0.2-0.3 0-0.5 0z"/><path class="g" d="m90.8 92.1c-6.9 1.6-12.6 19.2-12.6 19.2l13.9 10.5q1.3-1.4 2.4-3 1.2-1.6 2.1-3.3 0.9-1.7 1.6-3.5 0.7-1.9 1.2-3.7c2.4-9.3-1.6-17.8-8.6-16.2z"/><path class="i" d="m96.7 105.1c-3.7 3.7-5 10.4-5.2 16.3l0.6 0.4q1.3-1.4 2.5-3 1.1-1.6 2-3.3 1-1.7 1.7-3.5 0.7-1.9 1.1-3.8 0.2-0.8 0.4-1.6z"/><path class="l" d="m132 92.5c0 0 5.6 5.5 3.5 34.9-0.6 7.7-3.5 17.2-5.1 28.6h-34.3c-0.3-6 0.5-35.4-5.3-63.9q1.6-0.3 3.3-0.5 1.6-0.3 3.3-0.5 1.6-0.2 3.3-0.4 1.6-0.1 3.3-0.2 2.1-0.2 4.2-0.2 2.1-0.1 4.2-0.1 2 0 4.1 0.1 2.1 0 4.2 0.2 1.4 0.1 2.9 0.3 1.4 0.2 2.8 0.5 1.4 0.2 2.8 0.5 1.4 0.3 2.8 0.7z"/><path class="q" d="m135.9 117.1c-0.6-4.3-1.3-8-2-11.2l-0.2-0.1-10.7 4.5c0.5 6.7 7.6 13.4 12.5 17.4q0-0.2 0-0.3c0.2-3.8 0.4-7.3 0.4-10.3z"/><path fill-rule="evenodd" class="i" d="m121.3 325.9l-0.4 8.7h-7.3l0.3-8.7h7.4z"/><path fill-rule="evenodd" class="i" d="m66.5 323.6l7.2 1.6-3.7 8.2-7.2-1.6 3.7-8.2z"/><path class="o" d="m102.5 66.2c1.9 7 2.7 11.3 7 14.2 6.6 4.4 14.7-0.7 15-8.1 0.2-6.8-2.9-17.1-10.5-18.6-1.6-0.3-3.4-0.2-5 0.4-1.6 0.5-3 1.4-4.2 2.7-1.2 1.2-2 2.7-2.4 4.4-0.4 1.6-0.3 3.4 0.1 5z"/><path class="l" d="m118.5 156c0 0-8.4 56.1-12.9 77.2-5 23-31.9 99.2-31.9 99.2l-13.2-2.8c0 0 18.8-62.1 23-94.3 1.9-14.4 2.1-38.8 4.6-56.7q0.4-3 1.1-5.9 0.7-3 1.7-5.8 1.1-2.8 2.4-5.6 1.2-2.7 2.8-5.3z"/><path class="g" d="m76.8 328l-2.4 4.8-14.8-3.2 1.2-4.5z"/><path class="q" d="m113.2 176c-9.6 1.9-8.6 37.8-7.5 56.3 2.8-13 6.9-38.2 9.7-56q-0.3-0.2-0.6-0.2-0.2-0.1-0.5-0.2-0.3 0-0.6 0-0.2 0-0.5 0.1z"/><path class="l" d="m130.4 156c0 0 3 54.9 2.2 77.3-0.8 23.3-9 99.6-9 99.6h-12.4c0 0-0.5-74.9-1-97.8-0.6-24.9-3.6-79.1-3.6-79.1z"/><path class="g" d="m126 328c0.1 0-0.7 5.2-0.7 5.2h-15.1l-0.4-4.6z"/><path class="o" d="m135.6 99.2c1.1 1.8 2.4 3.7 3.7 5.6 1.3 1.8 2.6 3.7 4 5.4q1 1.3 2 2.6 1 1.3 2.1 2.5 1.1 1.2 2.3 2.4 1.1 1.2 2.3 2.3 1.2 1.1 2.4 2l0.6 0.4q-0.1 0-0.1 0-0.1 0-0.1 0-0.1 0-0.1-0.1 0 0-0.1 0c-0.2 0-0.4 0-0.3 0q0.2 0 0.4 0 0.3 0 0.5 0 0.2-0.1 0.4-0.1 0.2-0.1 0.4-0.2 0.3-0.1 0.6-0.3 0.4-0.1 0.7-0.3 0.3-0.2 0.6-0.3 0.3-0.2 0.6-0.4 1.4-0.9 2.8-1.9 1.3-1 2.7-2 1.3-1 2.6-2.1 1.3-1.1 2.5-2.2l4.3 3.5q-1 1.6-2.1 3.2-1.1 1.5-2.3 3-1.2 1.5-2.5 2.8-1.3 1.4-2.7 2.7-0.4 0.4-0.8 0.7-0.5 0.3-0.9 0.6-0.4 0.4-0.9 0.7-0.4 0.3-0.9 0.5-0.5 0.4-1.2 0.7-0.6 0.3-1.2 0.5-0.6 0.3-1.3 0.4-0.6 0.2-1.3 0.3-0.8 0.1-1.5 0.1-0.8 0-1.5-0.2-0.7-0.2-1.4-0.4-0.7-0.3-1.4-0.7l-0.9-0.6q-1.7-1.1-3.2-2.3-1.5-1.2-2.9-2.5-1.4-1.3-2.8-2.6-1.3-1.4-2.6-2.8-1.3-1.4-2.5-2.9c-1.6-2-3.1-3.9-4.5-6-1.4-2-2.8-4-4.1-6.3z"/><path class="g" d="m121.2 103.6c-2.4 9.9 15.4 19.5 15.4 19.5l11.6-13.5q-1.3-2-2.7-3.8-1.4-1.9-2.9-3.7-1.4-1.8-3-3.5-1.6-1.7-3.2-3.3c-8.1-7.8-13.5 0.8-15.2 8.3z"/><path class="o" d="m167.9 114.5l2.7-8.8 7.2 3.6c0 0-1 6.4-6.3 7.5z"/><path fill-rule="evenodd" class="o" d="m173.5 103.3l6.5 1.8-2.2 4.2-7.2-3.6 2.9-2.4z"/><path class="l" d="m110 76.6q1.4-0.3 2.7-1 1.2-0.7 2.2-1.7 1-1.1 1.7-2.3 0.7-1.3 1-2.7c0.2-0.9-1.6-4.2 1.4-7.1 3-2.8 1.5-6-1.5-6.6-3-0.5-7.6 3-7.6 3l-3.6 6.6 1.5 6.6z"/><path class="n" d="m110 76.6q1.4-0.3 2.7-1 1.2-0.7 2.2-1.7 1-1.1 1.7-2.3 0.7-1.3 1-2.7c0.2-0.9-1.6-4.2 1.4-7.1 3-2.8 1.5-6-1.5-6.6-3-0.5-7.6 3-7.6 3l-3.6 6.6 1.5 6.6z"/><path class="o" d="m114.5 66.5q0.2 0.6 0.5 1.3 0.3 0.6 0.7 1.1 0.3 0.6 0.8 1.1 0.5 0.5 1 0.9c1.9 1.4 3.4 0 3.2-2.2-0.1-2-1.2-5-3.4-5.6-2.1-0.6-3.3 1.3-2.8 3.4z"/><path class="l" d="m111 74.6c-1.8-4.3-5.1-15.3 6.6-19.4 0 0-0.9-10.6 4.8-6.3 0 0-5.4-6.9-6.2 0.2 0 0-1.3-2.4 0.7-4 0 0-10.7-3.6-10.4 4.5q-0.3-0.6-0.3-1.3-0.1-0.7 0-1.3 0.1-0.7 0.4-1.3 0.2-0.6 0.6-1.1c0.3-0.4-2.3-0.2-3.2 3.5-0.9 3.7-10 2.9-9.2 11.2 0 0-8 10.1 11.2 18.7 0 0-2.5 1.5-1 4q0.1-0.6 0.5-1.2 0.3-0.6 0.7-1.2 0.5-0.5 1-0.9 0.6-0.4 1.2-0.7c0.4-0.2-1.3 2.8 1.4 3.7q-0.2-0.6-0.3-1.2 0-0.6 0.1-1.1 0.1-0.6 0.3-1.1 0.3-0.6 0.7-1 0.2-0.3 0.4-0.6 0.1-0.3 0.2-0.7 0-0.3 0-0.7-0.1-0.4-0.2-0.7z"/><path class="r" d="m117.9 79c-2.6 0.1-2.4 2.6-2.4 3q0.8-0.1 1.6-0.3 0.8-0.2 1.6-0.6 0.7-0.3 1.4-0.8 0.7-0.5 1.3-1c-1 0.1-1.9-0.4-3.5-0.3z"/><path class="l" d="m116.6 54.2c0 0 1.3-4.9 3.8-3.9 2.4 1 0.7 4.9 2 6.7q-0.5-0.2-0.9-0.5-0.3-0.3-0.6-0.7-0.3-0.4-0.5-0.8-0.2-0.5-0.3-0.9c-0.3-2.3-2.6 1.1-2.6 1.1z"/><path fill-rule="evenodd" class="g" d="m117.6 73.5l2.3-2.7-0.9-0.8h-2.9l-0.9 0.8 2.4 2.7z"/><path fill-rule="evenodd" class="s" d="m117.2 70h-1.1l-0.9 0.8 2.4 2.7-1.3-2.7 0.9-0.8z"/></svg>