<svg version="1.2" xmlns="http://www.w3.org/2000/svg" viewBox="0 0 500 500" width="500" height="500"><style>.a{fill:#e0e0e0}.b{fill:#fff}.c{fill:#f5f5f5}.d{fill:#fafafa}.e{fill:#ebebeb}.f{fill:#263238}.g{fill:#455a64}.h{fill:#c98069}.i{fill:#ffbe9d}.j{fill:#eb996e}</style><rect width="500" height="500" style="fill:#f4e8d3"/><path fill-rule="evenodd" class="a" d="m452.1 45.6v81h-116.3l-4.2-80.4 120.5-0.6z"/><path fill-rule="evenodd" class="b" d="m331.6 126.4v-80.2h116.3v80.2z"/><path class="a" d="m448.4 126.9h-117.3v-81.3h117.3zm-116.3-1.1h115.2v-79.1h-115.2z"/><path fill-rule="evenodd" class="b" d="m344.2 56.1h91.1v60.3h-91.1z"/><path class="a" d="m435.3 56.1h-0.5-1.3-5l-18.7 0.1-65.6 0.1 0.3-0.2c0 18.4 0 38.8 0 60.3l-0.3-0.3h91.1l-0.2 0.3c0-18.4 0-33.4 0.1-43.9 0-5.2 0-9.3 0-12.1q0-2.1 0-3.2 0-1.1 0-1.1 0 0 0 1c0 0.7 0 1.8 0 3.2 0 2.8 0 6.8 0.1 12 0 10.6 0.1 25.6 0.1 44v0.3h-0.2-91.1-0.3v-0.3c0-21.4 0-41.8 0-60.2v-0.3h0.3l65.9 0.2 18.7 0.1h5 1.2z"/><path class="a" d="m331.6 45.9q0.3 0.2 0.5 0.3 0.3 0.2 0.5 0.3 0.3 0.2 0.5 0.4 0.3 0.1 0.5 0.3c1.2 0.9 2.8 2.1 4.6 3.5 1.7 1.4 3.3 2.7 4.3 3.7q0.3 0.2 0.5 0.4 0.2 0.2 0.4 0.4 0.2 0.2 0.4 0.5 0.2 0.2 0.4 0.4-0.8-0.6-1.6-1.2-0.9-0.6-1.7-1.2-0.8-0.6-1.5-1.3-0.8-0.6-1.6-1.3-0.8-0.6-1.6-1.2-0.8-0.6-1.6-1.3-0.8-0.6-1.5-1.3-0.8-0.7-1.5-1.4z"/><path class="a" d="m447.9 46.2q-0.7 0.7-1.5 1.3-0.7 0.7-1.5 1.4-0.7 0.6-1.5 1.2-0.8 0.7-1.6 1.3-0.8 0.6-1.6 1.2-0.8 0.7-1.6 1.3-0.8 0.6-1.6 1.1-0.9 0.6-1.7 1.1 0.7-0.7 1.4-1.4 0.8-0.6 1.6-1.3 0.7-0.6 1.5-1.3 0.8-0.6 1.6-1.2 0.8-0.6 1.6-1.3 0.8-0.6 1.6-1.2 0.8-0.6 1.6-1.1 0.8-0.6 1.7-1.1z"/><path class="b" d="m447.8 126.4l-13-10.5"/><path class="a" d="m434.8 115.9q0.9 0.6 1.8 1.2 0.8 0.6 1.6 1.2 0.9 0.6 1.7 1.3 0.8 0.6 1.6 1.3 0.8 0.6 1.6 1.3 0.8 0.6 1.6 1.3 0.8 0.7 1.6 1.4 0.8 0.7 1.5 1.5-0.9-0.6-1.7-1.2-0.9-0.6-1.7-1.2-0.9-0.6-1.7-1.3-0.8-0.6-1.6-1.3-0.8-0.7-1.6-1.3-0.8-0.7-1.6-1.4-0.8-0.6-1.6-1.4-0.7-0.7-1.5-1.4z"/><path class="a" d="m331.6 126.4q0.7-0.7 1.4-1.4 0.8-0.7 1.5-1.3 0.8-0.6 1.6-1.3 0.8-0.6 1.6-1.2 0.7-0.6 1.5-1.2 0.8-0.6 1.6-1.2 0.8-0.6 1.6-1.2 0.8-0.5 1.7-1.1-0.7 0.7-1.5 1.4-0.7 0.7-1.5 1.3-0.7 0.7-1.5 1.3-0.8 0.6-1.6 1.2-0.7 0.6-1.5 1.2-0.8 0.7-1.6 1.3-0.8 0.5-1.6 1.1-0.9 0.6-1.7 1.1z"/><path fill-rule="evenodd" class="a" d="m362.7 95.1v-20.2h57.3v20.2z"/><path fill-rule="evenodd" class="a" d="m470.8 479.5h-103.1v-299.3h103.1z"/><path fill-rule="evenodd" class="c" d="m425.2 479.5h-112.9v-299.3h112.9z"/><path class="a" d="m381.6 409.7h-30.1q-0.4 0-0.8-0.2-0.4-0.2-0.7-0.5-0.3-0.3-0.5-0.7-0.2-0.4-0.2-0.8v-1.8h34.5v1.8q0 0.4-0.2 0.8-0.1 0.4-0.4 0.7-0.3 0.3-0.7 0.5-0.4 0.2-0.9 0.2z"/><path class="a" d="m317.3 405.7q0 0 0 1.1 0 1.1 0 3.2c0 2.9 0 7 0 12.4 0 10.7-0.1 26.2-0.2 45.1v0.2h0.3l100.6 0.1h0.3v-0.3c0-21.9 0-42.7 0-61.7v-0.2h-0.3-72.6l-20.7 0.1h-5.5-1.4-0.4 0.5 1.4 5.5l20.8 0.1 72.4 0.2-0.3-0.3c0 19 0 39.8 0 61.7l0.3-0.3-100.6 0.1 0.2 0.2c-0.1-18.9-0.1-34.3-0.1-45 0-5.4 0-9.6-0.1-12.4q0-2.2 0-3.3c0-0.7-0.1-1-0.1-1z"/><path fill-rule="evenodd" class="a" d="m380.6 428.9h-29.9v-8.1h29.9z"/><path class="a" d="m383 337.7h-30.1q-0.5 0-0.9-0.2-0.4-0.2-0.7-0.5-0.3-0.3-0.4-0.7-0.2-0.4-0.2-0.8v-1.8h34.5v1.8q0 0.4-0.2 0.8-0.2 0.4-0.5 0.7-0.3 0.3-0.7 0.5-0.4 0.2-0.8 0.2z"/><path class="a" d="m317.6 333.7q0 0 0 1.1c0 0.7 0 1.8 0 3.2 0 2.8 0 7-0.1 12.3 0 10.8 0 26.3-0.1 45.2v0.2h0.3l100.5 0.1h0.4v-0.3c0-21.9 0-42.7 0-61.7v-0.3h-0.3l-72.6 0.1-20.7 0.1h-5.5-1.4-0.4 0.5 1.4 5.6l20.7 0.1 72.4 0.2-0.2-0.3c0 19 0 39.8 0 61.7l0.3-0.3h-0.1l-100.6 0.1 0.2 0.2c0-18.9-0.1-34.3-0.1-45 0-5.4 0-9.6 0-12.4q0-2.1 0-3.3c0-0.7-0.2-1-0.2-1z"/><path fill-rule="evenodd" class="a" d="m382.9 356.4h-29.9v-8.1h29.9z"/><path class="a" d="m381.7 192.4h-30.2q-0.4-0.1-0.8-0.2-0.4-0.2-0.7-0.5-0.3-0.3-0.4-0.7-0.2-0.4-0.2-0.8v-1.8h34.5v1.8q-0.1 0.4-0.2 0.8-0.2 0.4-0.5 0.7-0.3 0.3-0.7 0.5-0.4 0.1-0.8 0.2z"/><path class="a" d="m317.4 188.4q0 0 0 1.1c0 0.7 0 1.8 0 3.2 0 2.8 0 7-0.1 12.3 0 10.8 0 26.3-0.1 45.2v0.2h0.2l100.6 0.1h0.4v-0.3c0-21.9 0-42.7 0-61.7v-0.3h-0.4l-72.6 0.1-20.7 0.1h-5.5-1.4-0.4q0 0 0.1 0 0 0 0.1 0 0.1 0 0.1 0 0.1 0 0.2 0h1.4 5.5 20.8l72.4 0.2-0.3-0.2c0 19 0 39.8 0 61.7l0.3-0.3h-100.6l0.3 0.3c-0.1-18.9-0.1-34.3-0.2-45 0-5.4 0-9.6 0-12.4q0-2.2 0-3.3c0-0.7-0.1-1-0.1-1z"/><path fill-rule="evenodd" class="a" d="m382.1 209.7h-29.9v-8.1h29.9z"/><path class="a" d="m381.7 265h-30.2q-0.4 0-0.8-0.2-0.4-0.1-0.7-0.4-0.3-0.4-0.4-0.7-0.2-0.4-0.2-0.9v-1.8h34.4v1.8q0.1 0.4-0.1 0.8-0.2 0.4-0.5 0.7-0.3 0.3-0.7 0.5-0.4 0.2-0.8 0.2z"/><path class="a" d="m317.4 261q0 0 0 1.1 0 1.1 0 3.2c0 2.8 0 7-0.1 12.3 0 10.8 0 26.2-0.1 45.2v0.2h0.2l100.6 0.1h0.4v-0.3c0-21.9 0-42.7 0-61.7v-0.3h-0.4l-72.6 0.1h-20.7-5.5-1.4-0.4 0.5 1.4 5.5l20.8 0.1 72.4 0.2-0.3-0.3c0 19 0 39.8 0 61.7l0.3-0.3-100.6 0.1 0.3 0.2c-0.1-18.9-0.1-34.3-0.2-45 0-5.4 0-9.5 0-12.4q0-2.1 0-3.3c0-0.7-0.1-0.9-0.1-0.9z"/><path fill-rule="evenodd" class="a" d="m382.1 282.3h-29.9v-8.1h29.9z"/><path fill-rule="evenodd" class="d" d="m45.5 43.6h108.1v96.7h-108.1z"/><path class="a" d="m153.6 140.3q0 0 0-1.8 0-1.8 0-5.2c0-4.5 0-11.2 0-19.6 0-16.9-0.1-41-0.2-70.1l0.3 0.2h-108.1l0.3-0.3c0 35.2 0 68.3 0 96.7l-0.3-0.2 78.2 0.1 22.1 0.1h5.8 1.5 0.5-0.5-1.4-5.8-22l-78.4 0.2h-0.2v-0.3c0-28.4 0-61.5 0-96.7v-0.3h0.3 108.1 0.2v0.3c0 29.1-0.1 53.3-0.1 70.2 0 8.4-0.1 15-0.1 19.6 0 2.2 0 4 0 5.1 0 1.2-0.2 2-0.2 2z"/><path class="a" d="m87 60.8c0 0.1-5.7 0.3-12.7 0.3-7 0-12.7-0.2-12.7-0.3 0-0.2 5.7-0.3 12.7-0.3 7 0 12.7 0.1 12.7 0.3z"/><path class="a" d="m132.8 68c0 0.2-15.6 0.3-34.9 0.3-19.3 0-34.9-0.1-34.9-0.3 0-0.2 15.6-0.3 34.9-0.3 19.3 0 34.9 0.2 34.9 0.3z"/><path fill-rule="evenodd" class="a" d="m61.8 80.3h4.5v4.6h-4.5z"/><path fill-rule="evenodd" class="a" d="m73 80.3h4.5v4.6h-4.5z"/><path fill-rule="evenodd" class="a" d="m84.4 80.1h4.5v4.6h-4.5z"/><path fill-rule="evenodd" class="a" d="m95.4 80.3h4.5v4.6h-4.5z"/><path fill-rule="evenodd" class="a" d="m106.6 80.3h4.5v4.6h-4.5z"/><path fill-rule="evenodd" class="a" d="m117.8 80.3h4.6v4.6h-4.6z"/><path fill-rule="evenodd" class="e" d="m129 80.3h4.6v4.6h-4.6z"/><path fill-rule="evenodd" class="e" d="m61.8 90h4.5v4.5h-4.5z"/><path fill-rule="evenodd" class="a" d="m73 90h4.5v4.5h-4.5z"/><path fill-rule="evenodd" class="e" d="m84.2 90h4.5v4.5h-4.5z"/><path fill-rule="evenodd" class="a" d="m95.4 90h4.5v4.5h-4.5z"/><path fill-rule="evenodd" class="a" d="m106.6 90h4.5v4.5h-4.5z"/><path fill-rule="evenodd" class="a" d="m118 89.8h4.6v4.5h-4.6z"/><path fill-rule="evenodd" class="a" d="m129 90h4.6v4.5h-4.6z"/><path fill-rule="evenodd" class="a" d="m61.8 99.7h4.5v4.5h-4.5z"/><path fill-rule="evenodd" class="a" d="m73.2 99.5h4.5v4.5h-4.5z"/><path fill-rule="evenodd" class="a" d="m84.2 99.7h4.5v4.5h-4.5z"/><path fill-rule="evenodd" class="e" d="m95.4 99.7h4.5v4.5h-4.5z"/><path fill-rule="evenodd" class="a" d="m106.6 99.7h4.5v4.5h-4.5z"/><path fill-rule="evenodd" class="a" d="m117.8 99.7h4.6v4.5h-4.6z"/><path fill-rule="evenodd" class="a" d="m129 99.7h4.6v4.5h-4.6z"/><path fill-rule="evenodd" class="a" d="m61.8 109.4h4.5v4.5h-4.5z"/><path fill-rule="evenodd" class="a" d="m73 109.4h4.5v4.5h-4.5z"/><path fill-rule="evenodd" class="a" d="m84.2 109.4h4.5v4.5h-4.5z"/><path fill-rule="evenodd" class="a" d="m95.6 109.2h4.5v4.5h-4.5z"/><path fill-rule="evenodd" class="a" d="m106.6 109.4h4.5v4.5h-4.5z"/><path fill-rule="evenodd" class="e" d="m117.8 109.4h4.6v4.5h-4.6z"/><path fill-rule="evenodd" class="a" d="m129 109.4h4.6v4.5h-4.6z"/><path fill-rule="evenodd" class="a" d="m61.8 119h4.5v4.6h-4.5z"/><path fill-rule="evenodd" class="e" d="m73 119h4.5v4.6h-4.5z"/><path fill-rule="evenodd" class="a" d="m84.2 119h4.5v4.6h-4.5z"/><path fill-rule="evenodd" class="a" d="m95.4 119h4.5v4.6h-4.5z"/><path fill-rule="evenodd" class="a" d="m106.6 119h4.5v4.6h-4.5z"/><path fill-rule="evenodd" class="a" d="m118 118.8h4.6v4.6h-4.6z"/><path fill-rule="evenodd" class="a" d="m129 119h4.6v4.6h-4.6z"/><path fill-rule="evenodd" class="e" d="m207.2 201.6l37.3-14 9.4 25.1-37.2 14z"/><path class="a" d="m244.7 187.8q0 0.1 0 0.2 0 0-0.1 0.1 0 0 0 0.1-0.1 0.1-0.1 0.1l-0.7 1.3c-0.6 1.2-1.5 2.8-2.6 4.8-2.3 4-5.4 9.5-8.8 15.6l-0.1 0.1h-0.1l-0.3-0.1-17.3-5.6-5.3-1.8-1.4-0.5q0 0-0.1 0-0.1-0.1-0.1-0.1-0.1 0-0.1 0-0.1-0.1-0.2-0.1 0.1 0 0.2 0 0 0.1 0.1 0.1 0.1 0 0.1 0 0.1 0 0.2 0l1.4 0.5 5.2 1.6 17.4 5.5 0.3 0.1-0.2 0.1c3.5-6.1 6.6-11.6 8.9-15.6l2.7-4.7 0.8-1.2q0-0.1 0-0.1 0.1-0.1 0.1-0.2 0 0 0.1-0.1 0 0 0-0.1z"/><path class="a" d="m216.9 227c-0.1 0 1.4-4.5 3.4-10.1 1.9-5.5 3.6-10 3.7-9.9 0.1 0.1-1.4 4.6-3.4 10-1.9 5.5-3.6 10-3.7 10z"/><path class="a" d="m236.3 202.1c0-0.1 4.1 2.2 9 5.3 5 3 8.9 5.5 8.9 5.6-0.1 0.1-4.1-2.3-9.1-5.3-4.9-3.1-8.9-5.6-8.9-5.6z"/><path class="a" d="m292.8 108.3q0.3-0.3 0.7-0.5 0.4-0.2 0.7-0.3 0.4-0.2 0.8-0.3 0.4-0.2 0.8-0.3l0.6-3 5.1-0.1 0.8 3q0.4 0.1 0.8 0.3 0.4 0.1 0.8 0.2 0.4 0.2 0.7 0.4 0.4 0.1 0.8 0.3l2.5-1.6 3.7 3.5-1.6 2.6q0.2 0.4 0.4 0.8 0.2 0.3 0.4 0.7 0.2 0.4 0.3 0.8 0.1 0.3 0.2 0.7l3 0.7 0.1 5.1-3 0.7q-0.1 0.4-0.2 0.8-0.1 0.4-0.3 0.8-0.1 0.4-0.3 0.8-0.2 0.3-0.4 0.7l1.7 2.6-3.5 3.6-2.7-1.5q-0.3 0.2-0.7 0.4-0.4 0.1-0.7 0.3-0.4 0.2-0.8 0.3-0.4 0.2-0.8 0.3l-0.6 3-5.1 0.1-0.8-3q-0.4-0.1-0.8-0.3-0.4-0.1-0.8-0.2-0.4-0.2-0.7-0.4-0.4-0.2-0.8-0.4l-2.6 1.7-3.6-3.5 1.6-2.7q-0.2-0.3-0.4-0.7-0.2-0.3-0.4-0.7-0.2-0.4-0.3-0.8-0.1-0.4-0.3-0.8l-3-0.6v-5.1l3-0.8q0.1-0.4 0.2-0.8 0.1-0.4 0.3-0.8 0.1-0.3 0.3-0.7 0.2-0.4 0.4-0.8l-1.7-2.5 3.5-3.7 2.7 1.6zm2.7 6.8c-1.6 1.6-2 3.9-1.1 6 0.9 2 2.9 3.3 5.1 3.3 2.2-0.1 4.2-1.4 5-3.5 0.8-2.1 0.3-4.4-1.3-5.9q-0.8-0.8-1.8-1.2-1-0.4-2.1-0.4-1.1 0-2.1 0.4-1 0.5-1.7 1.2z"/><path class="a" d="m295.5 115q0.1-0.1 0.2-0.3 0.1-0.1 0.2-0.2 0.2-0.1 0.3-0.2 0.1-0.1 0.3-0.2 1-0.6 2.2-0.8 1.1-0.2 2.3 0.1 1.1 0.3 2 1.1 1 0.8 1.5 1.8 0.2 0.4 0.3 0.8 0.1 0.4 0.2 0.8 0.1 0.4 0.1 0.8 0 0.4-0.1 0.9 0 0.4-0.2 0.8-0.1 0.5-0.3 0.9-0.2 0.4-0.4 0.7-0.3 0.4-0.6 0.7-0.3 0.3-0.7 0.6-0.3 0.3-0.7 0.5-0.4 0.2-0.8 0.3-0.5 0.2-0.9 0.2-0.2 0.1-0.4 0.1-0.2 0-0.5 0-0.2 0-0.4 0-0.2 0-0.4-0.1-0.2 0-0.4 0-0.2-0.1-0.4-0.1-0.2-0.1-0.4-0.1-0.2-0.1-0.4-0.2-0.3-0.1-0.6-0.3-0.3-0.2-0.6-0.5-0.3-0.2-0.6-0.5-0.2-0.3-0.4-0.6-0.2-0.2-0.4-0.5-0.1-0.3-0.2-0.6-0.2-0.3-0.2-0.6-0.1-0.3-0.2-0.7 0-0.4 0-0.9 0-0.5 0.1-0.9 0.1-0.5 0.2-0.9 0.2-0.5 0.5-0.9 0-0.1 0.1-0.2 0.1-0.2 0.2-0.3 0.1-0.1 0.3-0.2 0.1-0.2 0.2-0.3c0.1 0-0.3 0.4-0.7 1.1q-0.3 0.4-0.4 0.9-0.2 0.4-0.2 0.8-0.1 0.5-0.1 0.9 0 0.5 0.1 1 0 0.3 0.1 0.6 0.1 0.3 0.2 0.5 0.1 0.3 0.3 0.6 0.1 0.3 0.3 0.5 0.2 0.3 0.4 0.6 0.3 0.2 0.6 0.5 0.2 0.2 0.5 0.4 0.3 0.2 0.7 0.3 0.1 0.1 0.3 0.1 0.2 0.1 0.4 0.2 0.2 0 0.4 0 0.2 0.1 0.3 0.1 0.2 0 0.4 0.1 0.2 0 0.4 0 0.2 0 0.4 0 0.2-0.1 0.4-0.1 0.5-0.1 0.9-0.2 0.4-0.1 0.7-0.3 0.4-0.2 0.7-0.5 0.4-0.2 0.7-0.5 0.3-0.3 0.5-0.7 0.2-0.3 0.4-0.7 0.2-0.4 0.3-0.8 0.2-0.4 0.2-0.8 0.1-0.4 0-0.8 0-0.4 0-0.8-0.1-0.3-0.2-0.7-0.1-0.4-0.3-0.7-0.1-0.4-0.3-0.6-0.2-0.3-0.5-0.6-0.2-0.3-0.5-0.5-0.2-0.3-0.5-0.5-0.3-0.1-0.6-0.3-0.2-0.1-0.5-0.2-0.3-0.1-0.6-0.2-0.3-0.1-0.6-0.1-0.5-0.1-0.9-0.1-0.5 0.1-0.9 0.2-0.5 0-0.9 0.2-0.4 0.2-0.8 0.4c-0.8 0.4-1.1 0.8-1.1 0.7z"/><path class="a" d="m292.8 108.3l-0.2-0.1-0.5-0.3-2-1.2-3.5 3.7v-0.1l1.7 2.6q-0.2 0.3-0.3 0.7-0.2 0.4-0.4 0.8-0.1 0.3-0.2 0.7-0.2 0.4-0.3 0.8v0.1l-3 0.7 0.1-0.1c0 1.6 0 3.3 0.1 5.1l-0.1-0.1 3 0.6v0.1q0.2 0.4 0.3 0.8 0.1 0.4 0.3 0.8 0.2 0.3 0.4 0.7 0.1 0.4 0.4 0.7v0.1l-1.6 2.8v-0.2l3.7 3.6h-0.2l2.6-1.7v-0.1l0.1 0.1q0.4 0.2 0.8 0.4 0.3 0.1 0.7 0.3 0.4 0.1 0.8 0.3 0.4 0.1 0.8 0.2h0.1v0.1l0.7 3-0.1-0.1 5.1-0.1-0.2 0.1q0.3-1.5 0.6-3v-0.1h0.1q0.4-0.1 0.8-0.2 0.4-0.2 0.8-0.4 0.4-0.1 0.7-0.3 0.4-0.2 0.7-0.4h0.1 0.1l2.6 1.6h-0.2l3.6-3.7v0.2q-0.9-1.3-1.7-2.6l-0.1-0.1q0.2-0.4 0.4-0.8 0.2-0.3 0.3-0.7 0.2-0.4 0.3-0.8 0.2-0.4 0.2-0.8v-0.1h0.1l3-0.7-0.1 0.1q0-2.6-0.1-5.1l0.2 0.2-3-0.7h-0.1v-0.1q-0.1-0.3-0.3-0.7-0.1-0.4-0.3-0.8-0.1-0.4-0.3-0.7-0.2-0.4-0.4-0.8v-0.1l1.6-2.6v0.1l-3.7-3.5h0.2l-2.6 1.7h-0.1q-0.4-0.2-0.8-0.4-0.3-0.2-0.7-0.3-0.4-0.2-0.8-0.3-0.4-0.2-0.8-0.3h-0.1q-0.3-1.6-0.7-3l0.1 0.1h-5.1 0.1q-0.4 1.8-0.7 3-0.3 0.1-0.6 0.2-0.3 0.1-0.6 0.2-0.3 0.1-0.5 0.3-0.3 0.1-0.6 0.2l-0.6 0.3-0.2 0.1q0.1 0 0.1 0 0-0.1 0-0.1 0.1 0 0.1 0 0 0 0 0l0.6-0.3q0.2-0.2 0.5-0.3 0.3-0.1 0.6-0.3 0.3-0.1 0.6-0.2 0.3-0.1 0.6-0.2 0.2-1.2 0.6-3l5.1-0.2h0.1v0.1q0.4 1.4 0.8 3l-0.1-0.1q0.4 0.1 0.8 0.3 0.4 0.1 0.8 0.3 0.4 0.1 0.8 0.3 0.4 0.2 0.7 0.4h-0.1l2.6-1.7 0.1-0.1v0.1l3.7 3.5 0.1 0.1-0.1 0.1-1.6 2.6v-0.1q0.3 0.3 0.5 0.7 0.1 0.4 0.3 0.8 0.2 0.4 0.3 0.8 0.2 0.4 0.3 0.8l-0.1-0.1 3 0.6h0.1v0.1c0 1.7 0.1 3.4 0.1 5.1v0.1h-0.1l-3 0.8 0.1-0.2q-0.1 0.5-0.2 0.9-0.2 0.4-0.3 0.8-0.2 0.3-0.4 0.7-0.1 0.4-0.3 0.8l-0.1-0.2 1.7 2.6 0.1 0.1-0.1 0.1-3.5 3.6-0.1 0.1h-0.1l-2.7-1.6h0.2q-0.4 0.2-0.7 0.4-0.4 0.2-0.8 0.3-0.4 0.2-0.8 0.4-0.4 0.1-0.8 0.2l0.1-0.1c-0.2 1-0.4 2.1-0.6 3v0.1h-0.1l-5.1 0.1h-0.1v-0.1c-0.3-1-0.5-2.1-0.8-3l0.1 0.1q-0.4-0.1-0.8-0.2-0.4-0.2-0.8-0.3-0.4-0.2-0.7-0.4-0.4-0.1-0.8-0.3h0.2l-2.6 1.7h-0.1l-0.1-0.1-3.7-3.5v-0.1-0.1c0.6-0.9 1.1-1.8 1.6-2.6v0.1q-0.2-0.3-0.4-0.7-0.2-0.4-0.3-0.8-0.2-0.4-0.4-0.8-0.1-0.4-0.2-0.8l0.1 0.1-3-0.6h-0.1v-0.1c0-1.8-0.1-3.5-0.1-5.1v-0.1h0.1l3-0.7-0.1 0.1q0.1-0.4 0.2-0.8 0.2-0.4 0.3-0.8 0.2-0.4 0.3-0.8 0.2-0.4 0.4-0.7v0.1q-0.9-1.4-1.6-2.6l3.5-3.7 2 1.2 0.5 0.4c0.1-0.1 0.2-0.1 0.2 0z"/><path class="c" d="m45.5 469.3c-1.8-1.5-5.9-6.5-2.8-12.3 1.2-2.1 3.6-3.1 5.9-4.1 2.2-0.9 4.5-1.7 6.3-3.3 3.5-2.9 4.4-7.8 6.7-11.7 2.7-4.5 7.6-7.9 12.8-7.7 6 0.3 10.9 5.2 13.1 10.7 2.3 5.5 2.3 11.7 2.4 17.7 0 3.3-0.1 7-2.6 9.2-2.2 2.1-5.6 2.1-8.6 2l-32.5-1"/><path class="a" d="m107.6 380h-85.4l15.4 91.8q0.2 1.4 0.9 2.7 0.6 1.3 1.5 2.4 1 1.1 2.2 1.9 1.3 0.7 2.7 1.1l0.3 0.1c0.2 0.1 0.5 0.2 0.7 0.2q0.3 0.1 0.5 0.1 0.2 0 0.4 0 0.2 0.1 0.4 0.1 0.3 0 0.5 0v0.1l0.4-0.1h38.1q0.3 0 0.5 0 0.3 0 0.5 0 0.3 0 0.6-0.1 0.2 0 0.5-0.1 1.7-0.2 3.2-1 1.5-0.8 2.6-2 1.2-1.2 1.9-2.8 0.7-1.5 0.9-3.2l7.4-63.2 0.4-2.5 2.9-25zm-16.1 58.5h-8.8l0.9-26.6h10.2zm3.1-26.7h8.4l-3.2 26.7h-7.5zm-25 56.1l-0.5-23.1h12.6l-0.8 23.1zm-13.7-23.1h12.3l0.5 23.1h-11zm1 23.2h-10.3c-1-6.3-2.3-14.4-3.6-23.2h12.1zm-1.5-29.5l-2-26.6h14l0.6 26.6zm13.4 0l-0.6-26.6h14.5l-0.9 26.6zm-0.8-33l-0.5-24.7h16.1l-0.8 24.7zm-0.8 0h-14.5l-1.9-24.7h15.8zm-15.4 0h-15.2c-0.6-3.4-1.1-6.6-1.5-9.5-1.6-10-2.2-13.8-2.6-15.2h17.4zm0.5 6.4l2.1 26.6h-12.6q-0.6-4-1.3-8.1l-2.9-18.5zm-11.4 26.6h-8.2l-4.5-26.6h8.5c1.3 8.2 2.8 17.4 4.2 26.6zm1 6.4c1.3 8 2.5 15.9 3.7 23.2h-7.9l-3.9-23.2zm39.6 23.2l0.8-23.2h8.4l-2 23.2zm2.1-62.6l0.8-24.6h11.8l-2.1 24.6zm-51.9-24.6c0.3 1.7 1.9 11.5 4 24.6h-8.6l-4.1-24.6zm64.5 87.2h-6.6l2-23.2h7.3zm7.4-62.5h-8.6l2.1-24.7h9.4z"/><path class="f" d="m455.5 479.5c0 0.1-91.6 0.3-204.5 0.3-112.9 0-204.5-0.2-204.5-0.3 0-0.2 91.5-0.3 204.5-0.3 113 0 204.5 0.2 204.5 0.3z"/><path class="g" d="m368.4 251.8c0 0 11.8-13.6 16.3-27.2 4.4-13.6 2.3-12 2.3-12 0 0-6 13.2-10.6 19.6-4.6 6.4-12.7 15.8-12.7 15.8z"/><path class="g" d="m366 214.7q0.1-0.2 0.4-0.3 0.2-0.1 0.4 0 0.3 0.1 0.4 0.3 0.1 0.2 0.1 0.5c-0.7 4.7-2.3 16-2.2 23.2 0 9.5 0 13.1 0 13.1h-5c0 0 0.9-19.5 2-25.5q0.3-1.4 0.7-2.9 0.4-1.4 0.9-2.9 0.4-1.4 1-2.8 0.6-1.3 1.3-2.7z"/><path class="g" d="m363.4 249.9q-0.8-1.7-1.5-3.5-0.6-1.8-1.1-3.7-0.5-1.8-0.9-3.7-0.4-1.9-0.6-3.8c-0.4-3.4 0.3-8.1 1.4-14.4q0.2-0.9 0.3-1.7 0.1-0.9 0.2-1.8 0-0.9 0.1-1.7 0-0.9 0-1.8 0-0.4-0.2-0.7-0.3-0.3-0.7-0.4-0.4-0.1-0.7 0-0.4 0.2-0.6 0.5-0.4 0.9-0.8 1.7-0.4 0.9-0.8 1.7-0.3 0.9-0.6 1.8-0.3 0.9-0.5 1.8c-1.2 6.2-2.6 9.3-1.5 15.1 1 5.9 4.8 15 4.8 15z"/><path class="g" d="m358.9 250.3c0 0-13-27.9-13.8-32-0.9-4.1-4-13.7-4.3-13.1-0.4 0.5-0.9 5.6 1.4 11.3 2.3 5.8 12.3 34.7 12.3 34.7h4.4"/><path class="f" d="m364.8 249.1q0 0 0.3-0.3 0.4-0.2 1-0.8 0.5-0.3 0.9-0.7 0.5-0.4 0.9-0.7 0.5-0.4 0.9-0.8 0.4-0.4 0.8-0.8 1.4-1.4 2.7-2.8 1.2-1.4 2.4-3 1.2-1.5 2.3-3.1 1-1.5 2-3.2 1-1.7 1.9-3.4 0.9-1.7 1.7-3.4 0.8-1.7 1.5-3.5 0.7-1.8 1.4-3.6c0.6-1.8 1.1-3.4 1.4-4.4q0.2-0.8 0.3-1.2 0.1-0.1 0.1-0.1 0-0.1 0-0.1 0-0.1 0-0.2 0 0 0-0.1c0 0 0 0.2-0.1 0.5l-0.4 1.1c-0.3 1-0.9 2.6-1.5 4.4q-0.7 1.8-1.4 3.6-0.7 1.8-1.5 3.5-0.9 1.7-1.7 3.4-0.9 1.7-1.9 3.4-1 1.6-2 3.2-1.1 1.6-2.3 3.1-1.1 1.5-2.4 3-1.3 1.4-2.6 2.8c-1.4 1.3-2.6 2.4-3.4 3.1l-1 0.8q-0.1 0-0.1 0.1 0 0-0.1 0 0 0.1 0 0.1-0.1 0-0.1 0.1z"/><path class="f" d="m363.4 235.7q0-0.1 0-0.2 0-0.1 0-0.2 0.1-0.1 0.1-0.2 0-0.1 0-0.2 0.1-0.9 0.2-2.3c0.2-1.8 0.5-4.4 1-7.3 0.5-2.9 1-5.4 1.4-7.3l0.5-2.2q0-0.1 0-0.2 0-0.1 0-0.2 0.1-0.1 0.1-0.2 0-0.1 0-0.2 0 0.1-0.1 0.2 0 0.1 0 0.2-0.1 0.1-0.1 0.2 0 0.1-0.1 0.2-0.2 0.8-0.5 2.2c-0.5 1.8-1 4.4-1.5 7.3-0.4 2.8-0.7 5.4-0.9 7.3q-0.1 1.5-0.1 2.3 0 0.1 0 0.2 0 0.1-0.1 0.2 0 0.1 0 0.2 0.1 0.1 0.1 0.2z"/><path class="f" d="m360.3 213.1q0 0 0 0.1 0 0-0.1 0.1 0 0 0 0 0 0.1 0 0.1l-0.4 1q-0.3 0.7-0.6 1.7c-0.2 0.7-0.4 1.4-0.6 2.2q-0.2 0.7-0.3 1.3c-0.1 0.5-0.2 1-0.3 1.5-0.2 1-0.4 2-0.5 3.2q-0.1 0.9-0.2 1.8-0.1 0.9-0.1 1.8 0 1 0 1.9 0 0.9 0 1.8 0 1 0.1 1.9 0.1 0.9 0.2 1.8 0.1 1 0.2 1.9 0.1 0.9 0.3 1.8c0.2 1.1 0.4 2.2 0.7 3.1 0.2 0.5 0.3 1 0.4 1.4l0.4 1.3c0.3 0.9 0.6 1.6 0.8 2.2q0.4 1 0.7 1.6l0.5 1q0 0.1 0 0.1 0 0.1 0 0.1 0.1 0 0.1 0.1 0 0 0 0.1c0.1 0 0-0.2-0.1-0.4-0.1-0.2-0.2-0.6-0.4-1-0.2-0.4-0.4-1-0.6-1.6-0.3-0.7-0.5-1.4-0.8-2.2l-0.4-1.3q-0.2-0.7-0.3-1.4c-0.3-1-0.5-2-0.7-3.1q-0.2-0.9-0.3-1.9-0.2-0.9-0.3-1.8-0.1-0.9-0.1-1.8-0.1-0.9-0.2-1.8 0-1 0-1.9 0-0.9 0.1-1.8 0-0.9 0.1-1.9 0-0.9 0.1-1.8c0.2-1.1 0.3-2.2 0.5-3.2 0.1-0.5 0.2-1 0.3-1.4 0.1-0.4 0.2-0.9 0.3-1.3 0.2-0.8 0.4-1.6 0.6-2.2q0.2-1 0.5-1.7l0.3-1.1q0 0 0-0.1 0.1 0 0.1 0 0-0.1 0-0.1 0-0.1 0-0.1z"/><path class="f" d="m340.9 205.7c0 0 0 0 0 0.2v0.3q0.1 0.5 0.3 1.4c0.2 1.2 0.6 2.9 1.3 5 0.6 2.1 1.5 4.6 2.6 7.3 1 2.7 2.2 5.6 3.4 8.7 1.1 3.2 2 6.2 2.9 9 0.8 2.7 1.6 5.2 2.4 7.3q0.2 0.6 0.4 1.2 0.3 0.6 0.5 1.2 0.3 0.6 0.5 1.2 0.3 0.6 0.6 1.1c0.2 0.6 0.5 1 0.7 1.3l0.1 0.3q0 0 0 0 0.1 0 0.1 0.1 0 0 0 0 0 0 0 0 0 0 0 0 0 0 0-0.1 0 0 0 0 0 0-0.1 0l-0.1-0.3q-0.2-0.5-0.6-1.3-0.3-0.6-0.6-1.2-0.2-0.6-0.5-1.2-0.2-0.6-0.5-1.2-0.2-0.6-0.4-1.2c-0.8-2-1.5-4.5-2.4-7.3-0.8-2.8-1.7-5.8-2.9-9-1.1-3.2-2.3-6.1-3.4-8.8-1-2.6-2-5.1-2.6-7.2-0.7-2-1.1-3.8-1.4-5q-0.2-0.9-0.3-1.3l-0.1-0.4z"/><path class="g" d="m380.9 199.6q0.3-0.3 0.6-0.3 0.4 0 0.7 0.2 0.4 0.2 0.5 0.5 0.1 0.4 0 0.7-0.1 0.6-0.3 1.1-0.2 0.5-0.4 1.1-0.2 0.5-0.4 1-0.3 0.5-0.5 1c-1.8 3.8-7 17.4-9.5 24.9-2.5 7.4-5.9 21.4-5.9 21.4l-5.2-0.9c0 0 4.8-22.9 9.5-31.1 3.7-6.6 7.5-16.2 10.9-19.6z"/><path class="f" d="m370.2 234.4q-0.1 0.1-0.1 0.2 0 0.1-0.1 0.1 0 0.1 0 0.2-0.1 0.1-0.1 0.2-0.2 0.6-0.6 1.7c-0.5 1.5-1 3.6-1.7 5.9-0.6 2.3-1 4.4-1.4 6q-0.2 1.1-0.4 1.8 0 0.1 0 0.2 0 0 0 0.1-0.1 0.1-0.1 0.2 0 0.1 0 0.2 0.1-0.1 0.1-0.2 0-0.1 0-0.2 0.1 0 0.1-0.1 0-0.1 0-0.2 0.2-0.7 0.5-1.8l1.5-5.9c0.6-2.3 1.2-4.4 1.6-5.9q0.3-1.1 0.5-1.8 0.1-0.1 0.1-0.2 0 0 0-0.1 0-0.1 0.1-0.2 0-0.1 0-0.2z"/><path class="f" d="m363.1 250.7v-0.1-0.4q0.1-0.6 0.3-1.6c0.1-1.4 0.5-3.4 1.1-5.8q0.2-1 0.5-2.1 0.3-1 0.6-2.1 0.3-1 0.6-2.1 0.3-1 0.7-2c1.1-3.1 2.4-6.5 4-10 3-6.9 6.1-13 8.1-17.6 1-2.2 1.8-4.1 2.4-5.4q0.4-1 0.6-1.5 0-0.2 0.1-0.4 0.1-0.1 0-0.1l-0.1 0.1q0 0.2-0.1 0.4-0.3 0.5-0.7 1.5c-0.5 1.3-1.3 3.1-2.4 5.3-2.1 4.6-5.2 10.7-8.2 17.6-1.6 3.5-2.9 6.9-4 10q-0.3 1-0.7 2.1-0.3 1-0.6 2-0.3 1.1-0.6 2.2-0.2 1-0.5 2.1-0.1 0.7-0.3 1.4-0.1 0.7-0.2 1.5-0.2 0.7-0.3 1.4-0.1 0.8-0.2 1.5c-0.1 0.7-0.1 1.2-0.1 1.6v0.4q0 0.1 0 0.1z"/><path class="f" d="m360.5 250.3q0-0.1 0-0.2 0.1-0.1 0.1-0.2 0-0.1 0-0.2 0-0.2 0.1-0.3 0.1-0.9 0.4-2.4c0.3-2 0.9-4.8 1.7-7.8 0.8-3.1 1.6-5.8 2.3-7.7q0.5-1.4 0.8-2.3 0.1-0.1 0.1-0.2 0.1-0.1 0.1-0.2 0-0.2 0.1-0.3 0-0.1 0-0.2 0 0.1-0.1 0.2 0 0.1-0.1 0.2 0 0.1-0.1 0.2 0 0.1-0.1 0.2c-0.2 0.6-0.5 1.3-0.9 2.3q-0.3 0.9-0.7 1.9-0.3 1-0.6 1.9-0.3 1-0.6 1.9-0.2 1-0.5 2c-0.8 3-1.3 5.9-1.6 7.9-0.2 1-0.3 1.8-0.3 2.4q-0.1 0.1-0.1 0.2 0 0.2 0 0.3 0 0.1 0 0.2 0 0.1 0 0.2z"/><path fill-rule="evenodd" class="h" d="m370.2 274.5h-20.5v-24.9h20.5z"/><g style="opacity:.3"><path fill-rule="evenodd" d="m370.2 274.5h-20.5v-24.9h20.5z"/></g><path fill-rule="evenodd" class="h" d="m374.4 274.5h-18.2v-24.9h18.2z"/><path fill-rule="evenodd" class="h" d="m148.6 56.6l38-12.1 8.1 25.6-37.9 12.1z"/><path class="f" d="m186.8 44.7q0 0.1-0.1 0.2 0 0 0 0.1-0.1 0-0.1 0.1 0 0-0.1 0.1-0.3 0.5-0.7 1.3l-2.9 4.6-9.5 15.2-0.1 0.1h-0.2l-0.3-0.1-17-6.6-5.1-2-1.4-0.5q-0.1 0-0.1-0.1-0.1 0-0.1 0-0.1 0-0.2-0.1 0 0-0.1 0 0.1 0 0.1 0 0.1 0 0.2 0 0 0 0.1 0.1 0.1 0 0.1 0l1.4 0.5 5.2 1.9 17 6.5 0.3 0.1-0.2 0.1 9.7-15.2c1.2-1.9 2.2-3.4 2.9-4.5l0.8-1.3q0.1 0 0.1-0.1 0.1-0.1 0.1-0.1 0-0.1 0.1-0.1 0-0.1 0.1-0.2z"/><path class="f" d="m157 82.5c-0.1 0 1.6-4.5 3.9-9.9 2.2-5.4 4.1-9.8 4.2-9.7 0 0-1.7 4.4-3.9 9.8-2.2 5.4-4.1 9.8-4.2 9.8z"/><path class="f" d="m177.6 58.5c0.1-0.1 4 2.5 8.8 5.8 4.8 3.2 8.6 6 8.6 6-0.1 0-4-2.5-8.8-5.8-4.8-3.3-8.7-5.9-8.6-6z"/><path class="h" d="m354.2 99.9l-28.3-11.9q-0.7-0.3-1.2-0.8-0.5-0.6-0.8-1.3-0.3-0.7-0.3-1.4 0-0.8 0.3-1.5l16.6-39.1q0.3-0.7 0.8-1.2 0.6-0.5 1.3-0.8 0.7-0.3 1.4-0.3 0.8 0 1.5 0.3l17.9 7.6 7.8 20.2-12 28.3q-0.3 0.7-0.9 1.2-0.5 0.5-1.2 0.8-0.7 0.3-1.5 0.3-0.7-0.1-1.4-0.4z"/><path class="h" d="m363.4 49.4l-4.7 11q-0.2 0.7-0.3 1.4 0 0.7 0.3 1.3 0.3 0.7 0.8 1.2 0.5 0.5 1.1 0.8l10.6 4.5z"/><g style="opacity:.2"><path  d="m358.5 61.4q-0.3 0.7-0.3 1.3-0.1 0.7 0.1 1.4 0.2 0.6 0.6 1.2 0.4 0.5 1 0.9 0 0 0 0.1 0.1 0 0.1 0 0.1 0 0.1 0.1 0 0 0.1 0c1.2 0.9 9.6 6.3 9.7 6.1l1.3-3-10.6-4.5c0 0-2.6-1.1-2.1-3.6z"/></g><g style="opacity:.3"><path class="b" d="m363.4 49.4l-4.7 11q-0.2 0.7-0.3 1.4 0 0.7 0.3 1.3 0.3 0.7 0.8 1.2 0.5 0.5 1.1 0.8l10.6 4.5z"/></g><path class="d" d="m356.6 59q-0.9-0.2-1.7-0.5-0.9-0.3-1.7-0.6-0.9-0.3-1.7-0.7-0.8-0.3-1.6-0.7-0.8-0.3-1.6-0.7-0.9-0.3-1.7-0.7-0.8-0.4-1.6-0.8-0.7-0.4-1.5-0.8 0.8 0.2 1.7 0.5 0.8 0.3 1.7 0.6 0.8 0.3 1.6 0.7 0.8 0.3 1.6 0.7 0.9 0.3 1.7 0.7 0.8 0.3 1.6 0.7 0.8 0.3 1.6 0.8 0.8 0.4 1.5 0.8z"/><path class="d" d="m362.4 68.7c-0.1 0.2-5-1.7-10.9-4.3-5.9-2.5-10.7-4.6-10.6-4.8 0-0.1 4.9 1.8 10.8 4.3 6 2.5 10.7 4.7 10.7 4.8z"/><path class="d" d="m362.1 74.8c-0.1 0.1-5.4-2-11.8-4.7-6.5-2.8-11.7-5.1-11.7-5.3 0.1-0.1 5.4 2 11.9 4.7 6.5 2.7 11.6 5.1 11.6 5.3z"/><path class="d" d="m360 79.7c-0.1 0.1-5.4-2-11.8-4.8-6.5-2.7-11.7-5-11.6-5.2 0-0.1 5.3 2 11.8 4.7 6.5 2.7 11.7 5.1 11.6 5.3z"/><path class="d" d="m357.9 84.5c0 0.2-5.3-2-11.8-4.7-6.5-2.7-11.7-5-11.6-5.2 0.1-0.1 5.4 2 11.8 4.7 6.5 2.7 11.7 5.1 11.6 5.2z"/><path class="d" d="m355.9 89.5c-0.1 0.1-5.4-2-11.9-4.8-6.4-2.7-11.6-5-11.6-5.2 0.1-0.1 5.4 2 11.9 4.7 6.4 2.7 11.6 5.1 11.6 5.3z"/><path fill-rule="evenodd" class="b" d="m259.2 108.2c-20.6 0-37.3-16.7-37.3-37.3 0-20.7 16.7-37.4 37.3-37.4 20.7 0 37.4 16.7 37.4 37.4 0 20.6-16.7 37.3-37.4 37.3z"/><path class="f" d="m296.6 70.9q0 0-0.1-0.6c-0.1-0.4-0.1-1-0.1-1.8 0-0.4-0.1-0.8-0.1-1.3 0-0.5-0.1-1-0.2-1.6q-0.1-0.5-0.2-0.9 0-0.5-0.1-1-0.1-0.5-0.3-1-0.1-0.4-0.2-0.9-0.3-1.3-0.8-2.6-0.4-1.3-0.9-2.5-0.5-1.3-1.1-2.5-0.6-1.2-1.3-2.3-2.1-3.4-4.8-6.3-2.7-2.9-5.9-5.2-3.3-2.2-6.9-3.7-3.6-1.6-7.5-2.3-0.6-0.1-1.2-0.2-0.6-0.1-1.2-0.2-0.6 0-1.1-0.1-0.6 0-1.2 0c-0.8 0-1.6-0.2-2.4-0.1l-2.5 0.1c-0.4 0-0.8 0-1.2 0.1l-1.3 0.2c-0.8 0.1-1.6 0.2-2.5 0.4q-1.2 0.3-2.5 0.6-1.3 0.4-2.5 0.8-1.2 0.5-2.4 1-1.2 0.5-2.4 1.1c-0.7 0.5-1.5 1-2.3 1.4-0.4 0.3-0.8 0.5-1.1 0.7l-1.1 0.9q-1.1 0.8-2.2 1.7-1.1 0.9-2.1 1.9-0.9 1-1.8 2.1-0.9 1.1-1.7 2.2l-0.9 1.1-0.8 1.3-0.7 1.1q-0.1 0.2-0.2 0.3-0.1 0.2-0.2 0.4-0.1 0.1-0.1 0.3-0.1 0.1-0.2 0.3-0.6 1.3-1.3 2.6l-1 2.8q-0.4 1.4-0.8 2.8-0.3 1.5-0.6 2.9-0.2 1.5-0.3 3-0.2 1.5-0.2 3 0 1.5 0.2 2.9 0.1 1.5 0.3 3 0.3 1.5 0.6 2.9 0.4 1.5 0.8 2.9 0.5 1.4 1 2.7c0.4 0.9 0.9 1.8 1.3 2.6q0.1 0.2 0.2 0.4 0 0.1 0.1 0.3 0.1 0.1 0.2 0.3 0.1 0.1 0.2 0.3l0.7 1.2 0.8 1.3 0.9 1.1q0.4 0.6 0.8 1.1 0.4 0.6 0.9 1.1 0.4 0.5 0.9 1.1 0.5 0.5 1 1 0.5 0.5 1 0.9 0.5 0.5 1 0.9 0.6 0.5 1.1 0.9 0.5 0.5 1.1 0.9l1.1 0.8c0.4 0.3 0.8 0.5 1.1 0.7 0.8 0.5 1.6 1 2.3 1.4q1.2 0.6 2.4 1.1 1.2 0.5 2.4 1 1.2 0.4 2.5 0.8 1.3 0.4 2.5 0.7c0.9 0.1 1.7 0.2 2.5 0.4l1.3 0.2c0.4 0 0.8 0 1.2 0l2.5 0.2c0.8 0 1.6-0.1 2.4-0.1q0.6 0 1.2-0.1 0.6 0 1.2-0.1 0.6-0.1 1.1-0.1 0.6-0.1 1.2-0.2 3.9-0.8 7.5-2.3 3.7-1.5 6.9-3.8 3.3-2.2 6-5.1 2.7-2.9 4.7-6.3 0.7-1.2 1.3-2.4 0.6-1.2 1.1-2.4 0.5-1.2 1-2.5 0.4-1.3 0.7-2.6 0.1-0.5 0.2-1 0.2-0.4 0.3-0.9 0.1-0.5 0.1-1 0.1-0.5 0.2-0.9c0.1-0.6 0.2-1.1 0.2-1.6q0.1-0.7 0.1-1.3 0.1-1.2 0.1-1.8c0-0.4 0.1-0.6 0.1-0.6q0 0 0 0.6c0 0.4 0 1-0.1 1.8 0 0.4 0 0.8-0.1 1.3q0 0.7-0.2 1.6 0 0.5-0.1 0.9-0.1 0.5-0.2 1-0.1 0.5-0.2 1-0.1 0.4-0.2 0.9-0.3 1.3-0.7 2.6-0.5 1.3-1 2.6-0.5 1.2-1.1 2.4-0.6 1.2-1.3 2.4-2 3.4-4.7 6.4-2.7 2.9-6 5.2-3.3 2.3-7 3.9-3.6 1.5-7.5 2.3-0.6 0.1-1.2 0.2-0.6 0.1-1.2 0.1-0.6 0.1-1.2 0.1-0.6 0.1-1.2 0.1c-0.8 0-1.6 0.1-2.4 0.1l-2.5-0.1c-0.5 0-0.9 0-1.3-0.1l-1.2-0.2c-0.8-0.1-1.7-0.2-2.5-0.4q-0.7-0.1-1.3-0.3-0.6-0.2-1.3-0.4-0.6-0.1-1.2-0.3-0.6-0.2-1.2-0.5-0.7-0.2-1.3-0.4-0.6-0.3-1.2-0.6-0.6-0.2-1.2-0.5-0.6-0.3-1.2-0.6c-0.8-0.4-1.6-0.9-2.4-1.4-0.4-0.3-0.8-0.5-1.2-0.7l-1.1-0.9q-0.5-0.4-1.1-0.8-0.5-0.5-1-0.9-0.6-0.5-1.1-0.9-0.5-0.5-1-1-0.5-0.5-1-1-0.5-0.6-0.9-1.1-0.5-0.6-0.9-1.1-0.5-0.6-0.9-1.2l-0.9-1.1-0.7-1.2-0.8-1.3q-0.1-0.1-0.2-0.3-0.1-0.2-0.2-0.3-0.1-0.2-0.1-0.3-0.1-0.2-0.2-0.4-0.6-1.3-1.3-2.6l-1-2.8q-0.4-1.4-0.8-2.9-0.3-1.5-0.6-3-0.2-1.5-0.4-3-0.1-1.5-0.1-3 0-1.5 0.1-3 0.1-1.5 0.4-3 0.2-1.4 0.6-2.9 0.3-1.5 0.8-2.9l1-2.8 1.2-2.6q0.1-0.2 0.2-0.4 0.1-0.1 0.2-0.3 0.1-0.2 0.1-0.3 0.1-0.2 0.2-0.3l0.8-1.3 0.7-1.2 0.9-1.2q0.4-0.5 0.9-1.1 0.4-0.6 0.9-1.1 0.5-0.5 0.9-1.1 0.5-0.5 1-1 0.5-0.5 1-1 0.6-0.4 1.1-0.9 0.5-0.4 1.1-0.9 0.5-0.4 1.1-0.8l1.1-0.9c0.3-0.2 0.8-0.4 1.1-0.7 0.8-0.5 1.6-1 2.4-1.4q1.2-0.6 2.4-1.1 1.2-0.6 2.4-1 1.3-0.5 2.5-0.8 1.3-0.4 2.6-0.7c0.8-0.2 1.7-0.3 2.5-0.4l1.3-0.2c0.4 0 0.8 0 1.2-0.1l2.5-0.1c0.9 0 1.7 0.1 2.5 0.1q0.6 0 1.2 0.1 0.6 0 1.2 0.1 0.6 0.1 1.1 0.2 0.6 0.1 1.2 0.2 4 0.7 7.6 2.3 3.7 1.5 7 3.8 3.2 2.3 5.9 5.3 2.8 2.9 4.8 6.3 0.7 1.2 1.3 2.4 0.6 1.2 1.1 2.5 0.5 1.2 0.9 2.5 0.5 1.3 0.8 2.6 0.1 0.5 0.2 1 0.1 0.5 0.2 1 0.1 0.4 0.2 0.9 0.1 0.5 0.1 1 0.1 0.9 0.2 1.6l0.1 1.3c0 0.8 0 1.4 0 1.8 0 0.4 0.1 0.6 0.1 0.6z"/><path class="f" d="m276.9 69.8q-0.2 0.1-0.3 0.1-0.2 0.1-0.4 0.2-0.2 0-0.4 0.1-0.2 0-0.4 0.1l-4.1 1c-3.6 0.8-8.5 1.9-14 3.1h-0.3v-1.4c0-5.8 0-11.1 0.1-15 0-1.8 0.1-3.4 0.1-4.5q0-0.2 0-0.5 0-0.2 0-0.4 0-0.2 0-0.4 0.1-0.2 0.1-0.4 0 0.2 0 0.4 0.1 0.2 0.1 0.4 0 0.2 0 0.4 0 0.3 0 0.5c0 1.1 0.1 2.7 0.1 4.5 0 3.8 0.1 9.1 0.1 15v1.1l-0.4-0.3c5.5-1.2 10.4-2.2 14-3l4.2-0.8q0.2 0 0.4-0.1 0.2 0 0.4 0 0.1 0 0.3-0.1 0.2 0 0.4 0z"/><path class="f" d="m299.2 86.3q0.1-0.1 0.1-0.2 0-0.1 0-0.1 0-0.1 0.1-0.2 0-0.1 0-0.1c0.1-0.4 0.4-1 0.6-1.7q0.2-0.8 0.4-1.6 0.2-0.8 0.4-1.6 0.2-0.8 0.3-1.6 0.2-0.8 0.3-1.6c0.6-3.6 0.7-7.2 0.4-10.8-0.4-3.6-1.2-7.2-2.4-10.6-1.2-3.4-2.8-6.6-4.9-9.6-2-3-4.4-5.8-7.1-8.2q-0.6-0.5-1.2-1-0.7-0.5-1.3-1-0.7-0.5-1.3-1-0.7-0.5-1.4-0.9c-0.6-0.5-1.1-0.8-1.5-1.1q0 0-0.1 0-0.1-0.1-0.1-0.1-0.1-0.1-0.2-0.1 0-0.1-0.1-0.1 0.1 0 0.2 0 0 0.1 0.1 0.1 0.1 0 0.1 0.1 0.1 0 0.2 0.1c0.3 0.2 0.9 0.4 1.5 0.9q0.7 0.4 1.4 0.9 0.7 0.4 1.4 0.9 0.6 0.5 1.3 1 0.6 0.5 1.3 1.1c2.7 2.4 5.2 5.1 7.2 8.1 2.1 3 3.8 6.3 5 9.7 1.2 3.5 2 7.1 2.3 10.7 0.3 3.7 0.2 7.3-0.5 10.9q-0.1 0.8-0.3 1.6-0.1 0.8-0.3 1.6-0.2 0.8-0.5 1.6-0.2 0.8-0.5 1.6c-0.2 0.7-0.5 1.3-0.6 1.7q0 0.1 0 0.1-0.1 0.1-0.1 0.2 0 0.1-0.1 0.1 0 0.1-0.1 0.2z"/><path class="f" d="m306.4 67.9c-0.1 0-0.1-1.5-0.4-3.9q-0.2-1.1-0.4-2.3-0.2-1.1-0.5-2.3-0.2-1.1-0.5-2.2-0.4-1.2-0.7-2.3-0.4-1.1-0.8-2.2-0.5-1.1-1-2.1-0.4-1.1-1-2.1-0.5-1-1.1-2.1c-1.2-2-2.1-3.2-2-3.3q0.1 0.1 0.2 0.2 0.1 0.1 0.2 0.2 0.1 0.1 0.1 0.2 0.1 0.1 0.2 0.2c0.4 0.5 1 1.3 1.6 2.3q0.7 1 1.3 2.1 0.5 1 1 2.1 0.6 1 1 2.1 0.5 1.1 0.8 2.2 0.4 1.2 0.7 2.3 0.4 1.1 0.6 2.3 0.3 1.2 0.4 2.3 0.2 1.2 0.3 2.4c0.2 1.2 0.2 2.2 0.2 2.8q0 0.2 0 0.3 0 0.1-0.1 0.3 0 0.1 0 0.2-0.1 0.2-0.1 0.3z"/><path class="f" d="m221.9 49.2q0 0.1 0 0.2 0 0.1-0.1 0.1 0 0.1 0 0.2-0.1 0-0.1 0.1c-0.2 0.4-0.5 0.9-0.8 1.6-1.9 3.7-3.2 7.7-4 11.8-0.7 4.1-0.9 8.3-0.4 12.4 0.4 4.2 1.5 8.2 3.1 12.1 1.6 3.8 3.8 7.4 6.4 10.6q0.5 0.7 1.1 1.3 0.5 0.6 1.1 1.2 0.5 0.6 1.1 1.2 0.6 0.6 1.2 1.1 0.8 0.8 1.3 1.2 0.1 0.1 0.1 0.1 0.1 0.1 0.1 0.1 0.1 0.1 0.2 0.2 0 0 0.1 0.1-0.1-0.1-0.2-0.1 0 0-0.1-0.1-0.1 0-0.1-0.1-0.1 0-0.2-0.1c-0.3-0.2-0.8-0.6-1.4-1.1q-0.6-0.6-1.2-1.1-0.6-0.6-1.2-1.2-0.5-0.6-1.1-1.2-0.6-0.6-1.1-1.2c-2.3-2.8-4.3-5.9-5.9-9.2-1.5-3.3-2.7-6.8-3.3-10.4-0.7-3.6-0.9-7.3-0.6-10.9 0.3-3.7 1-7.3 2.2-10.7q0.3-0.8 0.6-1.6 0.2-0.7 0.6-1.5 0.3-0.8 0.7-1.5 0.3-0.8 0.7-1.5c0.4-0.7 0.7-1.2 0.9-1.5q0-0.1 0.1-0.2 0 0 0.1-0.1 0-0.1 0-0.1 0.1-0.1 0.1-0.2z"/><path class="f" d="m211.9 66.3c0.1 0-0.1 1.4-0.1 3.8q-0.1 1.2-0.1 2.4 0.1 1.1 0.1 2.3 0.1 1.2 0.3 2.3 0.1 1.2 0.3 2.4 0.2 1.1 0.4 2.2 0.3 1.2 0.6 2.3 0.3 1.1 0.7 2.3 0.4 1.1 0.8 2.1c0.9 2.3 1.6 3.6 1.5 3.7q-0.1-0.2-0.2-0.3-0.1-0.1-0.1-0.2-0.1-0.1-0.2-0.2 0-0.1-0.1-0.2c-0.3-0.6-0.8-1.5-1.2-2.6q-0.5-1.1-0.9-2.2-0.4-1.1-0.7-2.2-0.4-1.2-0.7-2.3-0.2-1.1-0.4-2.3-0.2-1.2-0.4-2.4-0.1-1.1-0.1-2.3-0.1-1.2-0.1-2.4 0-1.2 0.1-2.3c0.1-1.2 0.2-2.2 0.3-2.9q0-0.1 0-0.3 0.1-0.1 0.1-0.2 0-0.2 0.1-0.3 0-0.1 0-0.2z"/><path class="f" d="m290.1 77c-1.4-0.3-2.5-0.5-2.5-0.5 0-0.1 1.1 0.2 2.5 0.5 1.5 0.2 2.6 0.5 2.6 0.5 0 0-1.2-0.2-2.6-0.5z"/><path class="f" d="m286.5 86.5c-1.2-0.8-2.2-1.4-2.2-1.4 0 0 1 0.6 2.2 1.3 1.3 0.7 2.3 1.3 2.3 1.3 0 0.1-1-0.5-2.3-1.2z"/><path class="f" d="m280 94.2c-0.9-1.1-1.7-2-1.7-2 0 0 0.8 0.8 1.7 2 1 1.1 1.7 2 1.7 2 0 0-0.7-0.9-1.7-2z"/><path class="f" d="m271.4 99.4c-0.5-1.4-1-2.5-0.9-2.5 0 0 0.4 1.1 1 2.4 0.5 1.4 0.9 2.5 0.9 2.5 0 0-0.5-1.1-1-2.4z"/><path class="f" d="m261.5 101.5c0-1.5-0.1-2.6-0.1-2.6 0.1 0 0.1 1.1 0.2 2.6 0 1.4 0.1 2.6 0.1 2.6 0 0-0.1-1.2-0.2-2.6z"/><path class="f" d="m251.5 100.3c0.4-1.4 0.8-2.5 0.8-2.5 0 0-0.3 1.1-0.7 2.5-0.4 1.4-0.8 2.5-0.8 2.5 0 0 0.3-1.1 0.7-2.5z"/><path class="f" d="m242.4 95.9c0.9-1.2 1.5-2.1 1.6-2.1 0 0-0.7 1-1.5 2.1-0.9 1.2-1.5 2.1-1.5 2.1 0 0 0.6-0.9 1.4-2.1z"/><path class="f" d="m235.3 88.8c1.1-0.9 2.1-1.5 2.1-1.5 0 0-0.9 0.7-2.1 1.5-1.2 0.9-2.1 1.5-2.1 1.5 0 0 0.9-0.7 2.1-1.5z"/><path class="f" d="m230.8 79.8c1.4-0.5 2.5-0.8 2.5-0.8 0 0-1.1 0.4-2.5 0.8-1.4 0.4-2.5 0.7-2.5 0.7 0 0 1.1-0.3 2.5-0.7z"/><path class="f" d="m229.5 69.8c1.4 0 2.6 0 2.6 0.1 0 0-1.2 0-2.6-0.1-1.4-0.1-2.6-0.1-2.6-0.1 0 0 1.2 0 2.6 0.1z"/><path class="f" d="m231.5 59.9c1.4 0.5 2.5 0.9 2.5 1 0 0-1.1-0.4-2.5-0.9-1.3-0.6-2.4-1-2.4-1 0 0 1.1 0.4 2.4 0.9z"/><path class="f" d="m236.7 51.2c1.1 0.9 2 1.7 2 1.7 0 0-0.9-0.8-2-1.7-1.1-0.9-2-1.7-2-1.7 0 0 0.9 0.7 2 1.7z"/><path class="f" d="m244.3 44.6c0.8 1.3 1.4 2.3 1.3 2.3 0 0-0.6-1-1.3-2.2-0.8-1.3-1.4-2.3-1.4-2.3 0.1 0 0.7 1 1.4 2.2z"/><path class="f" d="m253.7 40.9c0.3 1.4 0.5 2.6 0.5 2.6 0 0-0.3-1.2-0.6-2.6-0.3-1.4-0.5-2.5-0.5-2.5 0 0 0.3 1.1 0.6 2.5z"/><path class="f" d="m263.8 40.5c-0.2 1.4-0.4 2.5-0.4 2.5 0 0 0.1-1.1 0.3-2.6 0.2-1.4 0.3-2.5 0.4-2.5 0 0-0.2 1.1-0.3 2.6z"/><path class="f" d="m273.4 43.3c-0.6 1.3-1.1 2.3-1.1 2.3 0 0 0.5-1 1.1-2.3 0.6-1.3 1.1-2.4 1.2-2.4 0 0-0.5 1.1-1.1 2.4z"/><path class="f" d="m281.7 49.1c-1 1-1.9 1.8-1.9 1.8 0 0 0.8-0.8 1.8-1.8 1.1-1.1 1.9-1.9 1.9-1.9 0 0-0.8 0.9-1.8 1.9z"/><path class="f" d="m287.6 57.3c-1.3 0.6-2.4 1.1-2.4 1.1 0 0 1-0.5 2.4-1.2 1.3-0.6 2.3-1.1 2.3-1.1 0 0-1 0.5-2.3 1.2z"/><path class="f" d="m290.5 66.9l-2.6 0.3c0 0 1.2-0.2 2.6-0.3 1.4-0.2 2.6-0.4 2.6-0.3 0 0-1.2 0.1-2.6 0.3z"/><path class="f" d="m309 63.5q-0.2 0.6-0.4 1.2-0.3 0.6-0.6 1.3-0.2 0.6-0.5 1.2-0.3 0.6-0.6 1.1l-0.1 0.2-0.2 0.4-0.2-0.4q-0.4-0.5-0.8-1.1-0.3-0.5-0.7-1.1-0.3-0.6-0.6-1.1-0.3-0.6-0.5-1.2 0.4 0.5 0.8 1 0.4 0.5 0.8 1 0.4 0.5 0.7 1.1 0.4 0.5 0.7 1.1h-0.4v-0.1q0.3-0.6 0.6-1.2 0.3-0.6 0.6-1.2 0.3-0.6 0.7-1.1 0.3-0.6 0.7-1.1z"/><path class="a" d="m79 359.2c0 0 25.3 11.4 51.7 11.4 24.4 0 50.3-12.3 50.3-12.3z"/><path fill-rule="evenodd" class="a" d="m123 359.4h10.5v109.6h-10.5z"/><path fill-rule="evenodd" class="a" d="m81.8 462.5h92.8v6.5h-92.8z"/><path class="f" d="m93.2 471.1c0 2.8-1.8 5.4-4.4 6.5-2.7 1.1-5.7 0.5-7.7-1.5-2.1-2-2.7-5.1-1.6-7.7 1.1-2.7 3.7-4.4 6.6-4.4q1.4 0 2.7 0.5 1.3 0.6 2.3 1.6 1 1 1.5 2.3 0.6 1.3 0.6 2.7z"/><path class="f" d="m134.4 471.1c0 2.8-1.7 5.4-4.4 6.5-2.6 1.1-5.7 0.5-7.7-1.5-2-2-2.6-5.1-1.5-7.7 1.1-2.7 3.7-4.4 6.5-4.4q1.4 0 2.7 0.5 1.3 0.6 2.3 1.6 1 1 1.6 2.3 0.5 1.3 0.5 2.7z"/><path class="f" d="m182.2 471.1c0 2.8-1.7 5.4-4.4 6.5-2.6 1.1-5.7 0.5-7.7-1.5-2-2-2.6-5.1-1.5-7.7 1.1-2.7 3.7-4.4 6.5-4.4q1.4 0 2.7 0.5 1.3 0.6 2.3 1.6 1 1 1.6 2.3 0.5 1.3 0.5 2.7z"/><path fill-rule="evenodd" class="a" d="m116.5 398.8h14.2v5.9h-14.2z"/><path fill-rule="evenodd" class="a" d="m113.9 394.7h5.2v14.1h-5.2z"/><path class="g" d="m76.5 192.4h42.5v152.8h-54.1v-141.2c0-1.5 0.3-3 0.9-4.4 0.6-1.4 1.4-2.7 2.5-3.8 1.1-1.1 2.4-1.9 3.8-2.5 1.4-0.6 2.9-0.9 4.4-0.9z"/><path class="f" d="m76.9 342.9c-0.2 0-0.3-33.1-0.3-74 0-40.9 0.1-74.1 0.3-74.1 0.1 0 0.2 33.2 0.2 74.1 0 40.9-0.1 74-0.2 74z"/><path class="g" d="m64.9 344.9h133.8v16.7h-125.8q-1.6-0.1-3.1-0.7-1.5-0.6-2.6-1.7-1.1-1.1-1.7-2.6-0.6-1.5-0.6-3v-8.7z"/><path class="i" d="m140.7 132l-5.8 55.3c-1 9.4-0.5 23.4 14.4 24.3 13-0.2 17.6-12.1 18.5-20.9 0.4-4.1 0.8-7.6 0.8-8 0 0 14.3 0.1 16.7-13.7 1.2-6.7 2.6-20.7 3.6-33.3 0.3-3.2 0-6.5-0.9-9.6-1-3.2-2.5-6.1-4.5-8.7-2-2.5-4.4-4.7-7.2-6.4-2.8-1.6-5.9-2.8-9.1-3.3l-1.4-0.2c-14.5-1.6-24 9.9-25.1 24.5z"/><path class="j" d="m168.6 182.6q-2.3-0.4-4.7-1.1-2.3-0.8-4.4-1.8-2.2-1.1-4.2-2.4-2-1.4-3.8-3c-1.2-1.1 2.7 10.8 16.7 11.9z"/><path class="f" d="m164.6 139.2c-0.3 0.2-1.8-1.2-4.1-1.5-2.4-0.3-4.2 0.7-4.4 0.4-0.1-0.2 0.2-0.6 1-1.1q0.4-0.2 0.8-0.4 0.4-0.1 0.9-0.2 0.5-0.1 0.9-0.1 0.5 0 0.9 0 0.5 0.1 0.9 0.2 0.5 0.1 0.9 0.3 0.4 0.2 0.8 0.5 0.3 0.2 0.7 0.6c0.7 0.6 0.8 1.2 0.7 1.3z"/><path class="f" d="m164.4 144.5q-0.1 0.4-0.3 0.7-0.2 0.3-0.5 0.6-0.3 0.2-0.6 0.3-0.4 0.1-0.8 0-0.3 0-0.6-0.2-0.4-0.2-0.6-0.4-0.2-0.3-0.3-0.7-0.1-0.3-0.1-0.7 0-0.3 0.2-0.7 0.2-0.3 0.5-0.5 0.3-0.2 0.7-0.3 0.3-0.1 0.7-0.1 0.4 0.1 0.7 0.2 0.3 0.2 0.6 0.5 0.2 0.3 0.3 0.6 0.1 0.4 0.1 0.7z"/><path class="f" d="m168.9 156q0.5-0.1 0.9-0.1 0.5 0 0.9 0 0.5 0 0.9 0 0.5 0 0.9 0c0.6 0 1.1 0 1.2-0.3q0.1-0.2 0.1-0.4 0-0.2 0-0.4 0-0.3 0-0.5-0.1-0.2-0.2-0.4l-0.9-4.4c-1.2-6.2-2-11.4-1.8-11.4 0.3-0.1 1.5 5 2.7 11.2 0.3 1.6 0.6 3 0.9 4.5q0.1 0.2 0.1 0.5 0.1 0.3 0 0.6 0 0.3 0 0.5-0.1 0.3-0.2 0.6-0.1 0.1-0.2 0.2-0.1 0.1-0.2 0.2-0.1 0.1-0.3 0.1-0.1 0.1-0.3 0.1-0.1 0-0.2 0-0.1 0-0.3 0-0.1 0-0.2 0-0.1 0-0.2 0-0.5 0-0.9-0.1-0.5 0-0.9-0.1-0.5-0.1-0.9-0.2-0.4-0.1-0.9-0.2z"/><path class="f" d="m164.4 130.3c-0.3 0.5-2.1-0.1-4.4-0.2-2.2 0-4.1 0.3-4.3-0.2-0.1-0.3 0.3-0.7 1.1-1.1q0.4-0.2 0.8-0.3 0.4-0.2 0.9-0.2 0.4-0.1 0.8-0.1 0.4-0.1 0.9 0 0.4 0 0.8 0.1 0.5 0 0.9 0.2 0.4 0.1 0.8 0.3 0.4 0.1 0.7 0.4c0.8 0.4 1.1 0.9 1 1.1z"/><path class="f" d="m186.2 136.7c-0.3 0.4-2.1-0.3-4.3-0.5-2.2-0.3-4-0.2-4.2-0.6-0.1-0.3 0.3-0.6 1.1-0.9q0.4-0.1 0.8-0.2 0.4 0 0.8-0.1 0.4 0 0.9 0 0.4 0 0.8 0.1 0.4 0 0.8 0.1 0.4 0.1 0.8 0.3 0.4 0.1 0.8 0.3 0.4 0.2 0.8 0.4c0.7 0.5 1 0.9 0.9 1.1z"/><path class="i" d="m140.1 142.4c-0.2-0.1-9.1-4.4-10.3 5.1-1.3 9.6 8.5 8.9 8.6 8.6 0-0.3 1.7-13.7 1.7-13.7z"/><path class="j" d="m135.9 152.1c0 0-0.2 0.1-0.4 0.2q-0.2 0-0.4 0-0.1 0.1-0.3 0-0.1 0-0.3 0-0.1-0.1-0.3-0.1c-1-0.5-1.6-2.3-1.4-4q0-0.3 0.1-0.6 0.1-0.3 0.2-0.6 0.1-0.3 0.2-0.6 0.1-0.2 0.3-0.5 0.1-0.2 0.2-0.4 0.2-0.2 0.4-0.3 0.1-0.2 0.4-0.3 0.2-0.1 0.4-0.1 0.2 0 0.3 0 0.1 0 0.3 0.1 0.1 0.1 0.2 0.2 0.1 0.1 0.1 0.3c0.1 0.3 0 0.5 0.1 0.5 0 0 0.2-0.2 0.2-0.6q0-0.1 0-0.1-0.1-0.1-0.1-0.2 0-0.1-0.1-0.2 0 0-0.1-0.1-0.1-0.1-0.2-0.2-0.1 0-0.2-0.1-0.1 0-0.3-0.1-0.1 0-0.2 0-0.3 0-0.6 0.1-0.3 0.1-0.5 0.3-0.3 0.2-0.5 0.4-0.2 0.2-0.3 0.5-0.2 0.3-0.4 0.6-0.1 0.3-0.3 0.6-0.1 0.3-0.1 0.7-0.1 0.3-0.2 0.6c-0.2 2 0.6 3.9 1.9 4.5q0.2 0.1 0.4 0.1 0.2 0 0.4 0 0.2 0 0.4 0 0.2-0.1 0.4-0.2c0.3-0.2 0.4-0.4 0.3-0.4z"/><path class="f" d="m166.1 162.4c0.1-0.3-1.7-1-2.9-2.9q-0.2-0.3-0.3-0.6-0.2-0.3-0.3-0.6-0.1-0.4-0.3-0.7-0.1-0.3-0.2-0.7c-0.2-0.7-0.3-1.2-0.5-1.2-0.1 0.1-0.1 0.5 0 1.3q0.1 0.4 0.2 0.8 0.1 0.4 0.2 0.7 0.1 0.4 0.3 0.7 0.1 0.4 0.3 0.7 0.2 0.4 0.5 0.7 0.2 0.3 0.5 0.5 0.3 0.3 0.6 0.5 0.4 0.2 0.7 0.4c0.7 0.4 1.1 0.4 1.2 0.4z"/><path class="f" d="m128.8 125.8c2.3-3.2 3.1-7.2 4.6-10.9 1.4-3.6 3.9-7.3 7.7-8.3h0.1c3.4-1 7.5-0.6 10 1.9 1.1-4.9 5.8-8.4 10.8-9.2 5-0.9 12.6 0.6 17.1 3 3.5 1.7 6.7 5 10.5 9.8q0.6 0.7 1.2 1.5 0.6 0.8 1.1 1.6 0.6 0.8 1.1 1.6 0.5 0.8 0.9 1.6l3.1 13.4-4.3 6.5q-0.1 0.2-0.2 0.4-0.1 0.1-0.2 0.3-0.1 0.2-0.2 0.3-0.1 0.2-0.2 0.4l-4.6 14.1c0.1-4 1.7-17.6 1.8-21.6q-2.2-0.2-4.3-0.9-2.1-0.7-4-1.9-1.9-1.1-3.6-2.5-1.7-1.5-3-3.3c-1.9-2.6-3.3-5.7-6.1-7.4-3.5-2.1-8-1.2-12-0.2l0.1-0.2q-0.7 0.3-1.5 0.7-0.8 0.3-1.5 0.8-0.7 0.4-1.4 0.9-0.7 0.5-1.3 1 0 3-0.2 5.9-0.3 2.9-0.8 5.8-0.6 2.8-1.5 5.6-0.8 2.8-2 5.5c-0.5 1.1-1.7 3.3-2.8 3.6-2.2 0.6-2.6-1.6-3.8-2.9-0.9-0.9-2.3-1.2-3.8-1.3q-0.3-1.3-0.5-2.5-0.3-1.3-0.5-2.6-0.2-1.2-0.4-2.5-0.2-1.3-0.3-2.6-0.5 0.1-1 0.2-0.5 0-1 0-0.5 0-1-0.1-0.5 0-1-0.2l1.5-2.8q-0.2 0.1-0.4 0.2-0.2 0.1-0.5 0.2-0.2 0.1-0.4 0.1-0.3 0.1-0.5 0.1-0.2 0-0.5 0-0.2-0.1-0.4-0.2-0.3-0.1-0.4-0.3-0.2-0.2-0.3-0.4c-0.3-0.8 0.3-1.6 0.8-2.2z"/><path class="g" d="m155.4 110.5q-0.2 0.2-0.4 0.3-0.2 0.1-0.4 0.3-0.2 0.1-0.3 0.3-0.2 0.1-0.4 0.3-0.5 0.4-0.9 1-0.3 0.5-0.7 1-0.3 0.6-0.5 1.2-0.3 0.6-0.5 1.2-0.1 0.4-0.2 0.9-0.1 0.4-0.2 0.8-0.1 0.5-0.1 0.9-0.1 0.5-0.2 0.9c-0.1 1.3-0.1 2.7-0.1 4.2q0 0.5-0.1 1.1 0 0.6 0 1.1-0.1 0.6-0.1 1.2-0.1 0.6-0.1 1.1-0.1 0.3-0.2 0.6 0 0.3-0.1 0.6 0 0.3-0.1 0.6-0.1 0.3-0.2 0.6-0.1 0.3-0.2 0.6-0.1 0.3-0.2 0.6-0.2 0.3-0.4 0.6-0.2 0.2-0.4 0.5-0.2 0.1-0.4 0.3-0.3 0.1-0.5 0.2-0.3 0-0.6 0-0.2 0-0.5-0.1-0.2 0-0.5-0.1-0.2-0.2-0.4-0.3-0.2-0.1-0.4-0.3-0.2-0.2-0.4-0.4-0.2-0.4-0.4-0.9-0.2-0.4-0.3-0.9-0.1-0.5-0.2-0.9-0.1-0.5-0.1-1l0.3 0.1q-0.2 0.4-0.4 0.7-0.2 0.4-0.5 0.7-0.2 0.4-0.5 0.7-0.3 0.3-0.6 0.6-0.3 0.3-0.6 0.5-0.3 0.3-0.7 0.4-0.4 0.2-0.7 0.3-0.4 0.1-0.8 0.1-0.2 0-0.4-0.1-0.2 0-0.4 0-0.1-0.1-0.3-0.2-0.2 0-0.3-0.1-0.2-0.1-0.3-0.2-0.2-0.1-0.3-0.3-0.1-0.1-0.2-0.3-0.1-0.1-0.1-0.3-0.1-0.1-0.1-0.3-0.1-0.1-0.1-0.3 0-0.2 0-0.3 0-0.2 0-0.3 0-0.2 0.1-0.3 0-0.2 0.1-0.3 0-0.1 0.1-0.2 0.1-0.1 0.2-0.2l0.2 0.1q-0.5 0.4-0.9 0.8-0.5 0.3-1.1 0.6-0.5 0.3-1 0.5-0.6 0.2-1.2 0.4 0 0-0.1 0 0 0-0.1 0 0 0 0 0-0.1 0-0.1 0 0 0 0 0 0.1 0 0.1-0.1 0.1 0 0.1 0 0 0 0.1 0 0.3-0.1 0.9-0.3 0.5-0.2 0.9-0.4 0.4-0.2 0.8-0.5 0.4-0.2 0.7-0.5 0.4-0.3 0.7-0.6l0.2 0.1q-0.2 0.2-0.3 0.5-0.2 0.2-0.2 0.5 0 0.3 0 0.6 0.1 0.2 0.2 0.5 0 0.1 0.1 0.3 0.1 0.1 0.2 0.2 0.1 0.1 0.2 0.2 0.2 0.1 0.3 0.2 0.1 0.1 0.3 0.2 0.1 0 0.3 0.1 0.2 0 0.3 0 0.2 0.1 0.4 0.1 0.3-0.1 0.7-0.1 0.4-0.1 0.7-0.3 0.3-0.1 0.7-0.3 0.3-0.2 0.5-0.5 0.3-0.3 0.6-0.6 0.2-0.4 0.5-0.7 0.2-0.3 0.4-0.7 0.2-0.3 0.4-0.7l0.3-0.4v0.4q0 0.5 0 1 0.1 0.4 0.2 0.9 0.2 0.4 0.3 0.8 0.2 0.5 0.5 0.9 0.1 0.1 0.3 0.3 0.1 0.1 0.3 0.3 0.2 0.1 0.4 0.2 0.2 0.1 0.5 0.2 0.2 0 0.4 0 0.3 0 0.5 0 0.2-0.1 0.4-0.2 0.2-0.1 0.4-0.3 0.2-0.2 0.4-0.4 0.1-0.3 0.3-0.5 0.1-0.3 0.2-0.6 0.1-0.3 0.2-0.6 0.1-0.2 0.2-0.5 0-0.3 0.1-0.6 0.1-0.3 0.1-0.6 0.1-0.3 0.1-0.6 0.1-0.6 0.2-1.1 0-0.6 0.1-1.2 0-0.5 0-1.1 0.1-0.6 0.1-1.1 0-2.2 0.2-4.2 0-0.4 0.1-0.9 0.1-0.4 0.1-0.9 0.1-0.4 0.3-0.9 0.1-0.4 0.2-0.8 0.2-0.7 0.5-1.3 0.2-0.6 0.6-1.1 0.3-0.6 0.7-1.1 0.4-0.5 0.9-1 0.2-0.2 0.4-0.3 0.2-0.2 0.4-0.3 0.2-0.1 0.4-0.3 0.2-0.1 0.4-0.2z"/><path class="g" d="m197.3 128.1l-0.1 0.1-0.4 0.2q-0.1 0-0.2 0.1 0 0-0.1 0.1-0.1 0-0.2 0 0 0.1-0.1 0.1c-0.3 0.1-0.6 0.3-0.9 0.4q-0.7 0.2-1.5 0.4-0.7 0.1-1.5 0.2-0.8 0.1-1.5 0.1-0.8-0.1-1.6-0.2-1.1-0.2-2.2-0.5-1.1-0.4-2.1-0.9-1.1-0.4-2-1.1-1-0.6-1.8-1.4-1-0.9-2-2-0.9-1-1.7-2.2-0.8-1.1-1.5-2.3-0.7-1.2-1.3-2.5c-0.8-1.8-1.5-3.6-2.2-5.2q-0.3-0.7-0.6-1.3-0.3-0.5-0.6-1.1-0.4-0.6-0.8-1.1-0.4-0.6-0.8-1.1-0.4-0.4-0.8-0.9-0.4-0.4-0.9-0.7-0.5-0.4-1-0.7-0.5-0.3-1.1-0.5-0.2-0.1-0.5-0.2-0.2 0-0.5-0.1-0.3 0-0.5-0.1-0.3 0-0.6 0-0.2 0-0.5 0-0.2 0-0.5 0-0.2 0-0.5 0.1-0.2 0-0.5 0.1-0.7 0.1-1.4 0.4-0.7 0.4-1.3 0.8-0.6 0.4-1.1 1-0.6 0.5-1 1.1-0.1 0.3-0.3 0.5-0.1 0.3-0.2 0.5-0.1 0.3-0.2 0.5-0.1 0.3-0.2 0.5 0 0 0 0 0 0 0 0 0 0 0-0.1 0 0 0 0c0-0.1 0.1-0.2 0.1-0.4q0.1-0.2 0.1-0.4 0.1-0.2 0.2-0.4 0.1-0.2 0.2-0.4 0.1-0.2 0.2-0.3 0.2-0.3 0.4-0.6 0.1-0.3 0.4-0.5 0.2-0.3 0.4-0.5 0.3-0.2 0.5-0.4 0.4-0.3 0.7-0.6 0.4-0.2 0.8-0.4 0.4-0.2 0.8-0.3 0.4-0.2 0.9-0.3 0.5-0.1 1-0.2 0.5-0.1 1.1 0 0.5 0 1 0.1 0.6 0.1 1.1 0.3 0.6 0.2 1.1 0.5 0.5 0.3 1 0.7 0.5 0.4 1 0.8 0.4 0.4 0.8 0.9 0.4 0.5 0.8 1 0.4 0.6 0.8 1.2 0.3 0.5 0.6 1.1 0.3 0.6 0.6 1.3c0.8 1.7 1.4 3.5 2.3 5.2q0.5 1.3 1.2 2.5 0.7 1.2 1.5 2.3 0.8 1.1 1.7 2.2 0.9 1 1.9 1.9 0.9 0.8 1.8 1.4 0.9 0.7 2 1.2 1 0.4 2.1 0.8 1 0.3 2.1 0.5 0.8 0.1 1.5 0.2 0.8 0 1.6 0 0.7-0.1 1.5-0.2 0.7-0.2 1.4-0.4c1.4-0.4 2.1-0.9 2.1-0.8z"/><path class="f" d="m185.8 142c-0.3 0.3-1.8-1.2-4.1-1.5-2.4-0.2-4.2 0.7-4.4 0.4-0.1-0.1 0.2-0.6 1-1.1q0.4-0.2 0.8-0.4 0.5-0.1 0.9-0.2 0.5-0.1 0.9-0.1 0.5 0 0.9 0.1 0.5 0 0.9 0.1 0.5 0.2 0.9 0.4 0.4 0.2 0.8 0.4 0.3 0.3 0.7 0.6c0.7 0.6 0.8 1.2 0.7 1.3z"/><path class="f" d="m183.8 146.3q0 0.4-0.2 0.7-0.2 0.3-0.5 0.6-0.3 0.2-0.7 0.3-0.3 0.1-0.7 0-0.4 0-0.7-0.2-0.3-0.1-0.6-0.4-0.2-0.3-0.3-0.7-0.1-0.3-0.1-0.7 0.1-0.3 0.3-0.7 0.2-0.3 0.5-0.5 0.3-0.2 0.6-0.3 0.4-0.1 0.8-0.1 0.3 0.1 0.6 0.2 0.4 0.2 0.6 0.5 0.2 0.3 0.3 0.6 0.1 0.4 0.1 0.7z"/><path class="f" d="m193 116.7c1 1.7 2.7 3.3 4.7 3.3q0.2 0 0.5-0.1 0.3 0 0.5-0.1 0.3 0 0.6-0.1 0.2 0 0.5-0.1c0.6 0.5 0.2 2.8-0.3 3.4q-0.2 0.2-0.4 0.3-0.2 0.2-0.4 0.4-0.2 0.2-0.4 0.3-0.2 0.2-0.4 0.3c2.1 1.5 4.3 1.1 6.8 0.5q-0.3 1.5-1.1 2.9-0.7 1.4-1.8 2.6-1 1.2-2.4 2-1.3 0.9-2.8 1.3-0.5 0.2-1 0.3-0.5 0.1-1 0-0.5 0-0.9-0.2-0.5-0.1-1-0.4-0.3-0.3-0.5-0.7-0.3-0.3-0.4-0.8-0.2-0.4-0.3-0.8-0.1-0.4-0.1-0.9-0.3-1.6-0.4-3.2-0.2-1.6-0.2-3.3-0.1-1.6 0-3.2 0.1-1.6 0.2-3.3z"/><path class="h" d="m167.2 195.6c0 0 8.8 3.6 13.8 15.8 3.5 8.5 23.1 35.5 23.1 35.5l52 11.6 1.8 16.6-83.3-0.7-11.5-36.8z"/><path class="h" d="m132.1 180.3l-9.2 3.8c-8.6 3.6-19.5 11.9-23.2 20.4-8.8 20.5-16.8 46.9-19.8 70.2-3.1 23.5 3 58.4 3 58.4l78.2-44.7-4.6-3.2 14.8-80.5-2.8-9.8 1.9-8.2c0 0-20.7-8.4-35.8-14.3z"/><g style="opacity:.3"><path  d="m124.7 309.8q0.4-6 0.8-12.1-0.3 0.3-0.7 0.6-0.4 0.2-0.8 0.4-0.5 0.2-0.9 0.3-0.5 0.1-1 0.1 0.8-0.6 1.5-1.4 0.6-0.7 1.3-1.5 0.6-0.8 1.2-1.6 0.6-0.8 1.2-1.7l-3.6 1.6q0.5-0.4 0.9-0.8 0.5-0.4 0.8-0.9 0.4-0.4 0.7-0.9 0.4-0.5 0.6-1c-1.9-1.5-4.6-1.3-7-1-12.3 1.2-24.8 0.4-37.2-0.5q-0.4 0-0.9-0.1-0.5 0-0.9-0.2-0.4-0.1-0.9-0.3-0.4-0.1-0.8-0.4c-0.3-0.1-0.3-3.4 0.3-4.6 0.5-1.3 1.4-0.9 2.7-1.4q0.5-0.1 1-0.3 0.5-0.1 1-0.1 0.5-0.1 1-0.2 0.5 0 1.1 0c15.1-0.8 30.2 0.4 45.2 1.7q0.4 0 0.7 0 0.4 0.1 0.7 0.2 0.3 0.1 0.7 0.2 0.3 0.1 0.6 0.3c1.2 1 1.1 2.9 0.9 4.5q-1.2 8.4-2.3 16.9"/></g><path class="f" d="m170.4 201.4q0 0.1 0 0.2 0 0.1 0 0.2 0 0.1-0.1 0.2 0 0.1 0 0.2l-0.3 2.1c-0.3 1.9-0.7 4.6-1.3 7.9-1.2 6.6-3 15.8-5 25.9-2.1 10.1-4.2 19.2-5.6 25.7-0.8 3.3-1.4 5.9-1.9 7.8q-0.3 1.4-0.5 2.1 0 0.1 0 0.2 0 0.1-0.1 0.2 0 0.1 0 0.2 0 0.1-0.1 0.2 0-0.1 0-0.2 0.1-0.1 0.1-0.2 0-0.1 0-0.2 0-0.1 0-0.2 0.2-0.8 0.5-2.1c0.3-1.9 1-4.6 1.6-7.8l5.4-25.8c2.1-10.1 3.9-19.2 5.2-25.8 0.6-3.3 1.1-6 1.5-7.9q0.2-1.3 0.4-2.1 0-0.1 0-0.2 0-0.1 0.1-0.2 0-0.1 0-0.2 0-0.1 0.1-0.2z"/><path class="f" d="m99.7 315.8q0.1-0.1 0.1-0.1 0.1-0.1 0.1-0.2 0.1 0 0.2-0.1 0 0 0.1-0.1l1.4-1.3q0.9-0.8 2.2-2c1-0.8 2-1.6 3.1-2.5 2.3-1.9 5.2-3.9 8.4-6.1 3.3-2.2 7-4.4 11-6.5 3.9-2.1 7.9-3.9 11.5-5.4 3.6-1.4 7-2.6 9.8-3.5 1.4-0.4 2.7-0.8 3.8-1.1q1.7-0.5 2.9-0.7l1.9-0.5q0.1 0 0.1 0 0.1 0 0.2 0 0.1-0.1 0.2-0.1 0.1 0 0.1 0 0 0.1-0.1 0.1-0.1 0-0.2 0 0 0.1-0.1 0.1-0.1 0-0.2 0l-1.8 0.6q-1.2 0.3-2.9 0.8c-1.1 0.3-2.4 0.7-3.8 1.2-2.8 0.9-6.1 2.1-9.7 3.6-3.6 1.5-7.5 3.3-11.5 5.4-3.9 2.1-7.6 4.3-10.9 6.4-3.3 2.1-6.1 4.2-8.4 6-1.2 0.9-2.2 1.7-3.2 2.5-0.9 0.7-1.7 1.3-2.3 1.9l-1.4 1.2q-0.1 0-0.2 0.1 0 0-0.1 0.1-0.1 0-0.1 0.1-0.1 0-0.2 0.1z"/><path class="f" d="m139.8 286.3c0.1 0.1-7.5 4.4-17 9.5-9.5 5.2-17.1 9.2-17.2 9.1-0.1-0.1 7.5-4.4 17-9.5 9.5-5.2 17.1-9.2 17.2-9.1z"/><g style="opacity:.3"><path  d="m112.4 224.6c4.8 21 19.6 39.7 39.4 48.3q-5.3-5.7-10.5-11.6-5.1-5.9-10-11.9-5-6.1-9.7-12.3-4.7-6.2-9.2-12.5z"/></g><g style="opacity:.3"><path  d="m169.1 208.6c1.9 8.9 0.5 20-4 27.9l-1.1-2.3c1.6-6.7 3.8-18.5 5.1-25.6"/></g><path class="g" d="m210.7 420.5l-9.4 28.2c0 0 25.5 19 24.3 24.4l-55.3-16.2 12.8-44.6z"/><g style="opacity:.3"><path  d="m210.7 420.5l-9.4 28.2c0 0 25.5 19 24.3 24.4l-55.3-16.2 12.8-44.6z"/></g><path class="a" d="m184.9 441.3q-0.4 0-0.8 0.2-0.4 0.1-0.8 0.4-0.3 0.3-0.5 0.7-0.2 0.4-0.2 0.8 0 0.4 0.1 0.9 0.2 0.4 0.5 0.7 0.3 0.3 0.7 0.5 0.3 0.2 0.8 0.2 0.4 0 0.9-0.2 0.4-0.1 0.7-0.4 0.4-0.4 0.6-0.8 0.2-0.4 0.2-0.8 0-0.5-0.2-0.9-0.2-0.4-0.6-0.7-0.3-0.3-0.7-0.5-0.5-0.1-0.9-0.1"/><g style="opacity:.6"><path class="b" d="m170.3 456.9l1.4-4.5 52.5 17.2c0 0 2.2 1.8 1.4 3.5z"/></g><path class="f" d="m202.3 448.7c-0.1 0.2-1.5 0-3.1 0.5-1.6 0.4-2.6 1.4-2.8 1.2-0.2-0.2 0.6-1.6 2.6-2.2 1.9-0.5 3.4 0.2 3.3 0.5z"/><path class="f" d="m207.4 452.8c0 0.2-1.3 0.4-2.6 1.2-1.2 0.9-1.9 2-2.1 1.9-0.3 0 0-1.6 1.6-2.7 1.6-1 3.2-0.7 3.1-0.4z"/><path class="f" d="m208.7 460.7c-0.3 0-0.3-1.5 0.8-2.8 1.2-1.2 2.6-1.5 2.6-1.2 0.1 0.2-1 0.8-1.8 1.9-0.9 1-1.4 2.1-1.6 2.1z"/><path class="f" d="m203.7 442c-0.2 0.2-1.3-0.5-2.9-0.9-1.5-0.3-2.8-0.2-3-0.5-0.1-0.2 1.4-0.8 3.2-0.4 1.9 0.4 2.9 1.6 2.7 1.8z"/><path class="g" d="m226.8 433.1l-1.2 29.7c0 0 29.8 11.1 30.1 16.6l-57.6-0.2-0.1-46.3z"/><path class="a" d="m207.8 460.2q-0.4 0.1-0.7 0.4-0.4 0.3-0.6 0.6-0.2 0.4-0.3 0.8-0.1 0.5 0 0.9 0.1 0.4 0.4 0.8 0.2 0.3 0.6 0.5 0.4 0.3 0.8 0.3 0.4 0.1 0.8 0 0.5-0.1 0.8-0.4 0.4-0.3 0.6-0.7 0.3-0.4 0.4-0.8 0-0.5 0-0.9-0.2-0.4-0.5-0.8-0.3-0.3-0.7-0.5-0.4-0.2-0.9-0.2-0.4-0.1-0.9 0.1"/><g style="opacity:.6"><path class="b" d="m198.1 479.2l0.2-4.6 55.2 1.9c0 0 2.5 1.1 2.2 2.9z"/></g><path class="f" d="m226.6 462.5c0 0.3-1.4 0.4-2.8 1.3-1.4 0.9-2.2 2.1-2.4 2-0.3-0.1 0.2-1.8 1.9-2.8 1.7-1.1 3.3-0.8 3.3-0.5z"/><path class="f" d="m232.6 465c0.1 0.3-1.1 0.7-2.1 1.9-1 1.2-1.2 2.5-1.5 2.5-0.3-0.1-0.5-1.6 0.7-3.1 1.3-1.5 2.9-1.6 2.9-1.3z"/><path class="f" d="m236 472.2c-0.3 0.1-0.6-1.3 0.1-2.8 0.7-1.6 2-2.2 2.1-2 0.2 0.3-0.6 1.1-1.2 2.4-0.6 1.2-0.7 2.4-1 2.4z"/><path class="f" d="m226.1 455.7c-0.1 0.2-1.4-0.1-3 0-1.6 0.1-2.8 0.6-3 0.3-0.2-0.2 1-1.2 2.9-1.3 2-0.1 3.2 0.8 3.1 1z"/><path class="f" d="m157.8 287.8c0-0.1 69 17.9 77.6 29.9 7.3 10.1-30.8 113.3-30.8 113.3l-29.9-2.6 12.9-86.4-77.4-24.6 11.7-29.7z"/><path class="f" d="m162.7 303.9c0 0 70.6 17.2 77.8 29.4 3.3 5.7 1.1 24.3-0.1 33.2-0.9 5.9-13.3 89-13.3 89h-30.6l0.7-93.9-73.4-14.8c0 0-39.3 3-40.9-13.8l16.5-22.2 38.8-19.2z"/><path class="g" d="m157.3 301.8q0.1 0 1 0.2l3 0.9 11.6 3.2c5 1.4 11.1 3.1 18.2 5.2 7 2.1 15 4.6 23.7 7.9q6.6 2.5 13.5 5.6l3.5 1.6q0.5 0.2 0.9 0.4 0.4 0.2 0.9 0.5 0.4 0.2 0.8 0.5 0.4 0.2 0.8 0.5 0.5 0.2 0.9 0.5 0.4 0.3 0.8 0.6 0.4 0.3 0.8 0.6 0.4 0.4 0.8 0.7 0.3 0.3 0.7 0.7 0.4 0.4 0.7 0.8 0.3 0.4 0.6 0.8 0.3 0.5 0.5 0.9c2.4 10.8 1 22.7-0.8 34.7-0.8 6.1-1.8 12.3-2.7 18.7-0.9 6.3-1.9 12.8-2.9 19.4-2 13.3-4 26.9-6.1 40.9q-0.6 4-1.2 7.9v0.3h-31v-0.3c0.3-35.6 0.5-67.8 0.7-93.9l0.2 0.2-52.2-10.6-14.2-2.9-3.7-0.8q-1.3-0.2-1.3-0.3l1.3 0.3 3.7 0.7 14.3 2.8 52.1 10.4h0.2v0.2c-0.2 26.1-0.4 58.3-0.6 93.9l-0.3-0.3h30.6l-0.3 0.2q0.6-3.9 1.2-7.9l6.1-40.9q1.5-9.9 2.9-19.4c1-6.4 2-12.6 2.7-18.7q0.7-4.5 1.3-9 0.1-1.1 0.2-2.2 0.2-1.1 0.3-2.2 0.1-1.1 0.1-2.2 0.1-1.1 0.1-2.2 0.2-4.3 0-8.5 0-2.1-0.2-4.2 0-0.5-0.1-1 0-0.5-0.1-1-0.1-0.5-0.3-1-0.1-0.5-0.3-0.9-0.3-0.5-0.5-0.9-0.3-0.4-0.6-0.8-0.3-0.4-0.7-0.8-0.3-0.3-0.7-0.6-0.4-0.4-0.7-0.7-0.4-0.3-0.8-0.6-0.4-0.3-0.8-0.6-0.4-0.2-0.8-0.5-0.5-0.3-0.9-0.5-0.4-0.3-0.8-0.5-0.4-0.2-0.9-0.5-0.4-0.2-0.8-0.4l-3.5-1.6q-7-3.1-13.5-5.6c-8.6-3.3-16.6-5.8-23.7-8-7-2.1-13.2-3.8-18.2-5.3l-11.5-3.2-3-0.9q-0.9-0.3-1-0.3z"/><path class="i" d="m255.1 259.3c0.5-0.7 6.3-7.4 7.9-7.4 1.6 0 3.4 1.8 3.4 1.8q0.4-0.2 0.8-0.3 0.4-0.1 0.8-0.2 0.4 0 0.9 0 0.4 0 0.8 0.1c1.4 0.4 7.7 5.8 7.7 7.8v3.4q0 0.3 0 0.6 0.1 0.4 0.1 0.7 0 0.4-0.1 0.7 0 0.3 0 0.7c-0.3 1.5-4 4.2-4 4.2h-21.6c0 0-4.1-2.7-3.6-5.4 0.5-2.6 6.9-6.7 6.9-6.7z"/><path class="j" d="m266.4 253.7q0.1 0.1 0.3 0.2 0.2 0.1 0.3 0.2 0.2 0 0.4 0.1 0.1 0.2 0.3 0.3l3.6 2.2q0.1 0.1 0.3 0.2 0.1 0.1 0.3 0.2 0.1 0.1 0.3 0.2 0.1 0.1 0.2 0.2 0.2 0.1 0.3 0.3 0.1 0.2 0.3 0.3 0.1 0.2 0.2 0.4 0 0.2 0.1 0.3 0.1 0.3 0.1 0.5 0 0.2 0.1 0.4 0 0.2 0 0.4 0 0.2 0 0.4l0.1 1.7c0.1 2.4 0.2 5 0.4 7.7v1.2 0.2l-0.2 0.1-1.3 0.3h-0.1q-0.2 0-0.4-0.1-0.3 0-0.5-0.1-0.2-0.1-0.4-0.2-0.2-0.1-0.4-0.3-0.1-0.1-0.3-0.2-0.1-0.2-0.3-0.4-0.1-0.1-0.2-0.3-0.1-0.2-0.2-0.4-0.2-0.3-0.4-0.7-0.2-0.3-0.3-0.7-0.2-0.3-0.3-0.7-0.1-0.4-0.2-0.8-0.1-0.6-0.3-1.2-0.1-0.7-0.2-1.3-0.1-0.7-0.1-1.3-0.1-0.7-0.1-1.3l0.1 0.1-3.8-1.5q-0.1 0-0.3-0.1-0.2-0.1-0.4-0.1-0.1-0.1-0.3-0.2-0.2-0.1-0.3-0.2 0.2 0.1 0.3 0.1 0.2 0.1 0.4 0.1 0.2 0.1 0.4 0.1 0.1 0.1 0.3 0.2l3.8 1.3h0.1v0.1q0.1 0.6 0.1 1.3 0.1 0.6 0.2 1.3 0.1 0.6 0.3 1.2 0.1 0.7 0.3 1.3 0.1 0.3 0.2 0.7 0.1 0.4 0.2 0.7 0.2 0.3 0.3 0.7 0.2 0.3 0.4 0.6 0.1 0.4 0.4 0.7 0.2 0.3 0.5 0.5 0.3 0.2 0.7 0.3 0.3 0.2 0.7 0.2l1.3-0.3-0.2 0.3-0.1-1.3c-0.1-2.7-0.2-5.2-0.3-7.6q0-0.9-0.1-1.7 0-0.2 0-0.4 0-0.2 0-0.4 0-0.2 0-0.4-0.1-0.2-0.1-0.4-0.1-0.1-0.1-0.3-0.1-0.2-0.2-0.3-0.1-0.2-0.2-0.3-0.1-0.1-0.2-0.2-0.2-0.2-0.3-0.3-0.2-0.1-0.3-0.2-0.1-0.1-0.3-0.2-0.1-0.1-0.3-0.2l-3.4-2.3q-0.2-0.1-0.3-0.2-0.2-0.1-0.4-0.2-0.1-0.1-0.3-0.3-0.1-0.1-0.2-0.2z"/><path class="j" d="m251.8 270.6q0.2 0 0.3 0 0.2-0.1 0.4-0.1 0.2 0 0.4 0 0.1 0 0.3 0l3.9-0.4h0.1q0.6 0.2 1.1 0.3 0.6 0.1 1.1 0.2 0.6 0.1 1.1 0.2 0.6 0.1 1.1 0.1 0.4 0.1 0.7 0.1 0.3 0.1 0.6 0.1 0.4 0 0.7 0 0.3 0.1 0.6 0.1 0.3 0 0.7 0 0.3 0 0.6-0.1 0.3-0.1 0.6-0.3 0.3-0.1 0.5-0.3 0.1-0.2 0.2-0.3 0-0.2 0.1-0.3 0-0.2 0.1-0.4 0-0.2 0-0.3c0-0.5-0.1-1-0.1-1.6q0-0.1-0.1-0.3 0-0.1-0.1-0.3-0.1-0.1-0.2-0.2-0.1-0.1-0.2-0.3-0.1-0.1-0.2-0.2-0.2-0.1-0.3-0.2-0.1-0.1-0.3-0.2-0.1-0.1-0.3-0.2-0.5-0.2-1.1-0.4-0.5-0.2-1.1-0.3-0.6-0.1-1.2-0.1-0.6 0-1.2 0-0.4 0.1-0.8 0-0.5-0.1-0.9-0.2-0.4-0.2-0.7-0.4-0.4-0.3-0.6-0.6c-0.5-0.7-0.5-1.2-0.4-1.1q0 0.1 0.1 0.2 0 0.2 0.1 0.3 0.1 0.1 0.2 0.2 0 0.1 0.1 0.3 0.3 0.2 0.6 0.5 0.4 0.2 0.8 0.3 0.3 0.1 0.7 0.2 0.4 0 0.8 0 0.6-0.1 1.3-0.1 0.6 0 1.2 0.1 0.6 0.1 1.2 0.3 0.6 0.1 1.2 0.4 0.1 0.1 0.3 0.2 0.1 0.1 0.3 0.2 0.1 0.1 0.3 0.2 0.1 0.2 0.3 0.3 0.1 0.1 0.2 0.3 0.2 0.2 0.3 0.3 0 0.2 0.1 0.4 0.1 0.2 0.1 0.4c0 0.5 0.1 1 0.1 1.6q0 0.2 0 0.4-0.1 0.2-0.1 0.4-0.1 0.2-0.2 0.4-0.1 0.2-0.2 0.4-0.1 0.2-0.3 0.3-0.1 0.1-0.3 0.2-0.2 0.1-0.4 0.2-0.2 0-0.3 0.1-0.2 0-0.4 0-0.2 0-0.4 0.1-0.1 0-0.3 0-0.2 0-0.4 0c-0.9 0-1.8-0.2-2.6-0.3q-0.6-0.1-1.1-0.1-0.6-0.1-1.2-0.3-0.5-0.1-1.1-0.2-0.5-0.1-1.1-0.3h0.1l-4 0.2q-0.1 0-0.3 0-0.2 0-0.4 0-0.2 0-0.4 0-0.1 0-0.3-0.1z"/><path class="j" d="m273.7 270.6q0.2-0.5 0.4-1 0.2-0.5 0.4-1 0.3-0.5 0.5-1 0.2-0.5 0.5-0.9 0.2-0.6 0.4-1 0.2-0.5 0.5-1 0.2-0.5 0.5-0.9 0.3-0.5 0.6-0.9-0.2 0.5-0.3 1-0.2 0.5-0.4 1-0.2 0.5-0.4 1-0.2 0.5-0.4 0.9-0.2 0.6-0.5 1.1-0.2 0.4-0.5 0.9-0.3 0.5-0.6 0.9-0.3 0.5-0.7 0.9z"/><path class="f" d="m227 275.1l77.7 1 25-70.1q0.2-0.6 0.2-1.1 0-0.6-0.2-1.1-0.3-0.5-0.7-0.9-0.3-0.4-0.9-0.7-0.5-0.2-1.1-0.2-0.7 0-1.2 0.2-0.6 0.2-1 0.7-0.4 0.4-0.7 1l-24.6 66.4-72.6 0.7q-0.4 0-0.7 0.2-0.4 0.1-0.7 0.4-0.3 0.3-0.4 0.7-0.2 0.3-0.2 0.7 0 0.5 0.2 0.8 0.1 0.4 0.4 0.7 0.3 0.3 0.7 0.5 0.4 0.1 0.8 0.1z"/><path class="h" d="m111.2 223c0 0 38 51.7 43.9 51.7h55.5v-21l-42-9.9c0 0-20.6-42.7-25.2-48.2-4.6-5.5-16.8-12.8-25.9-4.6-9.1 8.2-6.3 32-6.3 32z"/><path class="i" d="m210.5 255.7l9.1-0.7c0 0 0.2-3.4 2.2-4.6 2-1.1 1.8-3.7 3-3.5q0.2 0 0.5 0 0.2 0.1 0.5 0.1 0.3 0 0.5-0.1 0.3 0 0.5 0l7.5-6.4 6.4-4.1 5-1c0 0 3 0.8 0 3.5l-3.2 1.8-2.8 2.8 6.4-3.1q0.2-0.1 0.4-0.2 0.3 0 0.5 0 0.2 0 0.5 0 0.2 0.1 0.4 0.2 0.7 0.3 1.3 0.6 0.6 0.3 1.2 0.6 0.7 0.4 1.3 0.7 0.5 0.4 1.1 0.8 0.2 0.2 0.3 0.5 0.2 0.2 0.2 0.5 0 0.3-0.2 0.6-0.1 0.2-0.3 0.4l2.8 2.4c0 0 0.6 3.2-2.6 2.4l-2.6-0.6-3.4 3.3c0 0 11.5-2.4 12.3-2 0.8 0.4 1.8 2.2 0 3.8-1.8 1.6-8.7 1.2-10.3 2.8-1.6 1.5-12.1 11.1-14.7 11.7-2.5 0.6-23.7 5.8-23.7 5.8z"/><path class="j" d="m255.5 247.5q-0.2-0.2-0.4-0.3-0.2-0.1-0.4-0.3-0.2-0.1-0.4-0.2-0.2-0.2-0.4-0.3c-0.4-0.4-1-0.8-1.6-1.2q-0.5-0.4-1-0.7-0.1-0.1-0.3-0.2-0.1 0-0.2-0.1-0.2 0-0.3-0.1-0.1 0-0.3 0-0.3 0-0.6 0.1-0.3 0.1-0.5 0.2-0.3 0.1-0.6 0.3-0.2 0.1-0.5 0.3-1 0.6-1.8 1-0.2 0.1-0.4 0.3-0.2 0.1-0.4 0.2-0.2 0.1-0.4 0.2-0.2 0.1-0.5 0.2 0.2-0.2 0.4-0.3 0.1-0.2 0.3-0.4 0.2-0.1 0.4-0.2 0.2-0.2 0.4-0.3 0.7-0.5 1.8-1.1 0.5-0.3 1-0.6 0.2-0.1 0.4-0.2 0.1-0.1 0.3-0.1 0.2-0.1 0.3-0.1 0.2 0 0.4 0 0-0.1 0.1-0.1 0 0 0.1 0 0.1 0 0.1 0 0.1 0 0.1 0.1 0.1 0 0.1 0 0 0 0.1 0 0 0 0.1 0.1 0 0 0 0 0.1 0 0.2 0.1 0.1 0 0.1 0 0.1 0.1 0.2 0.1 0.1 0.1 0.1 0.1 0.6 0.4 1 0.7 1 0.7 1.7 1.3c0.9 0.8 1.4 1.4 1.3 1.5z"/><path class="j" d="m227.7 246.1c0 0.1-0.9 0.9-2 2-1.2 1.1-2 1.9-2.2 1.8q0.2-0.3 0.4-0.6 0.2-0.3 0.4-0.6 0.2-0.2 0.5-0.5 0.2-0.3 0.5-0.5 0.2-0.3 0.5-0.5 0.3-0.2 0.6-0.4 0.3-0.2 0.6-0.4 0.3-0.2 0.7-0.3z"/><path class="f" d="m143.4 195.6q0.3 0.4 0.6 0.8 0.3 0.4 0.6 0.8 0.3 0.4 0.5 0.8 0.3 0.4 0.5 0.8c1.3 2.2 3.2 5.4 5.4 9.6 4.5 8.4 10.6 20.5 17.8 35.3l-0.1-0.1 41.9 9.8h0.2v21.6h-2.7-47.2-5.3q-0.1 0-0.2 0-0.1 0-0.2 0-0.1 0-0.2 0 0 0-0.1 0-0.1 0-0.2 0-0.1-0.1-0.2-0.1-0.1 0-0.1-0.1-0.1 0-0.2 0-0.2-0.1-0.3-0.2-0.2-0.1-0.3-0.2-0.2-0.1-0.3-0.2-0.2-0.1-0.3-0.2-0.3-0.2-0.5-0.4-0.3-0.2-0.5-0.4-0.3-0.2-0.5-0.4-0.3-0.2-0.5-0.5-0.9-0.8-1.8-1.7-0.9-0.9-1.8-1.8-0.8-0.9-1.7-1.8-0.8-1-1.6-1.9c-4.3-4.8-8-9.5-11.5-13.8-6.8-8.6-12.1-15.7-15.8-20.6l-4.2-5.6q-0.6-1-1-1.5c-0.3-0.4-0.4-0.6-0.4-0.6q0 0 0.4 0.5l1.1 1.5 4.3 5.6c3.7 4.9 9.1 11.9 15.9 20.5 3.5 4.2 7.3 8.9 11.5 13.7q0.8 1 1.7 1.9 0.8 0.9 1.7 1.8 0.8 0.9 1.7 1.8 0.9 0.8 1.8 1.7 0.3 0.2 0.5 0.4 0.2 0.2 0.5 0.4 0.2 0.2 0.5 0.4 0.3 0.2 0.5 0.4 0.1 0.1 0.3 0.2 0.1 0.1 0.2 0.2 0.2 0 0.3 0.1 0.2 0.1 0.3 0.2 0.1 0 0.3 0.1 0.1 0 0.3 0 0.1 0.1 0.3 0.1 0.1 0 0.3 0h5.4 47.1 2.5l-0.3 0.2c0-7.2 0-14.2 0-21l0.2 0.3-41.9-10h-0.1l-0.1-0.1c-7.1-14.8-13.2-27-17.6-35.4-2.2-4.2-4-7.4-5.3-9.6-0.7-1.1-1.1-2-1.5-2.5-0.4-0.5-0.6-0.8-0.6-0.8z"/><path class="f" d="m137.9 192.2c0 0.1-1.3-0.4-3.4-0.9q-0.5-0.1-1-0.2-0.4-0.1-0.9-0.1-0.5-0.1-0.9-0.2-0.5 0-1-0.1-0.6 0-1.2 0-0.6 0-1.1 0-0.6 0-1.2 0-0.6 0-1.2 0-0.6 0.1-1.1 0.2-0.6 0.1-1.2 0.2-0.6 0.1-1.1 0.2-0.6 0.1-1.2 0.3-0.4 0.1-0.9 0.3-0.4 0.1-0.9 0.3-0.4 0.1-0.9 0.3-0.4 0.2-0.9 0.4c-2 0.8-3.1 1.6-3.2 1.5q0.1-0.1 0.2-0.2 0.1-0.1 0.2-0.1 0.1-0.1 0.2-0.2 0.1 0 0.2-0.1 0.3-0.2 0.6-0.4 0.2-0.1 0.5-0.3 0.3-0.1 0.6-0.3 0.3-0.1 0.6-0.3 0.4-0.2 0.9-0.4 0.4-0.2 0.9-0.4 0.4-0.1 0.9-0.3 0.4-0.1 0.9-0.3 0.6-0.1 1.2-0.3 0.5-0.1 1.1-0.2 0.6-0.1 1.2-0.2 0.6-0.1 1.2-0.2 0.6 0 1.2-0.1 0.6 0 1.2 0 0.6 0 1.2 0 0.5 0.1 1.1 0.1 0.5 0.1 1 0.1 0.5 0.1 1 0.2 0.4 0.1 0.9 0.2 0.5 0.1 1 0.2 0.3 0.1 0.6 0.2 0.3 0.1 0.6 0.2 0.3 0.1 0.6 0.2 0.3 0.1 0.6 0.3c0.6 0.2 0.9 0.4 0.9 0.4z"/><path class="f" d="m161 253.4q0.2-0.7 0.5-1.4 0.3-0.6 0.7-1.2 0.3-0.6 0.7-1.2 0.5-0.6 0.9-1.1 0.4-0.6 0.9-1.1 0.5-0.6 1-1 0.5-0.5 1.1-1 0.6-0.4 1.2-0.8c0.1 0.2-1.9 1.8-3.8 4.2-1.9 2.4-3 4.6-3.2 4.6z"/><path class="f" d="m159.7 246.9q0.8-0.7 1.7-1.2 0.9-0.6 1.9-0.9 1-0.4 2.1-0.5 1-0.2 2.1-0.2c0 0.2-1.9 0.4-4 1.2-2.2 0.8-3.7 1.8-3.8 1.6z"/><path class="g" d="m195.4 354.8c-0.8-1.7-2.8-2.4-4.5-3-35-11.3-72.5-16.7-108.6-10.1-4.3 0.7-8.8 1.8-12.2 4.5-3.5 2.8-5.6 7.8-3.7 11.8l7.4 2.4q13.8-1.6 27.8-2.3 13.9-0.7 27.8-0.6 14 0.1 27.9 1 13.9 0.9 27.7 2.7c2.5 0.3 5.1 0.6 7.4-0.4 2.3-1 4-3.8 3-6z"/><path class="f" d="m154.8 343.2q0 0 0 0-0.1 0-0.1 0 0 0-0.1 0 0 0 0 0l-0.7-0.1-2.6-0.4c-2.2-0.3-5.5-0.8-9.5-1.3q-3.9-0.5-7.9-0.8-3.9-0.3-7.9-0.5-4-0.2-7.9-0.2-4-0.1-8 0-4.6 0.1-9 0.4c-2.8 0.3-5.7 0.4-8.4 0.7q-0.1 0-0.2 0-0.1 0-0.3 0-0.1 0-0.2 0-0.1 0-0.3 0-0.1-0.1-0.2-0.1-0.1 0-0.2 0-0.1 0-0.3 0-0.1 0-0.2 0.1-0.2 0-0.5 0-0.2 0-0.4 0.1-0.3 0-0.5 0-0.2 0.1-0.5 0.1l-3.6 0.8q-3.5 0.8-6.4 1.7-1.1 0.4-2.3 0.8-1.1 0.4-2.2 0.9-1 0.5-2.1 1.1-1 0.6-2.1 1.2c-1 0.6-1.6 1.2-2.1 1.5l-0.5 0.5q-0.2 0.1-0.2 0.1l0.1-0.2 0.5-0.4q0.3-0.3 0.5-0.5 0.3-0.2 0.6-0.4 0.2-0.2 0.5-0.4 0.3-0.2 0.5-0.3 1-0.7 2.1-1.3 1-0.6 2.1-1.1 1.1-0.6 2.2-1 1.1-0.5 2.3-0.8 0.8-0.3 1.6-0.6 0.8-0.2 1.6-0.4 0.8-0.3 1.6-0.5 0.8-0.2 1.6-0.3l3.6-0.8q0.3-0.1 0.5-0.1 0.3-0.1 0.5-0.1 0.3-0.1 0.5-0.1 0.3 0 0.5 0 0.2-0.1 0.3-0.1 0.1 0 0.2 0 0.2 0 0.3 0 0.1 0 0.2 0.1 0.2 0 0.3 0 0.1 0 0.2 0 0.2 0 0.3 0 0.1 0 0.2 0c2.7-0.3 5.5-0.5 8.4-0.7 2.9-0.2 6-0.4 9-0.4q4-0.1 8-0.1 3.9 0.1 7.9 0.3 3.9 0.2 7.9 0.5 3.9 0.4 7.8 0.9c4 0.5 7.3 1.1 9.6 1.5l2.5 0.5 0.7 0.1z"/><path class="g" d="m67.3 286.3l59.5 2.1q0.3 0 0.6 0.1 0.3 0.2 0.5 0.4 0.2 0.2 0.3 0.5 0.1 0.3 0 0.7l-8.5 71.4h13.4l6.9-78.6q0.1-1-0.2-1.9-0.2-1-0.9-1.7-0.6-0.7-1.5-1.2-0.8-0.4-1.8-0.4l-69.9-2.5z"/><path fill-rule="evenodd" class="g" d="m383.7 281.1h-9.3v2.1l20.5 196.3h9.6l-20.8-198.4z"/><path fill-rule="evenodd" class="g" d="m175.4 281.1h9.3v2.1l-19.1 196.2h-9.6l19.4-198.3z"/><path class="f" d="m175.4 281.1c0 0 0 0.3-0.1 1 0 0.6-0.1 1.7-0.2 3-0.3 2.6-0.7 6.5-1.1 11.5-1 10-2.4 24.4-4.1 42.3-3.5 35.8-8.3 85.3-13.6 140.5l-0.3-0.3h9.6l-0.3 0.3c9.1-92.2 16.8-170.3 19.4-196.2 0-1 0-1.6 0-2.2v0.1h-7-1.7-0.6 0.6 1.7 7.1c0 0.6 0 1.2 0 2.2-2.5 25.9-10 104-19 196.2v0.2h-10.1v-0.3c5.5-55.2 10.4-104.8 13.9-140.6 1.8-17.9 3.2-32.3 4.2-42.3q0.8-7.5 1.2-11.4 0.2-1.9 0.3-3c0.1-0.7 0.1-1 0.1-1z"/><path fill-rule="evenodd" class="g" d="m153 274.7h267v8.4h-267z"/><path class="f" d="m391.6 283.2c0 0.1-53.3 0.2-118.9 0.2-65.6 0-118.9-0.1-118.9-0.2 0-0.2 53.3-0.3 118.9-0.3 65.7 0 118.9 0.1 118.9 0.3z"/></svg>