<svg version="1.2" xmlns="http://www.w3.org/2000/svg" viewBox="0 0 500 500" width="500" height="500"><style>.a{fill:#ebebeb}.b{fill:#f5f5f5}.c{fill:#e6e6e6}.d{fill:#fafafa}.e{fill:#263238}.f{fill:#c98069}.g{opacity:.2}.h{fill:#fff}.i{opacity:.6;fill:#fff}.j{opacity:.5;fill:#c98069}.k{opacity:.4;fill:#c98069}.l{fill:#ffb573}.m{opacity:.4}.n{fill:#ed893e}.o{opacity:.9;fill:#fff}.p{opacity:.2;fill:#c98069}.q{opacity:.3;fill:#c98069}</style><rect width="500" height="500" style="fill:#f4e8d3"/><path fill-rule="evenodd" class="a" d="m0 382.4h500v0.3h-500z"/><path class="a" d="m237 337.8h-193.1q-1.1 0-2.2-0.4-1-0.5-1.8-1.3-0.8-0.8-1.3-1.8-0.4-1.1-0.4-2.2v-271.4q0-1.2 0.5-2.2 0.4-1 1.2-1.8 0.8-0.8 1.8-1.3 1.1-0.4 2.2-0.4h193.1q1.1 0 2.2 0.4 1 0.5 1.8 1.3 0.8 0.8 1.3 1.8 0.4 1.1 0.4 2.2v271.4q0 1.1-0.4 2.2-0.5 1-1.3 1.8-0.8 0.8-1.8 1.3-1.1 0.4-2.2 0.4zm-193.1-282.6q-1.1 0-2.1 0.4-1 0.4-1.7 1.2-0.8 0.8-1.2 1.8-0.4 1-0.4 2.1v271.4q0 1.1 0.4 2.1 0.4 1 1.2 1.7 0.7 0.8 1.7 1.2 1 0.4 2.1 0.5l193.1-0.1q1.1 0 2.1-0.4 1-0.4 1.8-1.2 0.7-0.7 1.1-1.7 0.5-1 0.5-2.1v-271.4q0-1.1-0.5-2.1-0.4-1-1.1-1.8-0.8-0.8-1.8-1.2-1-0.4-2.1-0.4z"/><path class="a" d="m453.3 337.8h-193.1q-1.1 0-2.2-0.4-1-0.5-1.8-1.3-0.8-0.8-1.3-1.8-0.4-1.1-0.4-2.2v-271.4q0-1.2 0.5-2.2 0.4-1 1.2-1.8 0.8-0.8 1.8-1.3 1.1-0.4 2.2-0.4h193.1q1.1 0 2.2 0.4 1 0.5 1.8 1.3 0.8 0.8 1.3 1.8 0.4 1 0.4 2.2v271.4q0 1.1-0.4 2.2-0.5 1-1.3 1.8-0.8 0.8-1.8 1.3-1.1 0.4-2.2 0.4zm-193.1-282.6q-1.1 0-2.1 0.4-1 0.4-1.7 1.2-0.8 0.8-1.2 1.8-0.4 1-0.5 2.1v271.4q0.1 1.1 0.5 2.1 0.4 1 1.2 1.7 0.7 0.8 1.7 1.2 1 0.4 2.1 0.4h193.1q1.1 0 2.1-0.4 1-0.4 1.8-1.2 0.7-0.7 1.2-1.7 0.4-1 0.4-2.1v-271.4q0-1.1-0.4-2.1-0.5-1-1.2-1.8-0.8-0.8-1.8-1.2-1-0.4-2.1-0.4z"/><path fill-rule="evenodd" class="a" d="m174.4 391.9h26v0.3h-26z"/><path fill-rule="evenodd" class="a" d="m52.5 389.2h54.1v0.3h-54.1z"/><path fill-rule="evenodd" class="a" d="m147.1 401.2h26.3v0.3h-26.3z"/><path fill-rule="evenodd" class="a" d="m258.2 399.5h38.9v0.3h-38.9z"/><path fill-rule="evenodd" class="a" d="m306 399.5h10.6v0.3h-10.6z"/><path fill-rule="evenodd" class="a" d="m395.4 395.3h54.5v0.3h-54.5z"/><path class="b" d="m115.6 158.7h74q1.2 0 2.2 0.4 1.1 0.4 1.8 1.2 0.8 0.8 1.3 1.9 0.4 1 0.4 2.1v218.1h-85.3v-218.1q0-1.1 0.4-2.1 0.5-1.1 1.3-1.9 0.7-0.8 1.8-1.2 1-0.4 2.1-0.4z"/><path fill-rule="evenodd" class="a" d="m117.1 171.9h11v24.5h-11z"/><path fill-rule="evenodd" class="a" d="m177.2 171.9h11v24.5h-11z"/><path fill-rule="evenodd" class="a" d="m137.1 171.9h11v24.5h-11z"/><path fill-rule="evenodd" class="a" d="m157.2 171.9h11v24.5h-11z"/><path fill-rule="evenodd" class="a" d="m117.1 210.6h11v24.4h-11z"/><path fill-rule="evenodd" class="a" d="m177.2 210.6h11v24.4h-11z"/><path fill-rule="evenodd" class="a" d="m137.1 210.6h11v24.4h-11z"/><path fill-rule="evenodd" class="a" d="m157.2 210.6h11v24.4h-11z"/><path fill-rule="evenodd" class="a" d="m117.1 249.2h11v24.5h-11z"/><path fill-rule="evenodd" class="a" d="m177.2 249.2h11v24.5h-11z"/><path fill-rule="evenodd" class="a" d="m137.1 249.2h11v24.5h-11z"/><path fill-rule="evenodd" class="a" d="m157.2 249.2h11v24.5h-11z"/><path fill-rule="evenodd" class="a" d="m117.1 287.9h11v24.5h-11z"/><path fill-rule="evenodd" class="a" d="m177.2 287.9h11v24.5h-11z"/><path fill-rule="evenodd" class="a" d="m137.1 287.9h11v24.5h-11z"/><path fill-rule="evenodd" class="a" d="m157.2 287.9h11v24.5h-11z"/><path fill-rule="evenodd" class="a" d="m117.1 326.5h11v24.5h-11z"/><path fill-rule="evenodd" class="a" d="m177.2 326.5h11v24.5h-11z"/><path fill-rule="evenodd" class="a" d="m137.1 326.5h11v24.5h-11z"/><path fill-rule="evenodd" class="a" d="m157.2 326.5h11v24.5h-11z"/><path class="b" d="m378 179h53q0.9 0 1.8 0.4 0.8 0.3 1.5 1 0.6 0.6 1 1.4 0.3 0.9 0.3 1.8v198.8h-62.2v-198.8q0-0.9 0.4-1.7 0.3-0.9 1-1.5 0.6-0.7 1.4-1 0.9-0.4 1.8-0.4z"/><path fill-rule="evenodd" class="a" d="m381.3 191h10v22.3h-10z"/><path fill-rule="evenodd" class="a" d="m399.6 191h9.9v22.3h-10z"/><path fill-rule="evenodd" class="a" d="m417.8 191h10v22.3h-10z"/><path fill-rule="evenodd" class="a" d="m381.3 226.2h10v22.2h-10z"/><path fill-rule="evenodd" class="a" d="m399.6 226.2h9.9v22.2h-10z"/><path fill-rule="evenodd" class="a" d="m417.8 226.2h10v22.2h-10z"/><path fill-rule="evenodd" class="a" d="m381.3 261.3h10v22.3h-10z"/><path fill-rule="evenodd" class="a" d="m399.6 261.3h9.9v22.3h-10z"/><path fill-rule="evenodd" class="a" d="m417.8 261.3h10v22.3h-10z"/><path fill-rule="evenodd" class="a" d="m381.3 296.5h10v22.2h-10z"/><path fill-rule="evenodd" class="a" d="m399.6 296.5h9.9v22.2h-10z"/><path fill-rule="evenodd" class="a" d="m417.8 296.5h10v22.2h-10z"/><path fill-rule="evenodd" class="a" d="m381.3 331.6h10v22.3h-10z"/><path fill-rule="evenodd" class="a" d="m399.6 331.6h9.9v22.3h-10z"/><path fill-rule="evenodd" class="a" d="m417.8 331.6h10v22.3h-10z"/><path class="b" d="m256.6 122.1h86.1q1.3 0 2.5 0.5 1.2 0.5 2.1 1.4 1 1 1.5 2.2 0.5 1.2 0.5 2.5v253.7h-99.3v-253.7q0-1.3 0.5-2.5 0.5-1.2 1.4-2.2 1-0.9 2.2-1.4 1.2-0.5 2.5-0.5z"/><path fill-rule="evenodd" class="a" d="m258.2 137.5h12.8v28.5h-12.8z"/><path fill-rule="evenodd" class="a" d="m328.2 137.5h12.8v28.5h-12.8z"/><path fill-rule="evenodd" class="a" d="m281.6 137.5h12.8v28.5h-12.8z"/><path fill-rule="evenodd" class="a" d="m304.9 137.5h12.8v28.5h-12.8z"/><path fill-rule="evenodd" class="a" d="m258.2 182.5h12.8v28.5h-12.8z"/><path fill-rule="evenodd" class="a" d="m328.2 182.5h12.8v28.5h-12.8z"/><path fill-rule="evenodd" class="a" d="m281.6 182.5h12.8v28.5h-12.8z"/><path fill-rule="evenodd" class="a" d="m304.9 182.5h12.8v28.5h-12.8z"/><path fill-rule="evenodd" class="a" d="m258.2 227.4h12.8v28.5h-12.8z"/><path fill-rule="evenodd" class="a" d="m328.2 227.4h12.8v28.5h-12.8z"/><path fill-rule="evenodd" class="a" d="m281.6 227.4h12.8v28.5h-12.8z"/><path fill-rule="evenodd" class="a" d="m304.9 227.4h12.8v28.5h-12.8z"/><path fill-rule="evenodd" class="a" d="m258.2 272.4h12.8v28.5h-12.8z"/><path fill-rule="evenodd" class="a" d="m328.2 272.4h12.8v28.5h-12.8z"/><path fill-rule="evenodd" class="a" d="m281.6 272.4h12.8v28.5h-12.8z"/><path fill-rule="evenodd" class="a" d="m304.9 272.4h12.8v28.5h-12.8z"/><path fill-rule="evenodd" class="a" d="m258.2 317.4h12.8v28.5h-12.8z"/><path fill-rule="evenodd" class="a" d="m328.2 317.4h12.8v28.5h-12.8z"/><path fill-rule="evenodd" class="a" d="m281.6 317.4h12.8v28.5h-12.8z"/><path fill-rule="evenodd" class="a" d="m304.9 317.4h12.8v28.5h-12.8z"/><path fill-rule="evenodd" class="c" d="m195.3 215.3h54.7v167.1h-54.7z"/><path fill-rule="evenodd" class="c" d="m349.3 233.2h24.1v149.2h-24.1z"/><path fill-rule="evenodd" class="c" d="m110 382.4h-47.9v-69.8l47.9-16.1v85.9z"/><path class="b" d="m421 94.4c7.8-6.6 23.8-19.3 10.1-21.1-13.2-1.8-32.6 5.9-38.8 12.7 0-6.5-3-12.6-14.7-17.6-17.8-7.7-20.6 20.2-19.7 25.3-7.2-3.4-29.8-2.8-14.2 7h79.4c0 0 16.4-10.3-2.1-6.3z"/><path class="d" d="m62.6 128c-0.1-3.7-0.5-11 6.1-12 6.3-1 10.6 3.4 9.9 7.2 3.2-3.7 7.4-7.2 14.7-10 11.2-4.3-1.3 11.6-4.2 14.5 4.7-2 13.8-1.6 2.6 3.9h-33c0 0-1.8-5.9 3.9-3.6z"/><path class="b" d="m201.1 83.9h-106.3c0 0 6.1-7.5 15.8-5.2-4.6-5.7-7-27.4 8.2-30.1 7.7-1.3 16.8 12.7 17 20 3.8-17.6 14.3-39.9 30.4-35.5 16.1 4.4 3.6 36.3 3.6 36.3 0 0 15.5-22.6 28.4-12.6 7.6 6-6.8 19.7-6.8 19.7 0 0 17.7-0.1 9.7 7.4z"/><path fill-rule="evenodd" class="b" d="m250 427.6c-107.2 0-193.9-5.1-193.9-11.4 0-6.2 86.7-11.3 193.9-11.3 107.2 0 193.9 5.1 193.9 11.3 0 6.3-86.7 11.4-193.9 11.4z"/><path class="e" d="m198.2 339.6c-5.6 0.2-10.9 2.5-14.8 6.5-3.9 4-6.1 9.3-6.1 14.9 0 5.6 2.2 11 6.1 15 3.9 4 9.2 6.3 14.8 6.4h4.3v-42.8z"/><path class="e" d="m354 339.6c-5.8-0.1-11.3 2.1-15.4 6.1-4.1 4.1-6.5 9.6-6.5 15.3 0 5.8 2.4 11.3 6.5 15.3 4.1 4 9.6 6.2 15.4 6.1h4.3v-42.8z"/><path fill-rule="evenodd" class="e" d="m283.4 382.4c-11.8 0-21.4-9.6-21.4-21.4 0-11.8 9.6-21.4 21.4-21.4 11.8 0 21.4 9.6 21.4 21.4 0 11.8-9.6 21.4-21.4 21.4z"/><path fill-rule="evenodd" class="e" d="m127.6 382.4c-11.8 0-21.4-9.6-21.4-21.4 0-11.8 9.6-21.4 21.4-21.4 11.8 0 21.4 9.6 21.4 21.4 0 11.8-9.6 21.4-21.4 21.4z"/><path fill-rule="evenodd" class="f" d="m225.5 247.7h81.1v103h-81.1z"/><path fill-rule="evenodd" class="g" d="m225.5 247.7h81.1v103h-81.1z"/><path fill-rule="evenodd" class="f" d="m387.8 273.9l0.7-0.6 3.2 3.8-0.7 0.6z"/><path fill-rule="evenodd" class="f" d="m374.6 258.5l0.8-0.7 10 11.8-0.7 0.7z"/><path class="f" d="m306.6 350.7h100.8v-44.7q0-1.2-0.2-2.5-0.3-1.2-0.7-2.3-0.4-1.2-1-2.3-0.7-1-1.5-2l-31.3-36.8q-2.5-2.9-5.6-5.2-3-2.4-6.5-4-3.5-1.6-7.3-2.4-3.7-0.8-7.6-0.8h-39.1z"/><path class="h" d="m323.1 301.8v-37.9q0-1.3 0.5-2.4 0.5-1.2 1.4-2 0.8-0.9 2-1.4 1.1-0.5 2.4-0.5h9.6q3.8 0 7.5 0.9 3.7 0.8 7.1 2.4 3.5 1.5 6.5 3.8 3 2.3 5.5 5.2l23.7 27.8q0.3 0.4 0.6 0.9 0.3 0.5 0.5 1 0.2 0.5 0.3 1 0 0.6 0 1.1 0 1.3-0.4 2.4-0.5 1.1-1.4 2-0.8 0.9-2 1.4-1.1 0.4-2.4 0.4h-55.1q-1.3 0-2.4-0.4-1.2-0.5-2-1.4-0.9-0.8-1.4-2-0.5-1.1-0.5-2.4z"/><path class="h" d="m407.4 338.6l-12.5-0.1c-0.6 0-1.3-0.1-1.9-0.5-0.6-0.3-1-0.8-1.4-1.4-0.3-0.5-0.5-1.2-0.5-1.9 0-0.6 0.1-1.3 0.5-1.9l2.1-3.8q0.2-0.4 0.6-0.8 0.3-0.3 0.8-0.6 0.4-0.3 0.9-0.4 0.5-0.1 1-0.2h10.4z"/><path fill-rule="evenodd" class="f" d="m92.6 230.3h196.1v120.4h-196.1z"/><path fill-rule="evenodd" class="i" d="m92.6 230.3h196.1v120.4h-196.1z"/><path fill-rule="evenodd" class="j" d="m145.7 332.4h33.4v7.2h-33.4z"/><path fill-rule="evenodd" class="j" d="m92.6 332.4h9.2v7.2h-9.2z"/><path fill-rule="evenodd" class="k" d="m92.6 230.3h67.8v120.4h-67.8z"/><path fill-rule="evenodd" class="k" d="m122 230.3h1.1v120.4h-1.1z"/><path fill-rule="evenodd" class="e" d="m91.6 350.7h316.8c0.9 0 1.6 0.8 1.6 1.7v5c0 0.9-0.7 1.7-1.6 1.7h-316.8c-0.9 0-1.6-0.8-1.6-1.7v-5c0-0.9 0.7-1.7 1.6-1.7z"/><path fill-rule="evenodd" class="e" d="m358.3 382.4c-11.8 0-21.4-9.6-21.4-21.4 0-11.8 9.6-21.4 21.4-21.4 11.8 0 21.4 9.6 21.4 21.4 0 11.8-9.6 21.4-21.4 21.4z"/><path fill-rule="evenodd" class="h" d="m358.3 374.8c-7.6 0-13.8-6.2-13.8-13.8 0-7.6 6.2-13.8 13.8-13.8 7.6 0 13.8 6.2 13.8 13.8-0.1 7.6-6.2 13.8-13.8 13.8z"/><path fill-rule="evenodd" class="e" d="m202.5 382.4c-11.9 0-21.4-9.6-21.4-21.4 0-11.8 9.5-21.4 21.4-21.4 11.8 0 21.3 9.6 21.3 21.4 0 11.8-9.5 21.4-21.3 21.4z"/><path fill-rule="evenodd" class="h" d="m202.5 374.8c-7.6 0-13.8-6.2-13.8-13.8 0-7.6 6.2-13.8 13.8-13.8 7.6 0 13.7 6.2 13.7 13.8 0 7.6-6.1 13.8-13.7 13.8z"/><path fill-rule="evenodd" class="f" d="m230.3 407.5l-8.5-0.1-2.3-19.7 8.5 0.1 2.3 19.7z"/><path class="e" d="m221.6 406.4l9.3 0.2q0.1 0 0.2 0 0.1 0 0.2 0.1 0.1 0.1 0.2 0.2 0 0.1 0 0.3l0.8 7.5q0.1 0.3 0 0.6-0.1 0.3-0.3 0.5-0.2 0.2-0.5 0.3-0.3 0.1-0.6 0.1c-3.3-0.1-8.1-0.4-12.3-0.4-4.9-0.1-4.4 0.1-10.2 0-3.5-0.1-4-3.6-2.5-3.9 6.8-1.4 7.5-1.4 13.6-4.9q0.2-0.1 0.5-0.2 0.3-0.1 0.5-0.2 0.3-0.1 0.6-0.1 0.2-0.1 0.5-0.1z"/><path class="f" d="m213.3 153.5c-2.8 5.9-5.7 11.6-9.1 17.2-1.6 2.7-3.3 5.5-5.2 8.2-0.9 1.4-1.8 2.7-2.8 4.1q-1.4 2-3.1 4l-0.8 1q-0.2 0.2-0.3 0.4-0.2 0.2-0.4 0.3-0.1 0.2-0.3 0.4-0.2 0.2-0.4 0.4-0.1 0.1-0.2 0.2-0.1 0.1-0.3 0.2-0.1 0.1-0.2 0.2-0.1 0.1-0.3 0.2-0.1 0.1-0.3 0.2-0.1 0.1-0.3 0.2-0.1 0.1-0.3 0.2-0.1 0.1-0.3 0.2-0.3 0.2-0.7 0.4-0.4 0.1-0.7 0.3-0.4 0.1-0.8 0.2-0.4 0.1-0.8 0.2-0.7 0.1-1.4 0.1-0.8 0-1.5-0.1-0.7-0.1-1.4-0.2-0.7-0.2-1.4-0.5-0.4-0.2-0.9-0.4-0.4-0.3-0.8-0.5-0.5-0.3-0.9-0.6-0.4-0.3-0.8-0.6-0.5-0.5-1.1-1-0.6-0.5-1.1-1.1-0.5-0.5-1-1.1-0.5-0.6-0.9-1.2-0.4-0.5-0.8-1.1-0.4-0.5-0.7-1.1-0.4-0.5-0.7-1.1-0.4-0.5-0.7-1.1-0.6-1.1-1.2-2.2-0.6-1.1-1.2-2.2-0.5-1.1-1.1-2.3-0.5-1.1-1-2.3-0.5-1.1-0.9-2.2-0.5-1.2-0.9-2.3-0.4-1.2-0.8-2.4-0.4-1.1-0.7-2.3c-0.3-0.8-0.2-1.7 0.1-2.4 0.4-0.8 1-1.4 1.8-1.8 0.7-0.3 1.6-0.4 2.4-0.1 0.8 0.2 1.5 0.7 2 1.4v0.1q1.2 2 2.4 3.9 1.3 1.9 2.5 3.8 1.3 1.8 2.7 3.7 1.3 1.8 2.7 3.6 0.3 0.4 0.6 0.8 0.4 0.4 0.7 0.8 0.4 0.4 0.7 0.8 0.4 0.4 0.7 0.8 0.3 0.3 0.6 0.5 0.4 0.3 0.7 0.6 0.3 0.3 0.6 0.5 0.4 0.3 0.7 0.5c0.4 0.3 0.7 0.4 0.7 0.3 0 0-0.4-0.2-1-0.1q-0.2 0-0.3 0-0.2 0.1-0.3 0.1-0.2 0.1-0.3 0.2-0.2 0-0.3 0.1c-0.1 0-0.1 0.1 0.2-0.3l0.6-0.9q1.3-1.9 2.5-3.8 1.2-1.9 2.3-3.8 1.2-2 2.3-3.9 1.1-2 2.1-4c3-5.3 5.8-10.9 8.6-16.3v-0.1c0.8-1.6 2.2-2.9 4-3.5 1.7-0.6 3.7-0.5 5.3 0.3 1.7 0.8 3 2.2 3.6 4 0.6 1.8 0.5 3.7-0.4 5.3z"/><path class="e" d="m168.4 162l-2.3-9.5-8.9 3.9c0 0 0.8 7.5 7 8.4z"/><path class="e" d="m167.9 159.7c0 0 2.9 3.7 3.6 4.7-1 1-7.5 4.3-8.1 4-0.8-2.4-2-5.5-2-5.5z"/><path class="e" d="m159.5 146.5l-3.3 3.2q-0.2 0.2-0.3 0.4-0.2 0.2-0.2 0.5-0.1 0.3-0.1 0.5 0 0.3 0.1 0.6l1.5 4.6 8.9-3.8-3.6-5.7q-0.3-0.3-0.7-0.5-0.3-0.2-0.8-0.3-0.4 0-0.8 0.1-0.4 0.1-0.7 0.4z"/><path class="e" d="m164.5 157.6c-0.3-1.9 1.6-8 3.2-8.8 1.6-0.9 0.7 3.3 0.9 4.7 0.6 3.8 0.8 7.5-1.2 7.3-1.9-0.2-2.4 0.1-2.9-3.2z"/><path fill-rule="evenodd" class="g" d="m219.5 387.7l1.2 10.2 8.5 0.1-1.2-10.2-8.5-0.1z"/><path class="f" d="m206.4 142.2c16.2-2 31.8 0.1 40.4 1.8q1.3 0.2 2.4 1 1.1 0.7 1.8 1.8 0.7 1.1 1 2.4 0.2 1.3-0.1 2.6c-6.3 30.3-5.3 60.8-5.8 67.3l-45.5-0.8c-3.1-37.1-1.1-60.8 0.1-70.4q0.1-1.1 0.6-2.1 0.5-1 1.3-1.8 0.8-0.7 1.8-1.2 1-0.5 2-0.6z"/><path class="l" d="m235.2 120.7c-1.5 6.1-3.1 17.4 1.1 21.9-3.5 3.1-8.1 6.6-15.5 6.3-7.4-0.3-5.9-5.2-3.8-7.8 7-1.1 7-6.2 6-11.1z"/><path class="g" d="m230.2 124.5l-7.3 5.5q0.1 0.4 0.2 0.9 0.1 0.4 0.1 0.8 0.1 0.5 0.1 0.9 0.1 0.4 0.1 0.9c2.7-0.2 6.4-2.8 6.8-5.6q0.1-0.4 0.1-0.8 0-0.5 0-0.9 0-0.4 0-0.9 0-0.4-0.1-0.8z"/><path class="l" d="m237.2 111.5c-1.1 8.3-1.2 13.3-5.8 17.3-6.8 6-16.9 1.3-18.3-7.2-1.4-7.7 0.6-20 9-22.8 1.9-0.6 3.9-0.7 5.8-0.3 2 0.4 3.8 1.2 5.3 2.5 1.5 1.3 2.6 2.9 3.3 4.7 0.7 1.8 1 3.8 0.7 5.8z"/><path class="e" d="m237.7 118.7c-3.3 2-7.1 1-7.4-1.1-0.3-2.1 2.2-5.7 3.1-7.5-0.3-3-2.4-3.9-2-6-2.5 0.3-16 0.9-15.6-2.2 0.3-3 5.6-6.2 12-5.4 6.3 0.8 10.5 3.6 9.8 7.5 3.6-0.6 5.2 5.4 0.1 14.7z"/><path class="l" d="m240.7 120q-0.5 0.7-1 1.2-0.6 0.6-1.2 1.1-0.6 0.4-1.4 0.7-0.7 0.3-1.4 0.5c-2.8 0.6-4-1.9-3.1-4.4 0.8-2.2 3.1-5.3 5.8-4.7q0.9 0.2 1.6 0.7 0.7 0.6 1.1 1.5 0.3 0.8 0.2 1.7-0.1 1-0.6 1.7z"/><path class="f" d="m227 302.7c-0.3-42.8 9.1-83.8 9.1-83.8l-35.4-0.6c0 0 4.1 61.7 5.5 87.6 1.5 26.9 11.2 90 11.2 90l14.3 0.2c0 0-2.7-59.7-4.7-93.4z"/><path class="m" d="m227 302.7c-0.3-42.8 9.1-83.8 9.1-83.8l-35.4-0.6c0 0 4.1 61.7 5.5 87.6 1.5 26.9 11.2 90 11.2 90l14.3 0.2c0 0-2.7-59.7-4.7-93.4z"/><path class="g" d="m228.4 242.4c-10.1 13.8-5.6 39.8-1.4 58.2q0-7.6 0.4-15.2 0.3-7.6 1-15.1 0.6-7.6 1.6-15.1 0.9-7.6 2.1-15.1z"/><path fill-rule="evenodd" class="e" d="m215.4 390.3l1 5.8 15.9 0.3 0.9-5.5-17.8-0.6z"/><path class="e" d="m226 112.9c0 0.7-0.4 1.2-0.9 1.1-0.4 0-0.8-0.6-0.7-1.3 0-0.6 0.4-1.2 0.9-1.1 0.4 0 0.8 0.6 0.7 1.3z"/><path class="e" d="m217.2 111.9c0 0.7-0.4 1.2-0.9 1.2-0.4-0.1-0.8-0.7-0.7-1.3 0-0.7 0.4-1.2 0.9-1.2 0.4 0 0.7 0.6 0.7 1.3z"/><path class="n" d="m219 112.4q-0.4 0.8-0.8 1.5-0.4 0.8-0.8 1.5-0.5 0.7-1 1.3-0.5 0.7-1 1.3 0.3 0.3 0.7 0.5 0.4 0.2 0.8 0.3 0.4 0.1 0.8 0.1 0.5 0.1 0.9 0z"/><path class="e" d="m221.4 121.3q0.5 0 1.1-0.2 0.6-0.1 1.1-0.4 0.5-0.2 0.9-0.6 0.5-0.3 0.9-0.8 0-0.1 0-0.1 0-0.1-0.1-0.2 0 0-0.1 0-0.1 0-0.2 0.1-0.4 0.4-0.9 0.8-0.5 0.4-1.1 0.6-0.6 0.2-1.2 0.3-0.7 0.1-1.3 0.1-0.1-0.1-0.2 0-0.1 0.1-0.1 0.2 0 0.1 0.1 0.1 0.1 0.1 0.2 0.1 0.1 0 0.2 0 0.1 0 0.2 0 0.1 0 0.2 0 0.2 0 0.3 0z"/><path class="e" d="m227.4 110.6q0.1 0 0.1 0 0 0 0 0 0.1 0 0.1-0.1 0 0 0 0 0.1 0 0.1-0.1 0.1-0.1 0.1-0.1 0-0.1 0-0.2 0-0.1-0.1-0.1-0.2-0.5-0.6-0.8-0.3-0.3-0.7-0.6-0.4-0.2-0.9-0.4-0.4-0.1-0.9-0.1-0.1 0-0.2 0 0 0-0.1 0.1-0.1 0-0.1 0.1 0 0.1 0 0.2 0 0 0 0.1 0 0.1 0.1 0.1 0.1 0.1 0.1 0.1 0.1 0.1 0.2 0.1 0.4 0 0.7 0.1 0.4 0.1 0.7 0.3 0.3 0.2 0.6 0.5 0.3 0.3 0.5 0.6 0 0 0 0.1 0.1 0 0.1 0 0.1 0.1 0.1 0.1 0.1 0 0.1 0z"/><path class="e" d="m213.4 108.7q0 0 0.1 0 0 0 0.1 0 0 0 0.1-0.1 0 0 0 0 0.3-0.3 0.6-0.5 0.3-0.3 0.6-0.4 0.4-0.2 0.8-0.2 0.3-0.1 0.7-0.1 0.1 0 0.2 0 0 0 0.1-0.1 0.1 0 0.1-0.1 0-0.1 0.1-0.1 0-0.1-0.1-0.2 0-0.1 0-0.1-0.1-0.1-0.1-0.1-0.1-0.1-0.2-0.1-0.5 0-0.9 0.1-0.5 0-0.9 0.2-0.5 0.2-0.9 0.5-0.4 0.3-0.7 0.7 0 0 0 0.1-0.1 0.1 0 0.1 0 0.1 0 0.2 0 0.1 0.1 0.1 0 0 0 0 0.1 0.1 0.1 0.1 0 0 0 0 0.1 0 0.1 0z"/><path fill-rule="evenodd" class="f" d="m275.4 407.5l-8.5-0.1-3.5-19.7 8.5 0.1 3.5 19.7z"/><path class="e" d="m266.4 406.4l9.3 0.2q0.1 0 0.2 0 0.1 0 0.2 0.1 0.1 0.1 0.2 0.2 0 0.1 0 0.2l1.1 7.6q0 0.3 0 0.6-0.1 0.3-0.3 0.5-0.2 0.2-0.5 0.3-0.3 0.1-0.5 0.1c-3.4-0.1-4.4-0.4-8.6-0.4-4.9-0.1-2.7 0.1-8.4 0-3.5-0.1-4.2-3.6-2.7-3.9 4.7-1 5.8-2.9 7.9-4.9q0.2-0.2 0.5-0.3 0.2-0.1 0.5-0.2 0.3-0.1 0.5-0.1 0.3 0 0.6 0z"/><path class="e" d="m268.2 407.3c-1.5 0.1-2.3 0-2.7-0.7-0.4-0.6-1.7-2.6-1.6-3.3 0.1-0.7 6.1-1.3 6.7-0.2 0.6 1.2 0.6 4.1-2.4 4.2z"/><path class="e" d="m221.3 407.3c-0.9 0.1-1.4 0-1.6-0.7q-0.2-0.4-0.3-0.8-0.2-0.4-0.3-0.8-0.1-0.4-0.2-0.9-0.1-0.4-0.2-0.8c0.1-0.8 3.9-1.3 4.2-0.2 0.3 1.2 0.3 4.1-1.6 4.2z"/><path fill-rule="evenodd" class="g" d="m263.4 387.7l1.8 10.2 8.5 0.1-1.8-10.2-8.5-0.1z"/><path class="f" d="m260.8 297.6c-4-38.5-8.7-70-14.7-78.5l-30.1-0.5c0 0 17.6 60.3 24.3 85.8 7 26.4 20.8 88.9 20.8 88.9l13.7 0.2c0 0-5.7-65.8-14-95.9z"/><path class="m" d="m260.8 297.6c-4-38.5-8.7-70-14.7-78.5l-30.1-0.5c0 0 17.6 60.3 24.3 85.8 7 26.4 20.8 88.9 20.8 88.9l13.7 0.2c0 0-5.7-65.8-14-95.9z"/><path fill-rule="evenodd" class="e" d="m259.4 390.3l1.1 5.8 15.4 0.3 0.7-5.5-17.2-0.6z"/><path class="h" d="m226.2 155.1c-0.1-2.1-2.6-5-4.2-6.2 11.9-3.2 14.1-7.5 14.1-7.5q0.3 0 0.6 0.1 0.3 0.2 0.6 0.3 0.3 0.1 0.6 0.2 0.3 0.2 0.6 0.4c0.7 6.6-7.5 11.2-12.3 12.7z"/><path class="h" d="m219.2 148.8q-1 0.4-1.9 1-0.9 0.6-1.7 1.4-0.8 0.8-1.5 1.6-0.6 0.9-1.1 1.9c-5-8.8 2-13.9 2-13.9q0.3-0.1 0.6-0.2 0.2 0 0.5 0 0.3 0 0.6 0 0.3 0 0.6 0c-1.3 3 0.2 6.8 1.9 8.2z"/><path fill-rule="evenodd" class="f" d="m214.3 170.6l75.2-11.7 8.5 54.6-75.3 11.6z"/><path fill-rule="evenodd" class="o" d="m214.3 170.6l75.2-11.7 8.5 54.6-75.3 11.6z"/><path fill-rule="evenodd" class="p" d="m250.3 165l39.2-6.1 8.5 54.6-39.3 6z"/><path fill-rule="evenodd" class="q" d="m225.2 209.4l9.5-1.5 1.4 9.2-9.5 1.5z"/><path fill-rule="evenodd" class="q" d="m223.5 197.9l9.4-1.4 1.4 9.2-9.4 1.4z"/><path fill-rule="evenodd" class="j" d="m225.2 168.9l13.3-2.1 0.7 4.6-13.3 2.1z"/><path fill-rule="evenodd" class="j" d="m270.8 161.8l9.4-1.4 0.7 4.6-9.4 1.4z"/><path class="f" d="m249.2 145q2.2 1 4.3 2.1 2.1 1.2 4.2 2.3 2.1 1.2 4.1 2.5 2.1 1.2 4.1 2.6 1 0.7 2.1 1.4 1 0.7 2 1.5 1 0.7 2 1.5 0.9 0.8 1.9 1.6 0.5 0.4 1 0.9 0.5 0.5 1 1 0.5 0.4 1 0.9 0.4 0.5 0.9 1 0.3 0.4 0.5 0.7 0.3 0.3 0.5 0.6 0.2 0.3 0.5 0.6 0.2 0.4 0.4 0.7 0.3 0.4 0.6 0.9 0.2 0.4 0.4 0.9 0.3 0.4 0.5 0.9 0.1 0.5 0.3 1 0.1 0.3 0.2 0.6 0.1 0.4 0.1 0.7 0.1 0.4 0.1 0.7 0.1 0.4 0.1 0.7 0 0.1 0 0.1 0 0.1 0 0.1 0 0.1 0 0.2 0 0 0 0.1v0.3 0.7 1.4l-0.2 1.3c0 0.8-0.1 1.7-0.3 2.5-0.1 0.8-0.2 1.7-0.4 2.4-0.5 3.3-1.3 6.3-2.1 9.4q-0.6 2.3-1.3 4.5-0.6 2.3-1.4 4.5-0.7 2.2-1.6 4.5-0.8 2.2-1.7 4.3c-0.3 0.8-0.9 1.5-1.6 1.8-0.8 0.4-1.6 0.5-2.5 0.3-0.8-0.2-1.5-0.7-2-1.4-0.5-0.7-0.7-1.5-0.6-2.4v-0.1c0.8-6 1.6-12 2.3-18q0.5-4.5 0.8-8.8c0-0.7 0-1.4 0.1-2.1 0-0.7 0-1.4 0-2.1v-1-0.9-0.4-0.3c0 0 0-0.2 0-0.1q-0.1 0.1-0.1 0.2 0 0 0 0.1 0 0 0 0.1 0 0.1 0.1 0.1c0 0.1-0.2-0.1-0.4-0.4q-0.1-0.1-0.2-0.2-0.2-0.2-0.3-0.3-0.1-0.1-0.2-0.2-0.2-0.1-0.3-0.3-0.3-0.3-0.7-0.6-0.3-0.3-0.7-0.6-0.3-0.3-0.7-0.6-0.3-0.3-0.7-0.6c-2.1-1.6-4.5-3.2-6.9-4.7-4.9-3-10.2-5.8-15.4-8.6-1.6-0.8-2.8-2.3-3.4-4-0.5-1.8-0.4-3.6 0.4-5.3 0.9-1.6 2.3-2.8 4-3.4 1.7-0.6 3.6-0.5 5.2 0.2z"/><path class="e" d="m267.1 206.3l-5.1 6.9 9.6 3.6c0 0 3.9-6.9 0.6-9.5z"/><path class="e" d="m263.3 222.1l3.6 0.6q0.5 0.1 1 0 0.5-0.1 1-0.3 0.4-0.3 0.8-0.7 0.3-0.4 0.5-0.9l1.4-4-9.6-3.6-1.1 5.3q-0.1 0.6 0 1.2 0.1 0.6 0.4 1.1 0.4 0.5 0.9 0.8 0.5 0.4 1 0.5z"/><path class="e" d="m266.2 208.2c0 0 0.2-4.7 0.3-5.9 1.4-0.1 8.6 1.6 8.8 2.1-0.9 2.4-2 5.5-2 5.5z"/><path class="f" d="m241.8 110c-4.8-0.5-24.7-5.4-26.5-7.3-0.1-3.7 2-7.4 3.3-8.2 3.7-2.4 11.7-2.5 14.2-1.8 2.6 0.7 9.6 4.3 10.7 7.7 0.9 2.7-1.7 9.6-1.7 9.6z"/><path class="f" d="m221.8 101.6c-6.1-1-11.9-0.6-14 2.5-2.2 3.5 5.3-1.7 9.8 0.5 7.5 3.8 5.7 4.3 17.1 4-5.8-2.9-5.9-5.9-12.9-7z"/><path class="i" d="m221.8 101.6c-6.1-1-11.9-0.6-14 2.5-2.2 3.5 5.3-1.7 9.8 0.5 7.5 3.8 5.7 4.3 17.1 4-5.8-2.9-5.9-5.9-12.9-7z"/><path class="f" d="m235.4 115.9q0-0.1 0.1-0.2 0.1-0.1 0.1-0.2 0-0.1 0-0.2 0-0.1-0.1-0.2-0.1-0.1-0.2-0.1-0.1-0.1-0.2-0.1-0.1 0-0.2 0-0.1 0-0.2 0.1-0.8 0.5-1.5 1.1-0.8 0.6-1.5 1.2-0.7 0.6-1.4 1.2-0.7 0.7-1.4 1.4c-2.2-2.3-8.3-4.7-11.5-4.6-2.3 0-3.8-0.2-5.5 1.5-1.5 1.5-0.3 9 0.6 11.2q0.4 0.9 1 1.6 0.6 0.8 1.3 1.4 0.8 0.6 1.7 1.1 0.8 0.4 1.7 0.6c3.4 0.7 10.6 1 10.9-3.9q0.1-0.4 0.1-0.8 0.1-0.4 0.1-0.8 0.1-0.5 0.1-0.9 0.1-0.4 0.2-0.8 0.2 0 0.3 0.1 0.2 0 0.4 0 0.2 0 0.4 0 0.1 0 0.3 0 0.6 0.1 1.1 0 0.6-0.1 1.1-0.3 0.5-0.1 1-0.4 0.5-0.2 0.9-0.6 0.1 0 0.1-0.1 0.1-0.1 0.1-0.2 0-0.1 0-0.3 0-0.1-0.1-0.2-0.1 0-0.2-0.1-0.1-0.1-0.2-0.1-0.1 0-0.2 0.1-0.1 0-0.2 0-0.5 0.4-1 0.6-0.6 0.3-1.2 0.4-0.6 0.1-1.2 0.2-0.6 0-1.2-0.2c0.3-1.4 0.5-2.4-0.2-3.6q0.6-0.7 1.3-1.3 0.7-0.7 1.5-1.3 0.7-0.6 1.4-1.2 0.8-0.6 1.6-1.1z"/><path class="i" d="m235.4 115.9q0-0.1 0.1-0.2 0.1-0.1 0.1-0.2 0-0.1 0-0.2 0-0.1-0.1-0.2-0.1-0.1-0.2-0.1-0.1-0.1-0.2-0.1-0.1 0-0.2 0-0.1 0-0.2 0.1-0.8 0.5-1.5 1.1-0.8 0.6-1.5 1.2-0.7 0.6-1.4 1.2-0.7 0.7-1.4 1.4c-2.2-2.3-8.3-4.7-11.5-4.6-2.3 0-3.8-0.2-5.5 1.5-1.5 1.5-0.3 9 0.6 11.2q0.4 0.9 1 1.6 0.6 0.8 1.3 1.4 0.8 0.6 1.7 1.1 0.8 0.4 1.7 0.6c3.4 0.7 10.6 1 10.9-3.9q0.1-0.4 0.1-0.8 0.1-0.4 0.1-0.8 0.1-0.5 0.1-0.9 0.1-0.4 0.2-0.8 0.2 0 0.3 0.1 0.2 0 0.4 0 0.2 0 0.4 0 0.1 0 0.3 0 0.6 0.1 1.1 0 0.6-0.1 1.1-0.3 0.5-0.1 1-0.4 0.5-0.2 0.9-0.6 0.1 0 0.1-0.1 0.1-0.1 0.1-0.2 0-0.1 0-0.3 0-0.1-0.1-0.2-0.1 0-0.2-0.1-0.1-0.1-0.2-0.1-0.1 0-0.2 0.1-0.1 0-0.2 0-0.5 0.4-1 0.6-0.6 0.3-1.2 0.4-0.6 0.1-1.2 0.2-0.6 0-1.2-0.2c0.3-1.4 0.5-2.4-0.2-3.6q0.6-0.7 1.3-1.3 0.7-0.7 1.5-1.3 0.7-0.6 1.4-1.2 0.8-0.6 1.6-1.1z"/></svg>